<svg xmlns="http://www.w3.org/2000/svg" viewBox="0 0 234.66602 176"><defs><style>.a{fill:#ccc;}.b{fill:blue;}.c{fill:#fc0;}.d{fill:red;}.e{fill:#fff;}</style></defs><title>hardwareemocional</title><polygon class="a" points="39.333 8 195.333 8 205.333 20 207.333 130 228.333 152 226.333 163 212.333 170 13.333 170 4.333 154 30.333 127 30.333 15 39.333 8"/><path d="M220.29474,163.00542l16.22271,16.12088a19.71185,19.71185,0,0,1,4.28546,6.42786,19.72344,19.72344,0,0,1-.05124,15.3555A19.71871,19.71871,0,0,1,230.19208,211.418,19.413,19.413,0,0,1,222.43779,213H27.56286a19.28794,19.28794,0,0,1-7.80553-1.582,19.85233,19.85233,0,0,1-10.509-10.50835,19.72344,19.72344,0,0,1-.05124-15.3555,19.72194,19.72194,0,0,1,4.28546-6.42786l16.22271-16.12088V59.03827A21.198,21.198,0,0,1,31.43968,50.468a22.92721,22.92721,0,0,1,4.69344-6.98891,21.92055,21.92055,0,0,1,6.93767-4.74468A21.22285,21.22285,0,0,1,51.64169,37H198.359a21.21976,21.21976,0,0,1,8.57026,1.73442,21.9453,21.9453,0,0,1,6.93832,4.74468,22.984,22.984,0,0,1,4.69279,6.98891,21.21979,21.21979,0,0,1,1.73442,8.57026Zm2.14305,35.40445a5.01013,5.01013,0,0,0,3.67315-1.53075,5.131,5.131,0,0,0,1.53011-3.775,4.89282,4.89282,0,0,0-1.53011-3.57132L205.70461,169.0253V59.03827A7.49331,7.49331,0,0,0,198.359,51.692H51.64169a7.49448,7.49448,0,0,0-7.3463,7.34631v109.987L23.8897,189.53281a4.89352,4.89352,0,0,0-1.53075,3.57132,5.13162,5.13162,0,0,0,1.53075,3.775,5.00913,5.00913,0,0,0,3.67316,1.53075Zm-27.752-29.38457,12.24341,12.34524a1.38966,1.38966,0,0,1,.408,1.02028,1.17233,1.17233,0,0,1-1.32644,1.32644H150.7111l3.57132,7.34631H95.61575l3.67315-7.34631H43.98924a1.30874,1.30874,0,0,1-1.02029-.45858,1.43987,1.43987,0,0,1-.408-.96969q0-.612,1.78566-2.49979,1.78339-1.88652,3.97865-4.08114,2.193-2.193,4.28546-4.13173,2.08986-1.93712,2.70346-2.551Zm3.67315-109.987V161.679H51.64169V59.03827Z" transform="translate(-7.66699 -37)"/><rect class="b" x="43.33301" y="22" width="148" height="103"/><ellipse class="c" cx="117.33301" cy="72.5" rx="53" ry="28.5"/><polygon class="d" points="92.333 113 66.333 84 73.333 71 100.333 60 118.333 56 116.333 44 121.333 35 137.333 34 141.333 39 152.333 32 164.333 36 167.333 49 162.333 59 134.333 83 118.333 87 94.333 114 92.333 113"/><path class="e" d="M174.10178,96.91076a23.42423,23.42423,0,0,1,3.43724,6.00907,18.573,18.573,0,0,1,1.2391,6.75735,18.8017,18.8017,0,0,1-1.42639,7.3653,23.45629,23.45629,0,0,1-3.8576,6.21955,31.71454,31.71454,0,0,1-5.63538,5.12048,49.12084,49.12084,0,0,1-6.73357,4.04519,60.98313,60.98313,0,0,1-7.1783,3.016q-3.64771,1.26288-6.96782,2.05782a80.28708,80.28708,0,0,1-10.91937,1.87054A109.74281,109.74281,0,0,1,125,139.933q-1.77748,0-3.53059-.07016-1.75339-.07-3.53058-.16351L101.478,156.16016,76.69376,131.3753a18.19126,18.19126,0,0,1-4.02171-6.05575,19.09665,19.09665,0,0,1-.93526-11.387,14.84336,14.84336,0,0,1-.39777-2.12769,19.25783,19.25783,0,0,1-.11714-2.12768,18.894,18.894,0,0,1,1.21591-6.851,22.63785,22.63785,0,0,1,3.3207-5.84527,28.9744,28.9744,0,0,1,4.88681-4.88681A45.63923,45.63923,0,0,1,86.537,88.14257a53.22541,53.22541,0,0,1,6.38335-3.063q3.27313-1.30881,6.36017-2.19784a80.9025,80.9025,0,0,1,9.74984-2.19815,96.43959,96.43959,0,0,1,9.93713-1.07529,18.61481,18.61481,0,0,1,2.57213-5.51825,18.23129,18.23129,0,0,1,4.09187-4.30234,19.18181,19.18181,0,0,1,5.23761-2.78231A18.08158,18.08158,0,0,1,136.87842,66a18.28219,18.28219,0,0,1,6.14909,1.0521,19.5229,19.5229,0,0,1,5.49447,3.01628,19.61608,19.61608,0,0,1,5.47187-3.01628,18.6856,18.6856,0,0,1,13.39756.39747,18.6426,18.6426,0,0,1,5.91543,3.975A18.96451,18.96451,0,0,1,177.30535,77.34a17.94415,17.94415,0,0,1,1.47277,7.225,18.56307,18.56307,0,0,1-1.21591,6.59383A18.28345,18.28345,0,0,1,174.10178,96.91076ZM89.83386,106.3101a11.48729,11.48729,0,0,0-4.62936.93527,11.95878,11.95878,0,0,0-6.31319,6.33638,11.53424,11.53424,0,0,0-.93527,4.60647,11.83709,11.83709,0,0,0,.91208,4.58269,11.69011,11.69011,0,0,0,2.54835,3.83471L101.478,146.66717l20.06155-20.06155a11.71031,11.71031,0,0,0,2.549-3.83471A11.84752,11.84752,0,0,0,125,118.18822a11.53424,11.53424,0,0,0-.93527-4.60647,11.89137,11.89137,0,0,0-6.33638-6.33638,11.54191,11.54191,0,0,0-4.60617-.93527,11.22524,11.22524,0,0,0-3.39027.46763,11.85,11.85,0,0,0-2.73564,1.26258,15.01736,15.01736,0,0,0-2.38484,1.87054q-1.12286,1.07648-2.29149,2.29149l-.84192.84162-.84132-.84162q-1.17014-1.21561-2.2915-2.29149a15.04777,15.04777,0,0,0-2.38543-1.87054,11.71707,11.71707,0,0,0-2.75883-1.26258A11.28876,11.28876,0,0,0,89.83386,106.3101Zm31.893-20.10823q-4.396.14047-8.67484.7013a81.36767,81.36767,0,0,0-8.53394,1.59019q-2.4321.561-5.23761,1.47306a55.60414,55.60414,0,0,0-5.65857,2.19785,48.48352,48.48352,0,0,0-5.54144,2.94612,29.75417,29.75417,0,0,0-4.83984,3.69409,19.42706,19.42706,0,0,0-3.55437,4.48934,13.17467,13.17467,0,0,0-1.68324,5.30777,14.34892,14.34892,0,0,1,4.74649-3.90487A15.91466,15.91466,0,0,1,88.618,102.99a29.9137,29.9137,0,0,1,7.64623-4.69981,58.59493,58.59493,0,0,1,9.16538-3.08644,73.51589,73.51589,0,0,1,9.6333-1.73022q4.84014-.5369,9.00186-.58446a16.363,16.363,0,0,1-1.54292-3.20328A15.00059,15.00059,0,0,1,121.72686,86.20187ZM125,133.19916q4.77057,0,9.4698-.46764a80.68827,80.68827,0,0,0,9.37585-1.49654q2.52575-.561,5.58841-1.49625a58.81168,58.81168,0,0,0,6.19606-2.29149,54.79077,54.79077,0,0,0,6.10272-3.10963,27.89084,27.89084,0,0,0,5.2608-3.975,18.872,18.872,0,0,0,3.67091-4.88681,12.43277,12.43277,0,0,0,1.38-5.79859,12.02784,12.02784,0,0,0-1.40319-5.72843,19.81491,19.81491,0,0,0-3.5074-4.7465l-4.76968,4.723a13.25553,13.25553,0,0,1,2.081,2.59532,5.89529,5.89529,0,0,1,.91208,3.1566,5.34492,5.34492,0,0,1-.65522,2.57183,16.25475,16.25475,0,0,1-1.44958,2.24482,17.56647,17.56647,0,0,1-3.69409,3.24995,42.40435,42.40435,0,0,1-4.30234,2.54864,49.63866,49.63866,0,0,1-6.92086,2.78232,67.75162,67.75162,0,0,1-7.36559,1.894,73.23852,73.23852,0,0,1-7.57548,1.09908q-3.81181.35049-7.45894.39747a19.37665,19.37665,0,0,1-2.89915,3.46043q-1.63746,1.54337-3.22676,3.13311Q122.3806,133.1993,125,133.19916ZM172.04455,84.612a11.542,11.542,0,0,0-.93526-4.60617,11.89448,11.89448,0,0,0-6.337-6.33669,11.54207,11.54207,0,0,0-4.60617-.93526,11.27915,11.27915,0,0,0-3.36649.46763,11.73282,11.73282,0,0,0-2.75942,1.26258,15.901,15.901,0,0,0-2.408,1.87083q-1.14693,1.076-2.31527,2.2912a3.08661,3.08661,0,0,1-.374.39747q-.18729.16455-.421.39747l-.98164-.98194q-1.16923-1.16833-2.26831-2.22133a14.36656,14.36656,0,0,0-2.33787-1.82356,11.26428,11.26428,0,0,0-2.71245-1.21591,12.273,12.273,0,0,0-7.97325.49082,12.30423,12.30423,0,0,0-3.76425,2.52546,11.73591,11.73591,0,0,0-2.54894,3.76426A11.53382,11.53382,0,0,0,125,84.565a11.84828,11.84828,0,0,0,.91208,4.583,11.69,11.69,0,0,0,2.54835,3.83471L148.522,113.044,164.6088,96.95744q1.40291-1.40291,2.75942-2.689a20.08829,20.08829,0,0,0,2.38484-2.68867,12.81561,12.81561,0,0,0,1.66006-3.08644A11.01324,11.01324,0,0,0,172.04455,84.612Z" transform="translate(-7.66699 -37)"/></svg>