<svg xmlns="http://www.w3.org/2000/svg" xmlns:xlink="http://www.w3.org/1999/xlink" viewBox="0 0 244.89169 102.48177"><defs><style>.a{fill:#999;}.b{fill:url(#a);}</style><linearGradient id="a" x1="55.17489" y1="203.97131" x2="192.73079" y2="66.41541" gradientUnits="userSpaceOnUse"><stop offset="0.31564"/><stop offset="0.54749" stop-color="#ccc"/><stop offset="0.88547"/></linearGradient></defs><title>home_escritorio_telefono</title><polygon class="a" points="2.31 64.842 2.31 76.4 5.367 78.674 92.594 98.284 107.752 98.284 239.436 38.79 241.142 36.516 241.142 24.011 106.805 86.79 94.678 87.548 6.384 67.779 2.31 64.842"/><path class="b" d="M8.84094,152.15789s-3.37895,3.97895.37894,5.4,85.54737,19.48422,85.54737,19.48422,12.6,1.61052,17.81053-1.32632,127.42105-58.421,127.42105-58.421a3.62259,3.62259,0,0,0-2.02105-5.11579c-3.78948-1.64211-84.94737-19.26316-84.94737-19.26316s-11.27368-2.27368-21.88421,2.65263S8.84094,152.15789,8.84094,152.15789Z" transform="translate(-2.07838 -91.64186)"/><path d="M147.12457,91.66841c10.24631.28769,19.9749,3.47543,29.88451,5.59059,19.05714,4.06765,38.0482,8.445,57.06557,12.69876.81247.18174,1.6177.399,2.42.62236,9.30646,2.59089,12.401,8.4233,9.32751,17.75476-1.19,3.613-4.70437,4.60395-7.61932,5.97461-12.05936,5.67051-24.21767,11.13088-36.34888,16.64812-22.74556,10.34462-45.57454,20.51117-68.18907,31.1344-5.22351,2.45378-10.25255,5.426-15.465,8.00017A36.39009,36.39009,0,0,1,92.944,193.08783c-26.87662-6.34912-53.76918-12.63225-80.61755-19.09869-8.939-2.153-12.35119-9.33063-8.95942-17.9881,1.23434-3.15065,4.29348-4.09052,6.94813-5.3196q25.39642-11.75829,50.88462-23.31829,35.932-16.359,71.88284-32.67638A30.084,30.084,0,0,1,147.12457,91.66841ZM10.09463,155.47491c2.1676.82111,2.89126,1.19973,3.66108,1.37177,27.79281,6.21069,55.57222,12.48358,83.40048,18.53166,5.99972,1.304,11.915.10172,17.53639-2.46512q59.3215-27.08724,118.64687-54.1659c1.36734-.62547,3.84765-.62969,3.50393-2.78493-.24539-1.53878-2.39669-1.4643-3.81982-1.782-26.16911-5.842-52.32057-11.76619-78.52821-17.43032a31.71613,31.71613,0,0,0-20.47811,2.19169c-31.78,14.61429-63.66371,29.00291-95.50263,43.48916C29.45673,146.55212,20.42525,150.73132,10.09463,155.47491Zm91.67016,33.62746a26.612,26.612,0,0,0,16.66725-4.40349,95.18047,95.18047,0,0,1,11.92544-6.17869q24.54-11.167,49.063-22.37148c2.08231-.9518,4.86264-1.73454,3.47237-4.90089-1.52481-3.47275-3.80013-.71016-5.35568-.01325q-30.29934,13.57458-60.47039,27.43521a34.15863,34.15863,0,0,1-21.888,2.738q-12.44667-2.664-24.871-5.43208-29.23528-6.51513-58.46291-13.06464c-1.67716-.37346-3.78186-1.52228-4.40974,1.34088-.51656,2.35552.66036,3.8111,2.94775,4.41362.96577.25441,1.92148.55277,2.89556.769,9.584,2.12773,19.18023,4.20141,28.7546,6.37149,11.03079,2.50018,22.18683,4.59369,33.01825,7.78181C83.86341,186.18169,92.65234,188.3443,101.76479,189.10237ZM241.69238,125.045c-.05786-1.02764-.0444-2.82716-2.0599-1.99794-4.44391,1.82831-8.80085,3.88585-13.10437,6.02843-1.61481.804-1.35071,2.53848-.99781,4.01663.328,1.37417,1.4191,1.26052,2.37485.82935,4.08249-1.84181,8.15219-3.71426,12.1893-5.65305C241.224,127.726,241.68582,126.62443,241.69238,125.045Z" transform="translate(-2.07838 -91.64186)"/><path d="M177.09427,103.92513c5.21767,1.331,10.3822,2.61951,15.52678,3.9833,1.14215.30278,2.30227.91768,2.14815,2.35256-.14847,1.3818-1.35935,1.73133-2.53272,2.00519-3.60509.8414-6.87721-.81987-10.29278-1.37661a54.98059,54.98059,0,0,1-5.84711-1.29886c-1.49669-.41548-3.94127-.26521-3.64539-2.50277C172.74892,104.83643,175.15309,104.53386,177.09427,103.92513Z" transform="translate(-2.07838 -91.64186)"/></svg>