<svg xmlns="http://www.w3.org/2000/svg" xmlns:xlink="http://www.w3.org/1999/xlink" viewBox="0 0 176.12683 107.35775"><defs><style>.a{fill:#333;}.b{fill:url(#a);}</style><linearGradient id="a" x1="124.46172" y1="106.25547" x2="124.46172" y2="177.63638" gradientUnits="userSpaceOnUse"><stop offset="0" stop-color="#3d3b3c"/><stop offset="0.3743" stop-color="#3d3d3d"/><stop offset="0.78212"/></linearGradient></defs><title>home_escritorio_mouse</title><path class="a" d="M38.75985,161.88356v-16.482l1.76819-25.4493s9.34614-34.35339,29.80662-40.16316,63.14962-6.56756,75.77955-1.51559,60.11844,12.12473,63.90741,33.8482l1.0104,12.88252s-25.51245,26.52284-30.817,29.30143-35.11119,21.72347-45.46773,22.48126-65.17041-3.789-70.475-5.052S46.843,169.20892,38.75985,161.88356Z" transform="translate(-37.69883 -73.87099)"/><path class="b" d="M41.03323,145.591s14.01922,15.72425,80.70522,10.60913c0,0,33.343-41.67875,61.76033-49.6356,0,0,20.83228-2.71116,26.70875,7.92741L211.032,127.025s-29.85546,32.77194-51.71238,39.30928a64.457,64.457,0,0,1-34.42371,11.27357c-20.39733.56834-80.85687-7.45018-84.82262-14.6184s-1.31346-12.28334-1.31346-12.28334Z" transform="translate(-37.69883 -73.87099)"/><path d="M37.85216,143.96992c-.02127-11.17585.02963-22.27459,4.42425-32.91906C47.47229,98.4656,55.46677,88.36294,67.27774,81.496c8.48128-4.93108,18.14873-5.24212,27.52448-6.31464,17.9729-2.056,35.987-2.07989,53.54011,2.76555,14.74649,4.07069,29.4383,8.54206,43.49962,14.6563,8.614,3.74562,15.08035,10.31292,20.13158,18.15879,3.00077,4.661,2.222,16.17112-1.374,20.339a163.06707,163.06707,0,0,1-69.17394,47.57763c-11.67442,4.21385-23.77929,2.132-35.67023,1.26954A412.99191,412.99191,0,0,1,59.74368,173.886c-20.51556-3.83606-22.7478-6.72066-21.89588-27.42026C37.882,145.63517,37.85216,144.80193,37.85216,143.96992ZM172.6718,90.48855C143.549,78.57724,114.35438,75.881,84.19616,80.7903c-13.0703,2.12766-20.93821,9.50645-25.25043,21.284a131.08463,131.08463,0,0,0-7.75466,40.53237c-.26944,7.42147-.18652,7.53486,7.17169,9.45167a154.87417,154.87417,0,0,0,37.54572,4.71042c10.36132.11077,10.16394.02755,12.523-9.7418,3.6743-15.21593,13.5443-26.59413,24.48079-36.92338C143.89413,99.73148,157.28316,93.48663,172.6718,90.48855Zm30.15344,16.49507c.004-1.91664-1.5648-2.81137-2.74445-3.87974-9.32936-8.44924-20.11542-10.33427-32.085-7.158-24.49225,6.4994-41.09049,22.41658-52.76366,44.17148a26.43925,26.43925,0,0,0-3.09357,11.99851c-.03433,1.55706.09483,3.349,1.9864,3.50119,3.58461.28833,7.22605.87868,9.94872-2.79221,6.89025-9.29,15.60069-16.85585,24.19689-24.465a112.95322,112.95322,0,0,1,29.09719-19.16769c4.44168-1.96391,8.96016-3.68075,13.92108-3.52148,1.69678.05448,4.20422-.59889,4.33684,2.02.11222,2.216-2.26227,1.9706-3.79678,2.33125-3.0717.72192-6.32257.97675-9.20957,2.1424-22.402,9.045-39.46672,24.97511-54.87817,42.98378-1.67476,1.957-1.45806,3.81548.07142,5.84784,4.1587,5.52612,9.8148,6.44082,16.09742,5.38358,6.00939-1.01124,11.26956-3.915,16.59123-6.70856,17.16413-9.01015,31.79925-21.24828,45.04473-35.23038,4.6869-4.94754,4.185-7.40733-1.68266-10.9071-1.56681-.93451-3.286-1.61151-4.92366-2.43-1.07963-.53961-2.11265-1.1933-1.71221-2.64134.38782-1.40235,1.46222-1.63188,2.7651-1.4153C200.90711,107.199,201.84971,107.96385,202.82524,106.98362Zm-96.64941,68.69355c2.75517.41329,4.38667-.02187,2.48307-3.5819a23.46647,23.46647,0,0,1-1.98961-6.14783c-.59561-2.78706-2.15972-3.80194-4.93767-3.74626-15.882.31835-31.58264-.983-46.89746-5.53383-1.53171-.45514-2.936-.58478-3.44609,1.56585a8.83233,8.83233,0,0,0,6.6157,10.82112C73.83186,172.28715,89.8643,174.08744,106.17583,175.67717Zm47.00221-6.999c-11.83612,3.84612-22.56073,4.39633-30.84673-7.27179-1.9417-2.73423-6.13045-1.75693-8.84993-.35335-2.51141,1.29617-1.22837,4.17552-.60481,6.35694,1.86422,6.52164,5.03923,8.88551,11.88465,9.2415C135.10513,177.18938,144.29214,173.5578,153.178,168.67816Zm-98.18527-70.217C44.10033,111.59867,41.333,126.9273,42.48966,143.31894a3.18957,3.18957,0,0,0,.2113.96931c.53176,1.30051,1.38707,2.5326,2.86094,2.3566,1.60706-.19192,1.08721-1.79062,1.17156-2.8511.25-3.14284.29386-6.30568.63565-9.437A184.05378,184.05378,0,0,1,54.99277,98.46113Z" transform="translate(-37.69883 -73.87099)"/></svg>