<svg xmlns="http://www.w3.org/2000/svg" xmlns:xlink="http://www.w3.org/1999/xlink" viewBox="0 0 244.62636 163.11105"><defs><style>.a{fill:url(#a);}.b{fill:url(#b);}.c{fill:#ccc;}.d{fill:#333;}.e{fill:url(#c);}.f{fill:url(#d);}</style><linearGradient id="a" x1="2.43692" y1="146.06241" x2="245.96735" y2="146.06241" gradientUnits="userSpaceOnUse"><stop offset="0" stop-color="#797979"/><stop offset="0.51955" stop-color="#fff"/><stop offset="1" stop-color="#ccc"/></linearGradient><linearGradient id="b" x1="28.53739" y1="190.74009" x2="147.85284" y2="71.42465" gradientUnits="userSpaceOnUse"><stop offset="0.31564"/><stop offset="0.54749" stop-color="#ccc"/><stop offset="0.88547"/></linearGradient><linearGradient id="c" x1="52.32794" y1="200.24524" x2="128.30485" y2="68.64938" gradientUnits="userSpaceOnUse"><stop offset="0" stop-color="#000df7"/><stop offset="0.32961" stop-color="#0071bc"/><stop offset="0.5419" stop-color="#fff"/><stop offset="0.77374" stop-color="#0071bc"/><stop offset="0.99162" stop-color="blue"/></linearGradient><radialGradient id="d" cx="73.2279" cy="87.22442" r="1.66536" gradientUnits="userSpaceOnUse"><stop offset="0.11453" stop-color="#d42300"/><stop offset="0.30447"/><stop offset="0.88268" stop-color="#fff"/></radialGradient></defs><title>home_escritorio_laptop</title><path class="a" d="M106.55415,227.25868s-7.63521-.77766-32.66172-10.81654S43.5637,203.5754,43.5637,203.5754s-5.84424-.47131-7.96513-9.6147L15.28515,138.2991,2.7012,102.69171s-.84835-1.41393.49488-1.791,136.79744-36.008,136.79744-36.008a1.93326,1.93326,0,0,1,2.26228,1.7085c.45953,2.08554,33.36868,92.43548,33.36868,92.43548l.47131.28279a29.89145,29.89145,0,0,1,4.24178.23565c.65983.23565,3.15777.80123,3.15777.80123l4.85449,2.12089,1.46105,1.93236,30.4937,12.961,1.88523-.09426,23.77754,10.18027v3.60552l-41.49876,11.24072-39.94344,10.46306-38.81229,9.82679Z" transform="translate(-2.37364 -64.71469)"/><path class="b" d="M43.5637,203.5754a8.93786,8.93786,0,0,1-1.41393-4.24178,21.11983,21.11983,0,0,1,.21209-5.37292,17.2935,17.2935,0,0,1,5.28365-2.44554c3.05852-.80649,2.97427-.42221,2.97427-.42221s-.69341-.21933,1.59244.60547,3.47275-.53051,3.83145-.51245c.292.01471.33322-.11773-.21225-.79847-1.21553-1.51694.21018-.96315.21018-.96315l104.05325-26.94709,1.31966.69518,1.34324.45952,3.28738-.98975v-1.41392l3.80359-1.17545a48.60775,48.60775,0,0,1,5.52832-.8394v-.85617L142.11555,66.13491s-.44035-1.2745-1.04391-1.26878-3.0298.54-3.0298.54L73.96417,82.26442,9.7041,99.18084,2.99,100.97443a2.635,2.635,0,0,0-.47551,1.28522c-.02542.67949,20.97878,58.53093,20.97878,58.53093l14.09654,38.79048S40.94793,204.10563,43.5637,203.5754Z" transform="translate(-2.37364 -64.71469)"/><path class="c" d="M140.20561,213.47289l-14.316-6.43337a1.33924,1.33924,0,0,1,.74231-1.06044c.707-.35348,24.99116-6.68081,24.99116-6.68081s3.03994-.49487,4.45387.24744,13.89183,6.04454,13.89183,6.04454Z" transform="translate(-2.37364 -64.71469)"/><polygon class="d" points="51.901 134.725 183.573 100.543 214.208 113.928 82.618 147.768 51.901 134.725"/><path class="e" d="M10.76059,108.7009l87.2393-23.47119L139.14516,74.908l30.82361,85.11841-4.28891.94262.04713.6127-4.59526,1.31966-1.03688-.42417L56.21834,189.36544l-.28278.98974-4.10039,1.27254-1.76741-.77766s-5.7971,1.34323-7.7059,3.11064H41.4428" transform="translate(-2.37364 -64.71469)"/><path class="f" d="M72.07789,85.74815a1.87013,1.87013,0,0,0,0,2.35654c.89549,1.46106,2.68646.80123,2.68646.32992s.14139-2.49794-.56557-2.68646S72.92625,85.18258,72.07789,85.74815Z" transform="translate(-2.37364 -64.71469)"/><path d="M246.99219,189.67707c0,.32827.02.658-.004.98449a1.2905,1.2905,0,0,1-1.1729,1.35692c-.70091.14536-1.40642.27491-2.115.37583a22.94986,22.94986,0,0,0-3.57049.82417c-1.76675.548-3.55423,1.029-5.33267,1.53929-2.81058.80641-5.61717,1.627-8.43269,2.41585-2.18371.6118-4.3784,1.18449-6.56832,1.77407q-3.71694,1.00072-7.43392,2.00128-3.88892,1.05185-7.77541,2.11247c-2.53384.68936-5.06217,1.39965-7.60237,2.06462-2.627.68766-5.26547,1.33154-7.89874,1.99529-1.44677.36467-2.90734.6829-4.33688,1.10587-3.26384.9657-6.57866,1.73413-9.86564,2.60949-2.30691.61434-4.64058,1.1295-6.94238,1.7615-4.05839,1.11433-8.15245,2.08778-12.22216,3.15665-1.61622.42448-3.24241.811-4.859,1.23411-2.51151.65738-5.01444,1.34788-7.52907,1.99283-1.90759.48925-3.82588.93746-5.74273,1.38981-4.21134.9938-8.42511,1.97765-12.60119,3.11369-2.42026.65839-4.87242,1.17711-7.32288,1.70608-1.66216.35881-3.31183.77519-4.97261,1.14073-.93209.20517-1.87327.3719-2.81442.532a5.06866,5.06866,0,0,0-1.76544.61008,2.53932,2.53932,0,0,1-1.97254.26517c-1.65844-.37892-3.32693-.71782-4.95241-1.22244-1.33821-.41544-2.67569-.84364-3.983-1.34561q-2.72031-1.0446-5.52358-1.82129a88.974,88.974,0,0,1-8.96674-3.09014c-1.72128-.678-3.4572-1.31867-5.18419-1.98223-2.0611-.79193-4.1234-1.581-6.17832-2.38871-1.97161-.775-3.9427-1.55252-5.8983-2.36667-1.34931-.56176-2.66692-1.19916-4.00756-1.78236-1.9426-.84507-3.89181-1.675-5.84072-2.50551q-5.02371-2.14072-10.05024-4.27481a6.05141,6.05141,0,0,0-1.61512-.51614,7.26807,7.26807,0,0,1-3.1855-1.34413,22.34853,22.34853,0,0,1-1.80547-1.46539,2.4531,2.4531,0,0,1-.41136-.4698,14.25009,14.25009,0,0,1-1.86675-3.453c-.61188-1.746-1.26-3.47924-1.8864-5.22019-1.15182-3.20112-2.294-6.40571-3.44951-9.6055q-2.55416-7.073-5.11932-14.14206c-1.01253-2.80725-2.00147-5.623-3.01236-8.43082-.81878-2.27423-1.658-4.54107-2.48161-6.81357-.65074-1.79555-1.28828-3.59588-1.93732-5.39205q-2.19051-6.062-4.38563-12.1224c-.96236-2.66661-1.9097-5.33866-2.87424-8.00447-1.0559-2.91832-2.12974-5.83015-3.18483-8.74877-.98411-2.72228-1.95032-5.451-2.931-8.17456q-1.289-3.57978-2.5946-7.15357a7.74134,7.74134,0,0,1-.41182-1.46252,1.41609,1.41609,0,0,1,.81455-1.63085,3.9942,3.9942,0,0,1,.83111-.3234q4.23645-1.13589,8.47749-2.25467,6.10187-1.61124,12.20614-3.21333c3.52185-.923,7.04815-1.829,10.56866-2.757,2.79867-.73772,5.58912-1.50663,8.38777-2.24442,2.51055-.66183,5.03023-1.289,7.54059-1.95155,3.20244-.84517,6.39553-1.72595,9.60006-2.563,3.58032-.9352,7.17115-1.8301,10.753-2.75945,1.79046-.46455,3.56922-.974,5.3568-1.4499,1.81679-.48365,3.6374-.953,5.4573-1.42494,3.2351-.83888,6.47871-1.64622,9.70464-2.519,4.83985-1.30937,9.70034-2.53721,14.55765-3.77857,2.39934-.61319,4.78129-1.2941,7.17459-1.93127,1.55726-.4146,3.12273-.79823,4.68111-1.2087,3.54908-.93483,7.09427-1.88445,10.64444-2.81507,2.8579-.74914,5.721-1.47852,8.58134-2.21834.57779-.14944,1.15132-.31607,1.73126-.45636a7.962,7.962,0,0,1,1.14244-.21489,1.75659,1.75659,0,0,1,1.86344.96076,11.05475,11.05475,0,0,1,.56468,1.31392q1.59311,4.37431,3.1696,8.75468,2.26749,6.27236,4.5349,12.54473,1.72164,4.75592,3.44879,9.50982c.73925,2.04914,1.45608,4.10636,2.19577,6.15534,1.10448,3.05947,2.22481,6.11322,3.32958,9.17259.7095,1.9648,1.398,3.93718,2.10492,5.90294q2.48421,6.90812,4.97751,13.813,2.23384,6.18916,4.47407,12.376,1.96225,5.43055,3.922,10.862c.26356.72972.54988,1.45194.789,2.18953a1.03711,1.03711,0,0,0,1.122.79787,26.35389,26.35389,0,0,1,4.53274.47716,12.01728,12.01728,0,0,1,2.56967.75669q1.97307.85,3.95956,1.66886a2.76458,2.76458,0,0,1,1.361,1.11136c.04678.07569.11661.13718.1632.213a3.02784,3.02784,0,0,0,1.51632,1.18358c4.07114,1.71156,8.12888,3.455,12.19318,5.18291q6.2198,2.64433,12.44262,5.28148,2.2647.96437,4.51316,1.96683a2.37288,2.37288,0,0,0,1.55722.237,1.97933,1.97933,0,0,1,1.21914.19237c1.46192.60378,2.92845,1.19669,4.38415,1.81509q4.861,2.065,9.7126,4.152c1.97385.84786,3.94207,1.70895,5.912,2.566.93.40463,1.87718.76664,2.79691,1.19925a1.66257,1.66257,0,0,1,1.05546,1.60972c.00527.32815.00087.65645.00087.98468ZM167.4928,211.74512a24.971,24.971,0,0,0-4.33823,1.12732c.10489.09919.22379.05058.3344.023.9478-.23623,1.89757-.46556,2.84046-.72017a3.60041,3.60041,0,0,0,1.15758-.4376c.57613-.04094.57613-.04094.8913-.30785Zm73.42945-20.06051c-.32529-.01463-.67561.11061-.97069-.05815a1.38583,1.38583,0,0,0-1.1231-.03264q-2.12219.55125-4.24482,1.10078c-.31766.08238-.63482.16664-.95279.24782a.7858.7858,0,0,0-.53051.30369,1.40533,1.40533,0,0,1-.97286.57239c-.375.09853-.75458.18024-1.12832.28314a4.10862,4.10862,0,0,0-.49556.19427c-.02009.00848-.04493.05872-.03767.06964.0275.0412.0702.10728.1021.10454a2.60969,2.60969,0,0,0,.43749-.07226q4.58768-1.20332,9.17391-2.412a2.13028,2.13028,0,0,0,.74068-.30381,4.45442,4.45442,0,0,0,1.05611-.14847c1.1839-.28555,2.34416-.66693,3.54712-.87546a.903.903,0,0,0,.25267-.084.19349.19349,0,0,0,.10216-.12362.13346.13346,0,0,0-.17376-.1363c-.45887.11882-.91232.25856-1.37091.37843-.891.23288-1.78442.45665-2.67643.68565A1.89777,1.89777,0,0,0,240.92225,191.68461Zm-39.58164,10.20594a3.72226,3.72226,0,0,0,1.05893-.14646c.4881-.13519.97425-.2787,1.46607-.39887,6.54148-1.59821,13.03962-3.36456,19.56161-5.03825a1.61,1.61,0,0,0,.72752-.27816,2.19505,2.19505,0,0,0-.90841.12828c-.26139.05343-.54307.17613-.78624.035a1.46142,1.46142,0,0,0-1.20779-.03615c-.54633.14816-1.09848.27472-1.64675.41589a1.10968,1.10968,0,0,0-.74368.45026,1.00617,1.00617,0,0,1-.66722.40957q-1.25462.32517-2.5095.64922c-.2321.0595-.49775.14607-.698.01215a1.36212,1.36212,0,0,0-1.20256-.051c-.635.16233-1.26713.3362-1.90049.50506a.95468.95468,0,0,0-.62338.318,1.693,1.693,0,0,1-1.126.65594q-1.50988.40807-3.025.797-2.38089.61179-4.76479,1.212a3.01067,3.01067,0,0,0-1.00181.364c-.29333.04542-.59286.06661-.879.13991q-6.48683,1.6616-12.96946,3.33927c-.11261.02914-.29138.01449-.29866.28787.57107-.14757,1.11271-.28784,1.65451-.42748q5.83534-1.504,11.67084-3.00738A2.09031,2.09031,0,0,0,201.34061,201.89055Zm-118.7433-3.039c-.29173-.44695.10945-.69606.3348-.99119a1.21733,1.21733,0,0,0-.23363-.19761c-.98463-.4271-1.97242-.84694-2.95846-1.27083a1.65977,1.65977,0,0,0-1.13331-.071c-1.29538.35006-2.59692.6773-3.89447,1.01944a1.59461,1.59461,0,0,0-.405.17725.14675.14675,0,0,0-.03158.23092,1.04539,1.04539,0,0,0,.29334.19688c.94664.43791,1.89628.86936,2.84368,1.30567a1.01636,1.01636,0,0,0,.69925.02311,17.64492,17.64492,0,0,0,1.991-.51157,3.00608,3.00608,0,0,1,2.50192.08081c.15769.08335.31047.17819.47389.24814a25.98808,25.98808,0,0,1,2.621,1.13682,2.37831,2.37831,0,0,0,2.19815.19079c.05484-.02174.11664-.0252.17325-.04328a1.36541,1.36541,0,0,1,1.04562.03062c.29745.144.48871.11547.60941-.23749.07-.20473.30413-.27282.50723-.3297.34409-.09639.69115-.18221,1.03519-.2788a7.10473,7.10473,0,0,0,.67824-.21465.12605.12605,0,0,0,.02378-.21906,1.15094,1.15094,0,0,0-.30327-.18076c-.87946-.36768-1.76807-.71441-2.63929-1.10047a2.24135,2.24135,0,0,0-1.56212-.11273c-1.237.3322-2.48228.634-3.72525.94385A3.622,3.622,0,0,1,82.59731,198.85153ZM152.44889,180.935a2.34569,2.34569,0,0,0,.70489.37695,30.57469,30.57469,0,0,1,2.86067,1.26206.82829.82829,0,0,0,.60616.07656c.291-.06447.58024-.13733.86843-.21344a1.94524,1.94524,0,0,1,1.059-.06356.69725.69725,0,0,0,.85262-.27781,1.06132,1.06132,0,0,1,.63442-.30285c.46249-.11647.9249-.23332,1.38637-.35371.11191-.02919.238-.05124.24965-.20994-.0967-.17135-.28432-.20414-.44524-.272-.879-.3705-1.77191-.71054-2.63691-1.111a2.16013,2.16013,0,0,0-1.55677-.09244c-1.52543.41107-3.05838.7942-4.58837,1.18834-.40273-.47385-.40313-.47426.023-.907.0667-.06774.10232-.13729.0055-.288-.90311-.38171-1.87254-.7638-2.81657-1.20076a2.38959,2.38959,0,0,0-1.73029-.14024c-1.32025.36585-2.65142.69221-3.97589,1.0432-.12181.03228-.3147.01-.317.25591.0986.04853.20141.10327.30747.15075.89713.40144,1.82165.75245,2.68166,1.22174a1.639,1.639,0,0,0,1.34929.15717c.77226-.22358,1.55495-.411,2.32906-.62849a1.81134,1.81134,0,0,1,1.38736.087A4.60579,4.60579,0,0,0,152.44889,180.935Zm-51.04612,9.31978c-.12824-.454-.09974-.60382.20346-.729.2729-.11266.5712-.16283.847-.26976a6.382,6.382,0,0,0,1.50212-.50727c.108-.07605-.53507-.4249-1.51334-.792a1.79224,1.79224,0,0,0-1.13086-.0541c-1.14963.3009-2.30454.58164-3.45728.87065-.05761.01446-.11548.02925-.17126.04936-.13416.04836-.31747.06164-.31576.25028.0012.13227.14632.17239.25307.22258.37593.17674.76567.32931,1.1243.536a1.1517,1.1517,0,0,0,.93464.15884,1.87452,1.87452,0,0,1,1.21752.111c.16647.06146.34225.09766.51381.14535a2.93829,2.93829,0,0,0,.87081.44682,27.61116,27.61116,0,0,1,2.93707,1.31491.75336.75336,0,0,0,.602.06624c.72266-.18393,1.45491-.33543,2.16772-.55144a2.75265,2.75265,0,0,1,2.26218.05185c.08267-.20082.13872-.36575.21708-.51929.07969-.15613.31669-.177.35131-.39841a1.69612,1.69612,0,0,0-.7522-.43806c-.712-.30752-1.43916-.58143-2.14342-.90532a2.48736,2.48736,0,0,0-1.822-.13123c-1.14566.3322-2.30717.61006-3.46348.90507A3.34743,3.34743,0,0,1,101.40277,190.25479ZM80.44783,195.628c-.06873-.5038-.04783-.61067.27931-.71636.50994-.16475,1.03462-.28348,1.55146-.42743q.60222-.16776,1.19969-.35226a.17241.17241,0,0,0,.1249-.204.2212.2212,0,0,0-.10775-.13364c-.43468-.19643-.8766-.37706-1.30886-.57851a1.70844,1.70844,0,0,0-1.217-.08328c-1.0375.2769-2.08241.52593-3.12341.78984a3.3155,3.3155,0,0,0-.42282.14357.182.182,0,0,0-.1313.20225.21968.21968,0,0,0,.10646.13462c.42937.20662.86742.3957,1.293.6097a6.15692,6.15692,0,0,0,1.76442.60642,3.01563,3.01563,0,0,0,.93116.51508,23.85273,23.85273,0,0,1,2.75978,1.25719.84116.84116,0,0,0,.68375.08869c.63454-.16186,1.27174-.31331,1.9059-.47659a3.46738,3.46738,0,0,1,2.85329.04906c.15665.08544.30835.182.47077.25451a26.33075,26.33075,0,0,1,2.76565,1.257,1.89345,1.89345,0,0,0,1.76168.16935c.11206-.04055.22869-.06834.34136-.10736a1.5899,1.5899,0,0,1,1.21282.0779c1.14761.50143,2.30892.97146,3.46317,1.45777a2.34139,2.34139,0,0,1,.63937.31259,1.41306,1.41306,0,0,0,1.43061.209c.69013-.18938,1.38238-.372,2.07782-.54054a4.91994,4.91994,0,0,1,.88177-.13564,4.31843,4.31843,0,0,0,1.44447-.42806c.39185-.2794.39008-.34945-.06571-.54488-.877-.376-1.77229-.71161-2.63711-1.11325a2.47936,2.47936,0,0,0-1.816-.13678c-1.26279.3549-2.543.64774-3.81624.96547a1.23337,1.23337,0,0,1-.78829.04434.36666.36666,0,0,1-.24313-.24134.325.325,0,0,1,.11427-.31992,1.42043,1.42043,0,0,1,.64371-.29384c.403-.10806.80777-.21063,1.2074-.33015a.31307.31307,0,0,0,.174-.17534c.03367-.09378-.05-.16558-.13228-.20157-.84685-.37029-1.7092-.70848-2.53874-1.11391a2.62362,2.62362,0,0,0-1.9915-.11872c-1.14543.3317-2.30606.61091-3.46031.91216a3.34372,3.34372,0,0,1-1.14732.14964c-.2715-.44166.06849-.70572.33972-.98274-.10027-.09208-.15388-.17173-.22824-.205-.9477-.42392-1.90253-.83214-2.84653-1.26406a1.93118,1.93118,0,0,0-1.38384-.09158c-1.20044.33381-2.40893.63859-3.60962.97149A3.45014,3.45014,0,0,1,80.44783,195.628Zm16.12156-.3642c.34822.16819.6918.347,1.04564.50238.7909.34737,1.6017.65314,2.37533,1.03475a1.79148,1.79148,0,0,0,1.37646.12081,2.57624,2.57624,0,0,1,1.83394-.07477.24.24,0,0,0,.31217-.10448c.24128-.45155.68437-.53551,1.11959-.64717.31721-.08139.63061-.17851.943-.27708.107-.03374.24186-.05748.2245-.224-.03982-.043-.07146-.10444-.12066-.12625-.97973-.43442-1.96194-.86322-2.94261-1.29552a1.8302,1.8302,0,0,0-1.22555-.07552c-1.06732.27369-2.13422.54927-3.19776.83713a6.82867,6.82867,0,0,1-1.748.33488c-.15829-.24214-.24268-.46078.032-.70482.36144-.32114.34923-.36163-.09768-.55189-.90473-.38514-1.82248-.74061-2.7193-1.143a2.04058,2.04058,0,0,0-1.46761-.09583c-1.349.37489-2.713.69569-4.06894,1.04609-.16019.0414-.35678-.00858-.49536.18722a2.34059,2.34059,0,0,0,.7642.41712,19.36479,19.36479,0,0,1,2.68634,1.20982.848.848,0,0,0,.69078.063c.63574-.16015,1.28392-.283,1.90421-.48959A3.62253,3.62253,0,0,1,96.56939,195.2638Zm2.68725,6.98467a4.27457,4.27457,0,0,0,1.16841.63636,13.57679,13.57679,0,0,1,2.09347.982.91251.91251,0,0,0,.77171.08174c.37574-.08981.74886-.19058,1.12371-.28414a1.82871,1.82871,0,0,1,1.13882.04652c.165.06444.34164.09929.513.14759a5.61014,5.61014,0,0,0,.5427.30518c1.17765.50573,2.36244.99493,3.53713,1.50736a1.41442,1.41442,0,0,0,.95724.05763c1.87825-.47577,3.75749-.94757,5.63453-1.42806.12558-.03213.31008-.03712.30541-.25191a1.82845,1.82845,0,0,0-.69379-.39125c-.82318-.34914-1.66065-.66656-2.4725-1.03991a2.30965,2.30965,0,0,0-1.64219-.11365c-1.6423.43525-3.29474.832-4.94014,1.25582a3.22786,3.22786,0,0,1-1.23732.10705.70107.70107,0,0,1,.58693-.77535c.485-.13842.97535-.25812,1.45992-.39792.07419-.0214.1735-.10206.18121-.1651.00727-.05938-.07712-.16445-.14507-.19342q-1.63781-.69836-3.28276-1.37991a1.06139,1.06139,0,0,0-.69923-.0011q-2.45206.65006-4.9043,1.29948c-.54-.50267-.53917-.50165.02826-.97986.03922-.033.05177-.09775.08132-.15695-.16237-.23517-.44231-.2744-.678-.37942-.78784-.351-1.5936-.66349-2.37047-1.03659a2.06353,2.06353,0,0,0-1.54749-.14256c-1.23009.34979-2.47382.65161-3.71212.97251-.1439.03729-.29156.06284-.43188.11038-.12254.04153-.31233-.03447-.36042.23281.67311.28888,1.353.57967,2.03207.87245a4.04035,4.04035,0,0,1,1.25547.66326.80909.80909,0,0,0,.89745.1501c.82829-.24046,1.66726-.44408,2.49623-.68235a1.79485,1.79485,0,0,1,1.465.11508A1.9175,1.9175,0,0,0,99.25664,202.24847Zm53.36786-17.72468c-.20877-.55671-.16307-.72706.29645-.89941.30407-.114.62944-.17.93866-.272.2718-.08964.58881-.07083.79176-.2692a.21159.21159,0,0,0-.15381-.23066c-1.0585-.46506-2.119-.9256-3.17735-1.39093a1.24077,1.24077,0,0,0-.86737-.0072q-1.24359.34192-2.49335.66133c-.83239.21277-1.668.41292-2.50223.6186-.21267-.2823-.37-.557.01165-.83887.251-.18538.17143-.36743-.07064-.47449-.627-.27731-1.29347-.47857-1.89077-.80723a3.962,3.962,0,0,0-3.35338-.22627c-.9591.3201-1.96078.51379-2.94593.75388a1.31,1.31,0,0,1-.79064.04729.3202.3202,0,0,1-.20794-.42669,2.57263,2.57263,0,0,1,.15126-.21883c.12817-.22647.10736-.30837-.11729-.40785-.40894-.1811-.82384-.34877-1.2322-.53109a1.81488,1.81488,0,0,0-1.30258-.1c-.83025.24076-1.67278.43928-2.51019.65534-.3169.08177-.63484.15981-.95019.24713-.08773.02429-.17472.09132-.156.18853a.31813.31813,0,0,0,.13837.206c.40137.19582.83338.3386,1.21059.57135a1.27585,1.27585,0,0,0,1.10542.12254c.63087-.17779,1.27556-.306,1.9088-.47618a1.58293,1.58293,0,0,1,1.04875.072c1.433.59141,2.89373,1.12136,4.26993,1.84017a1.22152,1.22152,0,0,0,.93478.12989c.72153-.18778,1.45551-.3341,2.16593-.55637a2.68889,2.68889,0,0,1,2.24647.11884,1.58761,1.58761,0,0,0,.34181.10295c.26427.1324.52585.27052.7933.39615.91057.42772,1.87434.73779,2.75119,1.24a.88445.88445,0,0,0,.77389.0491,3.74356,3.74356,0,0,1,2.85041.10382,2.83023,2.83023,0,0,0,.8502.47709,20.73429,20.73429,0,0,1,2.82826,1.31134.8159.8159,0,0,0,.68636.07422c.66493-.16125,1.34544-.27382,1.99313-.48679a3.37116,3.37116,0,0,1,2.59678.05728c.18532.09562.36565.20282.55683.28477.713.30562,1.43049.60087,2.14441.90445a2.31729,2.31729,0,0,1,.7768.43247.36925.36925,0,0,1,.11791.4034.41853.41853,0,0,1-.34977.24494,1.18341,1.18341,0,0,1-.683-.16833c-1.045-.43983-2.09581-.86642-3.1336-1.32266a1.98507,1.98507,0,0,0-1.38833-.10286c-1.46854.39877-2.94521.76764-4.41766,1.15226-.04551.01188-.07932.06855-.1447.12816a1.57724,1.57724,0,0,0,.60742.34076,12.84148,12.84148,0,0,1,2.11291.9608,1.79858,1.79858,0,0,0,1.754.20271c.25352-.08652.52921-.11352.77569-.21433a2.52134,2.52134,0,0,1,2.23278.17738,22.5089,22.5089,0,0,0,2.97356,1.23488c.26711.12969.54517.24111.79892.3931a1.66067,1.66067,0,0,0,1.36636.13291c1.46454-.38928,2.93827-.744,4.40762-1.11542a2.63563,2.63563,0,0,0,.41828-.1465.16954.16954,0,0,0,.07946-.13515.19781.19781,0,0,0-.09392-.1336,2.24,2.24,0,0,0-1.78975-.24417c-1.4552.4209-2.93081.77183-4.40074,1.14068a7.39372,7.39372,0,0,1-.78986.11306c-.19279-.53129-.17708-.60243.21472-.77928a3.87882,3.87882,0,0,1,.58657-.21789c1.037-.27776,2.07623-.54693,3.11491-.81823.86466-.22585,1.75148-.38137,2.60476-.62469,1.23276-.35156,2.4712-.68085,3.70777-1.01767.23011-.06269.4607-.12472.68721-.19876a.18526.18526,0,0,0,.1025-.12755.178.178,0,0,0-.06907-.14367,2.23424,2.23424,0,0,0-1.94436-.33966c-1.25418.38379-2.53445.68256-3.80452,1.01415-.2597.06781-.52176.12767-.78465.1819a.80529.80529,0,0,1-.52332-.05726.33637.33637,0,0,1-.09046-.52779,1.31226,1.31226,0,0,1,.63911-.30024c1.50339-.38083,3.01416-.73448,4.50913-1.14571a2.7756,2.7756,0,0,1,1.99543.17809,13.702,13.702,0,0,1,1.78231.82933.62416.62416,0,0,0,.88679-.07144,1.41587,1.41587,0,0,1,.7246-.32886c.40436-.10451.8104-.20257,1.21467-.30741,1.06828-.277,2.13955-.54339,3.20266-.83905a2.70434,2.70434,0,0,1,2.08135.18215c.34169.18055.7212.289,1.065.46614a1.55425,1.55425,0,0,0,1.29262.10544c.14-.04962.28863-.07451.43286-.11249q4.37045-1.1507,8.74107-2.30053c1.01012-.26467,2.02447-.513,3.03581-.773.13493-.03468.30386-.03916.3276-.235-.07483-.15131-.22789-.18988-.36066-.24925-.78956-.35316-1.575-.71667-2.37422-1.04679-1.17155-.48392-.95377-.50661-2.32132-.15362-2.253.58151-4.50122,1.18147-6.752,1.77164q-1.818.4767-3.63794.94624a1.78778,1.78778,0,0,1-.88106.08632.37287.37287,0,0,1-.31709-.2765.35609.35609,0,0,1,.17241-.38142,2.50294,2.50294,0,0,1,.83735-.29975c.92341-.24226,1.84771-.48112,2.77033-.72633.13038-.03466.30531-.04087.27629-.32754-.87207-.37175-1.78279-.73739-2.673-1.14754a2.41583,2.41583,0,0,0-1.73558-.11857c-1.266.346-2.54382.64915-3.8182.96418a4.67569,4.67569,0,0,1-.70116.123.31162.31162,0,0,1-.34173-.23062.37876.37876,0,0,1,.15236-.392,1.49424,1.49424,0,0,1,.64809-.2871c.92217-.2464,1.84521-.48964,2.767-.73765a2.18318,2.18318,0,0,0,.33139-.12606.17913.17913,0,0,0-.00191-.29647c-.18419-.09683-.37221-.1877-.56379-.26893-.824-.34933-1.66828-.65713-2.469-1.05322a2.2549,2.2549,0,0,0-1.72422-.119c-1.176.33441-2.36352.62825-3.54775.93324a4.68155,4.68155,0,0,1-.70153.13408c-.32095.03179-.5329-.08109-.59729-.27889-.06363-.19542.08141-.39943.38933-.5146a5.88444,5.88444,0,0,1,.60018-.1783c.72244-.18544,1.4465-.36449,2.16882-.55034a7.00855,7.00855,0,0,0,.685-.20506.20015.20015,0,0,0,.01755-.38651c-.82024-.35773-1.65657-.68049-2.46551-1.06161a2.785,2.785,0,0,0-2.00135-.1388c-1.26707.34217-2.53987.66311-3.81014.99344a5.13412,5.13412,0,0,1-.51772.13537.35936.35936,0,0,1-.44049-.212.43255.43255,0,0,1,.153-.47853,1.22334,1.22334,0,0,1,.561-.26227c.66233-.179,1.32648-.35153,1.98673-.53788.40143-.11333.79827-.24354,1.19431-.37486a.16613.16613,0,0,0,.01147-.29057,3.83418,3.83418,0,0,0-.3977-.1989c-.87839-.37387-1.77014-.7191-2.63306-1.1256a2.11382,2.11382,0,0,0-1.55462-.11723c-1.26539.34851-2.54344.65108-3.81632.97241a1.66613,1.66613,0,0,1-.792.088.39144.39144,0,0,1-.32044-.2768.36794.36794,0,0,1,.15734-.38961,1.85373,1.85373,0,0,1,.74576-.284c1.01287-.25372,2.02675-.50364,3.03624-.77023.145-.03828.37938-.00942.38331-.32258-.42351-.17583-.8693-.34216-1.29839-.544a2.04439,2.04439,0,0,0-1.47561-.11525c-1.554.42179-3.11849.80477-4.67349,1.223-.48721.131-.9575.32521-1.43448.49345-.02078.00732-.031.04447-.04643.06782.0228.05075.03373.13418.07015.14741a7.1354,7.1354,0,0,0,2.3136.8758,1.1804,1.1804,0,0,1,.42408.13562c1.23018.53719,2.469,1.05632,3.68261,1.6289a3.63769,3.63769,0,0,0,1.6334.61227.90944.90944,0,0,1,.33516.11839q4.32393,1.83825,8.64616,3.68049a1.99575,1.99575,0,0,1,.88432.5872.42147.42147,0,0,0,.47347.168,1.73622,1.73622,0,0,1,1.13023.1624q1.73487.72306,3.46518,1.457a1.91508,1.91508,0,0,1,.45769.27248.3638.3638,0,0,1,.1227.47574.39908.39908,0,0,1-.45287.21039,3.27257,3.27257,0,0,1-.5916-.19523c-.85555-.35131-1.71455-.69521-2.56075-1.068-1.22485-.53967-1.03219-.51938-2.399-.18872-.145.03508-.28866.07557-.43322.11238q-6.20147,1.58-12.40328,3.15848a4.34878,4.34878,0,0,1-1.31812.22294c-.11892-.505-.10941-.53385.20244-.74658.135-.09212.35587-.07261.39522-.31292a1.00039,1.00039,0,0,0-.20032-.14985c-1.066-.44832-2.13494-.88985-3.20152-1.33685a1.90916,1.90916,0,0,0-1.22186-.0651c-.54751.133-1.09084.28381-1.64.40938C154.81578,184.00551,153.745,184.371,152.6245,184.52379Zm-2.508-6.80544a.8341.8341,0,0,1-.05808-.52181c.054-.15647.29339-.28654.14463-.464a1.2439,1.2439,0,0,0-.45983-.25749c-.38174-.16826-.77391-.31364-1.15125-.49086a1.408,1.408,0,0,0-1.04023-.06874c-.5438.15666-1.101.26651-1.64646.41781-1.31933.36595-2.6355.74342-3.9519,1.11989a.16818.16818,0,0,0-.14137.18834.21638.21638,0,0,0,.10923.12953c.40232.1937.82708.34883,1.20711.57841a1.21165,1.21165,0,0,0,1.02117.12075c1.00651-.27344,2.02736-.49738,3.02548-.7976a3.87338,3.87338,0,0,1,2.94934.03731c.48459.22783.96632.462,1.45446.68192a15.789,15.789,0,0,1,1.8696.846,1.54059,1.54059,0,0,0,1.34563.17854c.80333-.225,1.62491-.38746,2.42171-.632.49683-.15248,1.03793.11208,1.48482-.15973a5.11713,5.11713,0,0,1,1.41868-.51832c.54774-.14342,1.09769-.27836,1.64636-.41822q.99588-.25388,1.99093-.511c.11162-.029.2589-.048.27812-.18124.0273-.1894-.149-.23254-.27937-.28754-.82372-.34748-1.64787-.69407-2.475-1.03342-1.26148-.51756-1.00214-.44831-2.14405-.15853-2.68606.68165-5.367,1.3835-8.048,2.08476A3.59966,3.59966,0,0,1,150.11648,177.71835Zm-16.47579,15.40071c-.25126-.60978.32343-.72507.66466-.9943a1.565,1.565,0,0,0-.25238-.189c-1.04145-.44776-2.09258-.874-3.12436-1.34282a1.64655,1.64655,0,0,0-1.20552-.08557c-1.29248.36294-2.59584.6871-3.89374,1.031a3.27474,3.27474,0,0,1-1.14718.15c-.11792-.54484-.07039-.69235.34706-.83949.33645-.11859.69065-.18595,1.0346-.28437a6.36675,6.36675,0,0,0,.67529-.2242.12984.12984,0,0,0,.0284-.2224,2.23416,2.23416,0,0,0-.45991-.26629c-.88048-.36941-1.77073-.71616-2.64508-1.09932a1.60507,1.60507,0,0,0-1.12408-.07978c-1.26795.34032-2.54309.65385-3.81629.97441a6.01364,6.01364,0,0,1-.69985.14655c-.32063.041-.5454-.055-.61222-.24981-.08672-.25285.10853-.36864.26-.51369.15593-.14927.14113-.24646-.04906-.32971-.92917-.40674-1.86594-.79627-2.79228-1.20927a2.2063,2.2063,0,0,0-1.56324-.11848c-1.17832.328-2.36881.61276-3.55609.90807a3.44727,3.44727,0,0,1-1.32152.18255c-.11653-.50262-.0744-.6535.26355-.7986a5.69892,5.69892,0,0,1,.59366-.18624c.19849-.06045.39933-.11423.59418-.18468a.18764.18764,0,0,0,.09448-.13575.17785.17785,0,0,0-.06738-.1476c-.4-.19274-.8136-.35876-1.20559-.566a1.75487,1.75487,0,0,0-1.37394-.119c-.99926.28424-2.00812.53461-3.0122.802a2.84933,2.84933,0,0,0-.41935.14543.166.166,0,0,0-.00895.28383c.50086.2561,1.00125.51415,1.51267.74782a.64112.64112,0,0,0,.43127.02921,3.87769,3.87769,0,0,1,2.604.1222,2.93077,2.93077,0,0,0,.93366.5148c.87195.38759,1.74955.76494,2.60315,1.19006a1.21852,1.21852,0,0,0,.9347.12476c.80451-.22351,1.61978-.40872,2.42222-.639a2.28479,2.28479,0,0,1,1.65011.09549c1.36026.61068,2.74313,1.17083,4.108,1.77153a1.31963,1.31963,0,0,0,.86618.09547c.17438-.04039.3512-.07463.52081-.13029a2.15249,2.15249,0,0,1,1.73638.07332,2.27931,2.27931,0,0,0,.51833.12927,4.8447,4.8447,0,0,0,1.19992.58563,13.44821,13.44821,0,0,1,2.57137,1.2325.76829.76829,0,0,0,.68723.06354c.69381-.17418,1.38821-.34616,2.08056-.52594a2.81166,2.81166,0,0,1,2.41864.077c.45705.21705.91137.4401,1.37175.64983a18.033,18.033,0,0,1,2.41862,1.14184.71644.71644,0,0,0,.60177.05213,11.91955,11.91955,0,0,0,1.21171-.30822,2.94735,2.94735,0,0,1,2.33126.19179c1.27688.57333,2.57829,1.09178,3.85977,1.6552a1.63032,1.63032,0,0,0,1.1267.08459c1.41149-.37156,2.82623-.73072,4.23894-1.09766a1.93716,1.93716,0,0,0,.4168-.14841.12093.12093,0,0,0,.00533-.21475c-.28718-.15633-.57982-.305-.87974-.435-.73785-.31985-1.489-.61005-2.21907-.94647a1.91556,1.91556,0,0,0-1.47142-.11086c-.22559.07489-.46111.11992-.69232.17773q-1.64728.412-3.29495.82252a1.3661,1.3661,0,0,1-.703.06826.39835.39835,0,0,1-.32716-.26658.32087.32087,0,0,1,.18744-.36953c.21281-.10217.44114-.17219.66355-.25408.18705-.06886.421-.04147.55586-.29879a1.88886,1.88886,0,0,0-.75112-.42188c-.656-.284-1.33573-.51874-1.9728-.83914a2.57993,2.57993,0,0,0-1.98418-.12908c-1.17364.33591-2.36666.60378-3.54949.9082A2.86682,2.86682,0,0,1,133.64069,193.11906Zm-1.96947-3.22323c-.09722-.11024-.2176-.21135-.20532-.37712a.46183.46183,0,0,1,.32466-.391c.30281-.11988.61807-.20893.92976-.30556.255-.07906.51382-.14626.76753-.2292a.21114.21114,0,0,0,.10984-.1243c.03218-.09835-.03594-.16291-.10981-.21616a.39706.39706,0,0,0-.07615-.04591q-1.48014-.62065-2.96108-1.23943a1.74972,1.74972,0,0,0-1.138-.02018q-1.98754.50666-3.97539,1.01206c-.1409.036-.33121.04317-.36648.207-.0388.18024.15157.22459.27592.29.15773.08293.31967.1585.48271.23064a17.01455,17.01455,0,0,1,2.107.95683,1.50735,1.50735,0,0,0,1.34445.13849c.17113-.05014.34212-.101.51205-.155a1.60781,1.60781,0,0,1,1.21663.04507,2.17112,2.17112,0,0,0,.76843.21571,1.86677,1.86677,0,0,0,.61688.352q1.076.44209,2.146.89872a2.48247,2.48247,0,0,1,.71191.36479,1.18827,1.18827,0,0,0,1.24919.19814c.77659-.21271,1.56523-.38161,2.341-.59709a1.97847,1.97847,0,0,1,1.38921.10863c1.09186.48037,2.19516.93477,3.29349,1.40052a2.37525,2.37525,0,0,1,.77658.43323.64464.64464,0,0,0,.66764.12238c.43324-.11194.86638-.22457,1.30133-.32959a3.42587,3.42587,0,0,1,1.66916-.19378.44554.44554,0,0,0,.412-.12886,2.55176,2.55176,0,0,1,1.21074-.54009,3.33419,3.33419,0,0,0,.50692-.17038.1238.1238,0,0,0,.02546-.21936,1.16766,1.16766,0,0,0-.29842-.19068c-.84467-.37573-1.69319-.74279-2.53759-1.11915a1.92079,1.92079,0,0,0-1.30949-.11879c-.40334.10635-.8055.21717-1.20908.32254q-1.5151.39562-3.03129.78708a1.08541,1.08541,0,0,1-.6169.0064.34723.34723,0,0,1-.16859-.56852c.11583-.15043.42287-.11871.3912-.45239-1.05951-.4485-2.13313-.8908-3.19592-1.35775a2.45207,2.45207,0,0,0-1.7393-.08285c-1.2049.34167-2.425.62974-3.63984.93615A3.01988,3.01988,0,0,1,131.67122,189.89583ZM200.26764,176.099c1.27069.7242,2.6754,1.14937,3.98669,1.78465.50758.24591,1.05281.413,1.57392.63244,1.18023.49708,2.35892.998,3.53193,1.51184a1.38812,1.38812,0,0,0,.95336.08148c1.58437-.416,3.1715-.82142,4.75561-1.23835.12337-.03246.31528-.03215.28734-.2856-1.34911-.59617-2.70369-1.20741-4.06865-1.79448-1.47747-.63544-2.96521-1.24709-4.44722-1.872a1.409,1.409,0,0,0-.95089-.12779c-1.55257.41806-3.13578.72181-4.663,1.23235a2.15195,2.15195,0,0,1-.96556.08351,1.26092,1.26092,0,0,1,1.12078-1.10171c.78237-.17948,1.55819-.38768,2.33575-.5877.22971-.05909.45762-.127.682-.20367a.18225.18225,0,0,0,.093-.13631.18649.18649,0,0,0-.07866-.14312,3.57919,3.57919,0,0,0-.3986-.19455q-4.05739-1.74048-8.11369-3.48357a1.72111,1.72111,0,0,0-1.20969-.10068c-1.51549.42854-3.07358.69966-4.5622,1.22788a1.99357,1.99357,0,0,1-.793.06663,1.03463,1.03463,0,0,1,.96179-1.09776c.11734-.01977.2317-.057.34742-.08635q.95452-.242,1.909-.48444c.26016-.06642.52168-.12918.7776-.20945.07707-.02418.18008-.0911.19652-.157.03433-.13777-.09947-.19126-.1986-.25066a.701.701,0,0,0-.08008-.0399c-1.01125-.44226-2.02457-.87982-3.033-1.32843a1.76413,1.76413,0,0,0-1.3037-.08781c-.45457.14365-.92052.25157-1.38228.37207-.92391.24113-1.8476.483-2.773.71811a.9686.9686,0,0,1-.69961.01629.37251.37251,0,0,1-.21679-.265.33844.33844,0,0,1,.11495-.31986,1.34179,1.34179,0,0,1,.65174-.27328c.923-.24337,1.85-.4729,2.767-.73736.22912-.06607.628-.00119.62625-.34864-.0012-.24275-.36126-.26-.56506-.37137a3.21518,3.21518,0,0,0-2.59112-.20817c-1.19963.35839-2.42765.62128-3.64136.93345-.19041.049-.4207.03157-.54079.24278.05362.22157.26558.21935.41483.29292a5.76078,5.76078,0,0,1,1.048.49622,8.65513,8.65513,0,0,0,1.907.96929c.62525.28236,1.26625.52963,1.8939.80683a4.226,4.226,0,0,1,1.472.82631.484.484,0,0,0,.311.15241,6.41024,6.41024,0,0,1,1.63579.43044,31.72687,31.72687,0,0,0,3.90062,1.74962c1.36242.58785,2.7433,1.14281,4.11747,1.70877a2.11985,2.11985,0,0,1,.89048.57047.60493.60493,0,0,0,.45948.24377A7.50128,7.50128,0,0,1,200.26764,176.099Zm-61.611,12.00348a5.39163,5.39163,0,0,0,1.33713.69976,11.23341,11.23341,0,0,1,2.17258,1.02106,1.03818,1.03818,0,0,0,.993.17543c.71944-.18784,1.43727-.38193,2.15523-.5754a2.49467,2.49467,0,0,1,1.90877-.0423.15766.15766,0,0,0,.22295-.08193c.08324-.44078.534-.50892.79436-.74124-.09893-.23907-.29245-.26822-.44953-.33652-.81846-.35579-1.6524-.678-2.459-1.05847a2.909,2.909,0,0,0-2.164-.12171c-1.19908.349-2.41625.63678-3.62934.936a8.28121,8.28121,0,0,1-.88039.12312c-.15171-.5933-.10894-.71177.38537-.88371.309-.10748.63254-.17248.9475-.26364a7.11216,7.11216,0,0,0,.67629-.2212.14324.14324,0,0,0,.042-.22624.3485.3485,0,0,0-.13815-.11q-1.51848-.65637-3.0396-1.30662a1.30013,1.30013,0,0,0-.8744-.05782c-.432.11575-.86971.2096-1.3024.32268-.923.24121-1.84393.49042-2.76664.7327a1.86954,1.86954,0,0,1-.87867.10922.41034.41034,0,0,1-.33223-.26573c-.05625-.16806.04776-.27129.15067-.3864.10906-.122.37529-.06406.36361-.3658-.834-.35324-1.6769-.72732-2.53274-1.06891-1.46042-.58288-1.12894-.59767-2.748-.19249-1.07029.26786-2.13894.54228-3.21014.80647a3.40559,3.40559,0,0,1-.7025.114.37352.37352,0,0,1-.40082-.28834.35355.35355,0,0,1,.17384-.38257,2.26939,2.26939,0,0,1,.47993-.22955c.19618-.06941.40288-.10852.603-.16759.13825-.04079.32516-.064.32557-.243.00039-.17348-.18875-.21415-.31942-.27321-.35305-.15955-.7176-.2945-1.06625-.4627a1.54045,1.54045,0,0,0-1.12775-.072c-1.87013.50644-3.74411.99863-5.61646,1.49682a.54571.54571,0,0,0-.16557.06414.24776.24776,0,0,0-.11048.12882.17256.17256,0,0,0,.06474.14814c.39765.20207.81888.3644,1.19611.59818a1.3937,1.3937,0,0,0,1.1976.13136c.74532-.21272,1.50219-.38756,2.24043-.62172a2.15,2.15,0,0,1,1.64147.11643c1.10953.51211,2.24146.97565,3.36337,1.461a2.22989,2.22989,0,0,1,.56163.26938,1.09346,1.09346,0,0,0,1.09021.15137c.86448-.22935,1.73729-.42734,2.60245-.6543a1.954,1.954,0,0,1,1.30869.10155c1.152.49125,2.33627.91681,3.45247,1.47832a2.78972,2.78972,0,0,0,2.38212.23725,1.84446,1.84446,0,0,1,1.39525.09009A5.28173,5.28173,0,0,0,138.65668,188.10244ZM88.86842,217.47292a.841.841,0,0,0,.65793.26108.88462.88462,0,0,0-.65912-.25961,1.9147,1.9147,0,0,0-.91742-.52541c-1.53529-.65445-3.07883-1.28978-4.61005-1.95354-2.02329-.877-4.03386-1.78347-6.05757-2.65954-1.39486-.60384-2.80582-1.17038-4.20411-1.76641-2.193-.93478-4.37981-1.88415-6.57234-2.82009-1.48021-.63188-2.96918-1.2433-4.448-1.87834-1.77983-.76431-3.54768-1.55666-5.33064-2.31347-1.8382-.78024-3.68164-1.54918-5.53709-2.28711a2.81116,2.81116,0,0,1-1.44839-1.12664c-.06237-.101-.15069-.186-.213-.287a2.85939,2.85939,0,0,0-1.44027-1.14925c-.99583-.3994-1.9846-.81651-2.974-1.23168-.54958-.23061-1.09253-.477-1.64234-.70705-.2546-.10651-.42219-.01046-.431.25692-.01673.50621-.01989,1.01329-.01231,1.51977.0091.60853.0165.60842.653.52231a1.52178,1.52178,0,0,1,1.696,1.22571.76164.76164,0,0,1-.85188.89222,1.575,1.575,0,0,1-.88778-.38515c-.09348-.07322-.17261-.16472-.26583-.23831-.07773-.06136-.11663-.229-.27788-.113a1.35458,1.35458,0,0,0,.41165.77217.98116.98116,0,0,1,.23665.82931l-.03695.525a1.76118,1.76118,0,0,0,.94321,1.01881c.28695.15443.59167.27695.89224.40477q2.74767,1.16841,5.497,2.33286,2.87046,1.22016,5.73937,2.44388a2.8833,2.8833,0,0,0,.93373.28278l-.00851-.00631a3.04545,3.04545,0,0,0,.93693.50684c.68525.2906,1.37212.57782,2.05184.881,1.2235.54563,2.44173,1.1031,3.664,1.65143.08847.0397.2086.13733.27131-.04477-.1055-.213-.32875-.23959-.50981-.33063-.26539-.13341-.53849-.25338-.79464-.40255a.375.375,0,0,1-.16912-.465.35371.35371,0,0,1,.41515-.25588c.17613.02424.34734.08284.52314.11129a.30682.30682,0,0,0,.39271-.25966c.02808-.2055.02445-.4151.04421-.622a5.47191,5.47191,0,0,1,.09705-.79482.85928.85928,0,0,1,.9035-.7071,2.11257,2.11257,0,0,1,.61285.09992c.36914.11487.73421.24658,1.09237.39242,2.75766,1.123,5.50895,2.26168,8.27055,3.37484,3.86611,1.55835,7.75614,3.05729,11.592,4.69086A6.053,6.053,0,0,0,88.86842,217.47292ZM62.53766,202.97059a.91606.91606,0,0,1,.86-.02882c.29725.13923.59142.28653.895.41053,3.12181,1.275,6.22319,2.59734,9.31511,3.94351,3.77542,1.64376,7.608,3.15468,11.35806,4.858a1.57289,1.57289,0,0,0,1.1297.085q.68858-.196,1.38079-.37916,3.37651-.88864,6.75355-1.77527c.16476-.04347.35879-.04818.46265-.28236a1.96664,1.96664,0,0,0-.74859-.42643c-.7907-.35114-1.60085-.66156-2.37612-1.04333a1.94187,1.94187,0,0,0-1.466-.11939c-1.63861.45469-3.28334.88741-4.92737,1.32231-.72129.19079-1.44636.3673-2.17022.54826a1.60236,1.60236,0,0,1-.70792.05613.37653.37653,0,0,1-.32649-.26707.36768.36768,0,0,1,.16806-.38612,2.22915,2.22915,0,0,1,.83186-.311q2.08356-.52476,4.16626-1.05294c.19594-.04974.41828-.0471.54956-.24949-.072-.24648-.31228-.25986-.49238-.3388-.76518-.33537-1.54476-.63864-2.30411-.98633a2.53611,2.53611,0,0,0-1.81678-.15966c-1.81359.49457-3.64211.93435-5.46448,1.39676a1.617,1.617,0,0,1-.78866.10417.39827.39827,0,0,1-.32564-.27.31221.31221,0,0,1,.17129-.37615,3.80954,3.80954,0,0,1,.74424-.29655c1.992-.52149,3.98773-1.029,5.98036-1.54825a1.60005,1.60005,0,0,1,1.05179.00646.38192.38192,0,0,0,.532-.17081,1.02384,1.02384,0,0,1,.58839-.38093c.12826-.0468.29765-.05468.32906-.24083-.08873-.181-.27266-.22738-.43069-.2975-.76355-.33882-1.54513-.64-2.29368-1.0087a2.78786,2.78786,0,0,0-2.07874-.13791c-2.36038.64458-4.73308,1.24394-7.09707,1.87557a12.435,12.435,0,0,0-2.40035.70217.64194.64194,0,0,1-.17191.04574.40252.40252,0,0,1-.442-.51127.62972.62972,0,0,1,.40381-.44691c.308-.11091.62292-.20585.94023-.28663,1.6484-.41965,3.29976-.82775,4.94713-1.25135.43188-.11105.85555-.25625,1.27767-.40128a.12277.12277,0,0,0,.02438-.21849,1.92978,1.92978,0,0,0-.3886-.21375c-.90486-.38866-1.81786-.759-2.71571-1.16312a2.22054,2.22054,0,0,0-1.56187-.09845c-2.13439.56655-4.27717,1.10155-6.41782,1.64439-.43375.11-.87095.207-1.30826.30215a.90712.90712,0,0,1-.61151-.05806.30108.30108,0,0,1-.08441-.45594,1.35959,1.35959,0,0,1,.70749-.35914c.77775-.21031,1.55762-.41279,2.33525-.62354a6.5674,6.5674,0,0,0,.678-.218.137.137,0,0,0,.04976-.22361.60785.60785,0,0,0-.21108-.15863q-1.35416-.58967-2.71258-1.16957a1.72689,1.72689,0,0,0-.96571-.1177c-.26417.0425-.52465.11114-.78434.17764-1.18534.30349-2.3691.61318-3.55517.91376a1.38916,1.38916,0,0,1-.79107.06907.355.355,0,0,1-.24908-.23488.34822.34822,0,0,1,.08489-.33189,1.0134,1.0134,0,0,1,.546-.28543c.723-.18329,1.44646-.3644,2.16851-.55121.1932-.05.41735-.04327.53775-.25147-.03381-.05042-.05485-.12179-.09873-.141-.46433-.2037-.93435-.39439-1.39863-.59818a2.04654,2.04654,0,0,0-1.39675-.08941c-1.06776.28087-2.14231.53617-3.21546.79626a4.80991,4.80991,0,0,0-1.04439.43125c.06873.302.30643.31517.48747.39218,1.1808.50229,2.36477.99712,3.54677,1.49659a2.15031,2.15031,0,0,1,.70706.37536.35185.35185,0,0,1,.08976.40748.394.394,0,0,1-.33714.25618,1.18105,1.18105,0,0,1-.60228-.1434q-2.59912-1.094-5.19549-2.19449c-.28244-.11948-.55074-.25638-.55352-.62265-.00231-.30257.17132-.46881.66721-.607,1.60875-.44839,3.21679-.89982,4.8304-1.33019,1.06629-.28441,2.13511-.56641,3.215-.79044.90955-.18868,1.7816-.4963,2.66951-.75012,1.94817-.55693,3.97687-.78644,5.89215-1.47118.16787-.06.347-.08785.51941-.13593,1.89678-.52881,3.82263-.94565,5.70872-1.519,1.11238-.33813,2.25281-.58491,3.3833-.86186a10.838,10.838,0,0,0,1.13553-.23425,16.24632,16.24632,0,0,1,1.71976-.49221c1.53621-.37527,3.08026-.72,4.61032-1.11854,2.02038-.52629,4.02172-1.12755,6.04826-1.62762,1.15226-.28433,2.3105-.52984,3.44148-.90241.79171-.26081,1.617-.41949,2.427-.625a7.6387,7.6387,0,0,1,1.839-.36239,1.4299,1.4299,0,0,0,.59616-.16865,6.28368,6.28368,0,0,1,1.4437-.46973,27.18873,27.18873,0,0,1,3.84221-.83823,1.46538,1.46538,0,0,0,.41383-.15755,5.54288,5.54288,0,0,1,.57583-.24107c.71649-.20585,1.43419-.40913,2.15733-.58986,1.30255-.32552,2.61239-.62219,3.91336-.95372.92452-.23561,1.83279-.53665,2.76023-.75868a29.40028,29.40028,0,0,1,4.62517-1.02343.67959.67959,0,0,0,.25941-.06439,11.50584,11.50584,0,0,1,2.55545-.80505,16.07711,16.07711,0,0,1,3.2207-.73679,2.45561,2.45561,0,0,0,.67868-.20826,6.36756,6.36756,0,0,1,.66382-.26331c1.53753-.365,3.03317-.90252,4.60648-1.12132a2.97652,2.97652,0,0,0,.42792-.12484c.457-.13649.90933-.29163,1.37179-.40595,1.41926-.35082,2.84848-.6628,4.26259-1.03286,2.02009-.52863,4.02816-1.103,6.04572-1.64163.71959-.1921,1.46507-.29361,2.17578-.51136,1.91376-.58636,3.86374-1.02942,5.80155-1.52035,1.33008-.337,2.67274-.62554,3.99818-.97922,2.18856-.584,4.34581-1.28845,6.58226-1.6861a1.29448,1.29448,0,0,0,.33719-.11524,5.95139,5.95139,0,0,1,1.27891-.40091c1.8007-.42363,3.58124-.92526,5.38793-1.32993,1.745-.39086,3.45959-.91778,5.18758-1.38478a7.706,7.706,0,0,1,1.66415-.33268,1.48432,1.48432,0,0,0,.60376-.135,9.146,9.146,0,0,1,1.95133-.643c1.27035-.33251,2.548-.638,3.81369-.987a1.82559,1.82559,0,0,1,1.29994.1004c.98021.43893,1.96863.85976,2.95673,1.28082q3.3765,1.43875,6.75555,2.87147c2.33285.99519,4.66145,2.00043,6.9952,2.99349,1.59264.6777,3.19387,1.33527,4.78611,2.01389,2.52536,1.07629,5.04285,2.17116,7.57072,3.24153a3.10088,3.10088,0,0,0,2.99546.18328c.18929-.0511.42239-.03171.53528-.29984a1.55472,1.55472,0,0,0-.604-.33271q-2.26507-.96428-4.53-1.92888-3.91167-1.66714-7.82325-3.3343c-1.67539-.71185-3.35629-1.41084-5.03113-2.124-3.43171-1.46124-6.85067-2.95329-10.29786-4.377a4.58336,4.58336,0,0,1-2.41408-1.87258,2.1041,2.1041,0,0,0-1.11135-.8557c-1.2442-.50516-2.48-1.03117-3.71589-1.55659a11.12769,11.12769,0,0,0-2.39057-.73716,21.81254,21.81254,0,0,0-4.53315-.46084c-.95422.02976-1.919-.03826-2.8614.07906a41.683,41.683,0,0,0-5.62038,1.09154c-.16341.04369-.35891.04246-.4592.22467.02221.1914.19258.20832.319.26774.72914.34277,1.46282.676,2.19025,1.02231a.465.465,0,0,1,.302.57708.677.677,0,0,1-.451.61043,6.16491,6.16491,0,0,1-1.35548.44993c-.1923.02638-.4234-.0013-.54051.23a1.11587,1.11587,0,0,0,.60906.07144,7.57807,7.57807,0,0,1,2.11894.30655,1.81042,1.81042,0,0,1,.90715.54521.97914.97914,0,0,1-.335,1.61764,4.3983,4.3983,0,0,1-.67427.23791c-1.15089.31593-2.30151.63335-3.45668.93306-2.65765.68957-5.319,1.36484-7.97682,2.05384-3.87075,1.00342-7.73832,2.019-11.60989,3.01927-2.39818.61958-4.80371,1.21074-7.20163,1.83129-5.37359,1.39063-10.738,2.81727-16.11839,4.181-5.06253,1.28314-10.11089,2.61985-15.16771,3.9242-5.11433,1.3192-10.236,2.60919-15.34055,3.9671-4.41227,1.17375-8.84265,2.27936-13.26486,3.41576q-3.98855,1.02495-7.97667,2.05153c-2.25466.57884-4.51171,1.1484-6.76445,1.73459a9.38274,9.38274,0,0,1-4.69349.00116,2.53954,2.53954,0,0,1-.5894-.20368,1.1875,1.1875,0,0,1-.729-1.30441c.0215-.13819.10981-.29081-.09706-.4512-.596.14358-1.23842.26834-1.86163.45669-.65875.1991-1.32478.35271-1.99744.4919a3.37606,3.37606,0,0,1-2.09934-.22209c-.92891-.40787-1.8683-.79264-2.78931-1.21743a2.23875,2.23875,0,0,0-1.47572-.15638,48.436,48.436,0,0,0-4.82454,1.35341,6.13591,6.13591,0,0,0-.90979.37512,4.29388,4.29388,0,0,0-.82692.52571.91825.91825,0,0,0-.04836,1.47666,2.75688,2.75688,0,0,0,.96606.63364c1.34471.57425,2.68,1.17227,4.03879,1.71113a3.20746,3.20746,0,0,1,1.67088,1.27568,3.47506,3.47506,0,0,0,1.95459,1.47268c.08452.02894.16561.068.248.103q4.61331,1.96166,9.22622,3.92427,4.15827,1.77369,8.31231,3.55729,3.95106,1.68944,7.9041,3.37426c1.31795.56053,2.64231,1.106,3.96077,1.66536a.89732.89732,0,0,0,.99955-.03855,4.23071,4.23071,0,0,1,.90978-.356c.11641-.04772.31957-.0119.3018-.27542-1.03453-.43477-2.0801-.8689-3.1215-1.31283q-4.24095-1.80792-8.4796-3.62126c-2.2518-.95761-4.51033-1.89941-6.76128-2.859-.82324-.351-1.63127-.7374-2.45028-1.09847a.73762.73762,0,0,1-.526-.74553ZM8.27038,116.24631c.22158-.149.3404-.23828.46847-.31142a1.09488,1.09488,0,0,1,.25172-.09055.50131.50131,0,0,1,.673.27085,5.39182,5.39182,0,0,1,.23168.58136c.27527.7573.54659,1.516.821,2.27364q1.21963,3.36668,2.439,6.73346a2.35881,2.35881,0,0,1,.11423.43121.47353.47353,0,0,1-.33434.56,2.98157,2.98157,0,0,1-.52659.08577c-.18393.02158-.27375.11392-.22779.29734.04337.1731.10085.34325.1614.51137q1.0617,2.9479,2.12652,5.89471,1.24662,3.45221,2.49462,6.90393,2.04449,5.63874,4.09251,11.2762c1.19641,3.31185,2.37613,6.62972,3.57118,9.94206q2.18754,6.06321,4.38726,12.122c.649,1.79619,1.28359,3.5976,1.93406,5.39326,1.06713,2.94587,2.15187,5.88539,3.2107,8.83423q1.67912,4.67628,3.32273,9.36531a10.12522,10.12522,0,0,0,4.13374,5.24247,5.46476,5.46476,0,0,0,.79252.40752c.20765.09131.35053-.04173.29284-.27123-.16728-.66549-.35966-1.32487-.51625-1.99274a3.40627,3.40627,0,0,0-.40648-1.07638,1.526,1.526,0,0,1,.03385-1.84136,1.32478,1.32478,0,0,0,.28956-.82522c-.00553-.65656-.0041-1.3132-.00912-1.96978a.64242.64242,0,0,0-.22167-.561,2.0311,2.0311,0,0,1-.61071-1.06971q-1.26324-3.49395-2.52309-6.98913-1.337-3.705-2.67245-7.41067c-.81462-2.27565-1.60845-4.55876-2.42733-6.83287-1.12216-3.11638-2.26314-6.226-3.389-9.341q-1.67359-4.63059-3.33429-9.26583c-.60736-1.68429-1.22315-3.36554-1.834-5.04856q-1.20645-3.32394-2.4107-6.64866c-.761-2.10477-1.51295-4.21284-2.27825-6.316-.89791-2.46763-1.81305-4.929-2.70785-7.39777-1.2-3.3107-2.38222-6.62781-3.58218-9.93851-1.027-2.8335-2.07142-5.66068-3.10144-8.4931-.35783-.984-.24824-1.21545.73838-1.48534q4.2744-1.16931,8.556-2.31238a3.10834,3.10834,0,0,1,.615-.09838.34354.34354,0,0,1,.33894.24522.3557.3557,0,0,1-.14439.46947,3.568,3.568,0,0,1-.74853.2828q-3.80382,1.02347-7.6108,2.03514c-.23036.06159-.46063.12564-.68608.20275a.292.292,0,0,0-.1977.35441,2.10307,2.10307,0,0,0,.10581.34109c.71353,1.99505,1.42048,3.9925,2.14383,5.984q1.94067,5.343,3.89751,10.68c1.06548,2.91479,2.14056,5.82608,3.19957,8.74322q2.062,5.68009,4.10613,11.3667,1.81121,5.00923,3.62722,10.01673c.81111,2.24528,1.61345,4.49375,2.42247,6.7398.79888,2.21788,1.60459,4.4333,2.40105,6.652.74613,2.0785,1.47969,4.16151,2.22659,6.23971q1.81665,5.05477,3.64318,10.106,1.18365,3.28451,2.36582,6.56953a2.36968,2.36968,0,0,0,.18594.40506.38567.38567,0,0,0,.46234.17936,1.053,1.053,0,0,0,.32413-.14459,10.20489,10.20489,0,0,1,2.52608-1.124c1.55252-.543,3.1622-.87409,4.74262-1.31314a1.14887,1.14887,0,0,1,.70263.022c.1973.06824.3934.14143.58532.22343a1.63689,1.63689,0,0,0,1.13315.07441q1.2917-.366,2.5952-.68987a.82256.82256,0,0,0,.70571-.70388c.056-.3364.27625-.48.60343-.56447,1.58892-.41041,3.16742-.86134,4.75729-1.26786,5.05927-1.29368,10.12506-2.56028,15.16955-3.91321,5.18768-1.39134,10.40279-2.68036,15.60557-4.01547q3.51177-.90119,7.022-1.80841c4.70687-1.226,9.40526-2.48516,14.11954-3.68186q8.7202-2.21358,17.42332-4.49228c5.05129-1.32384,10.125-2.56048,15.16831-3.91772,3.9185-1.05455,7.86908-1.98971,11.80352-2.98539.77977-.19734,1.55444-.41718,2.32407-.651a.98842.98842,0,0,1,.69752-.00529,2.20513,2.20513,0,0,0,1.57221-.03441c.88674-.26359,1.77174-.53329,2.66063-.78942a1.7159,1.7159,0,0,0,.9993-.5462.89708.89708,0,0,1,.552-.26552c.69261-.18178,1.38314-.3715,2.07525-.55522.97123-.25779,1.02239-.33543.683-1.2917q-.89833-2.53107-1.82163-5.05326c-1.00191-2.74735-2.01791-5.48957-3.01466-8.23878-1.20024-3.3105-2.38323-6.62723-3.57976-9.93908q-2.1597-5.97788-4.32859-11.95246c-.65946-1.82415-1.30592-3.653-1.9646-5.47745q-1.76318-4.88382-3.53283-9.76531c-.53665-1.48773-1.05731-2.98121-1.59166-4.46978-.84688-2.35923-1.70344-4.715-2.54786-7.07511-.78415-2.19172-1.55375-4.38866-2.33693-6.58074q-2.10843-5.9013-4.22607-11.79933c-.30217-.84261-.6139-1.68178-.9191-2.52332a1.198,1.198,0,0,1-.09123-.869.42394.42394,0,0,1,.3002-.302c.18075-.03772.28179.08434.346.21968.11493.24235.21884.491.31027.74326q.86945,2.39877,1.73041,4.80061,1.88333,5.269,3.76149,10.53977,2.0661,5.77389,4.14121,11.54455,1.08883,3.0333,2.18078,6.06546,1.27333,3.53767,2.54751,7.075c.765,2.13509,1.51474,4.27569,2.28472,6.409q1.7172,4.75766,3.45292,9.50865,1.848,5.09129,3.69275,10.18377.96069,2.65122,1.91822,5.30356,1.57332,4.33371,3.15007,8.66618c.39671,1.09415.77431,2.19529,1.17769,3.28693.16232.43926.29215.50755.7514.41946,1.14352-.21937,2.29393-.383,3.451-.51364.83109-.09384.87012-.17382.59155-.95309q-1.31088-3.66709-2.6356-7.32923c-1.09679-3.03037-2.20483-6.05667-3.30036-9.08748q-1.71942-4.75686-3.42488-9.51877-.98546-2.73761-1.97542-5.47359-1.8924-5.21776-3.78864-10.43413-1.67477-4.63024-3.33478-9.26583-2.47121-6.86486-4.94367-13.72925c-.273-.75813-.54186-1.51781-.82194-2.27333-.14783-.39882-.18385-.41393-.57673-.39678-.72913.03181-.87972-.05549-1.14678-.71524-.17906-.44239-.34182-.89157-.50459-1.34035q-1.05321-2.9035-2.10062-5.80911c-.24223-.67389-.48948-1.34722-.69514-2.0326-.1437-.4789-.05193-.69026.411-.9526.36342-.206.40594-.299.27841-.72023q-.09075-.29982-.19806-.59459-2.153-5.93286-4.31066-11.864c-.35892-.98333-.76906-1.201-1.78163-.9988-.2632.05256-.5239.11957-.78313.18959-.57617.15562-1.14882.32455-1.72619.47542q-6.49624,1.69752-12.99377,3.39018-3.94134,1.029-7.88133,2.06322-6.62307,1.7407-13.24533,3.48455-6.62521,1.73227-13.25558,3.44487c-2.68582.69919-5.36451,1.42653-8.05587,2.10355-4.28358,1.07756-8.54424,2.24054-12.81234,3.3762-4.441,1.18167-8.89359,2.31994-13.34,3.48132q-3.76789.98415-7.5322,1.982c-4.442,1.17749-8.88082,2.36714-13.32445,3.53851-4.96317,1.30831-9.94032,2.56238-14.89676,3.89764-4.58125,1.23418-9.1868,2.37811-13.78064,3.5657-.72159.18655-1.44467.37216-2.155.59646-1.13145.35728-1.28884.66822-.90921,1.77726.37688,1.101.77782,2.19383,1.17384,3.2882q1.27942,3.53553,2.56493,7.06886C7.56426,114.32075,7.90292,115.24164,8.27038,116.24631ZM245.49,187.94712a2.31473,2.31473,0,0,0-.839-.477q-2.335-1.02625-4.68095-2.0277c-1.39855-.59958-2.80332-1.18469-4.20136-1.78543-1.91859-.8244-3.82808-1.67021-5.7513-2.48363-2.33576-.98788-4.68644-1.94056-7.0193-2.93513a2.01144,2.01144,0,0,0-1.38011-.12915c-1.442.38242-2.89319.73044-4.33758,1.10425q-8.96875,2.32119-17.936,4.64838c-3.3504.86583-6.70577,1.71243-10.05661,2.57664q-5.89381,1.52-11.78375,3.05514-3.81162.98823-7.62378,1.97442-3.89978,1.00833-7.80054,2.01276c-1.763.452-3.53144.88289-5.29262,1.34166-3.29145.85739-6.57221,1.75675-9.87052,2.58662-4.80342,1.20858-9.58711,2.49236-14.384,3.72493-5.34553,1.37352-10.69851,2.71745-16.03007,4.14546-2.33443.62526-4.68814,1.17818-7.02806,1.78339-3.437.889-6.86741,1.80358-10.3045,2.69231-4.50624,1.16516-9.01663,2.31424-13.52378,3.47592a7.98583,7.98583,0,0,0-.92711.32132.12332.12332,0,0,0-.021.21592,4.28437,4.28437,0,0,0,.558.27433q2.55058,1.0917,5.103,2.179,6.29421,2.69532,12.58868,5.39c1.235.52588,2.487,1.01219,3.735,1.50727a4.51792,4.51792,0,0,0,2.55613.17335c.61506-.11664,1.22473-.265,1.83233-.41707q5.90427-1.47752,11.78242-3.05571c3.83293-1.02673,7.69215-1.95489,11.53482-2.94574,3.78469-.9759,7.561-1.98407,11.345-2.96285,2.282-.59026,4.5749-1.13813,6.85667-1.72917,2.686-.69574,5.3615-1.43191,8.04835-2.12428,3.09156-.79664,6.194-1.55112,9.28533-2.34862,3.23532-.83463,6.46091-1.70689,9.69468-2.54764q5.76048-1.49769,11.52761-2.96978,4.94139-1.26984,9.884-2.53484,2.94687-.75765,5.89095-1.52616c2.42466-.63432,4.8446-1.28672,7.27177-1.91116,2.5426-.65415,5.10058-1.25016,7.63527-1.933,3.88951-1.0479,7.79039-2.05037,11.69238-3.04986,3.786-.9698,7.564-1.97048,11.34418-2.96294C245.08045,188.21663,245.343,188.22911,245.49,187.94712ZM58.10982,189.698a.96344.96344,0,0,0,.539.38884c.71.31209,1.4238.61553,2.13634.92186.29137.12526.507.2777.46819.66394-.02381.23669.11492.3231.3297.27933.29213-.05953.58121-.13445.87076-.20616,4.894-1.21191,9.76275-2.521,14.64319-3.78506,5.37133-1.39119,10.75973-2.71585,16.11679-4.16337,2.30389-.62252,4.62851-1.168,6.93944-1.765,3.78355-.97745,7.56264-1.97216,11.34554-2.95215,1.99255-.51619,3.99115-1.00905,5.98357-1.52571,4.70672-1.22056,9.40948-2.45641,14.11762-3.67142,2.62869-.67835,5.26843-1.31386,7.8968-1.99344,2.62815-.67956,5.2452-1.402,7.87263-2.08445q8.40219-2.1823,16.80907-4.34666c.189-.049.42111-.03493.53706-.24774-.00881-.03245-.00834-.07678-.02462-.08414q-1.87173-.84788-3.7464-1.68929a1.05963,1.05963,0,0,0-.61288-.07993c-.32362.05229-.65355.08028-.96973.16164-2.36916.60971-4.7313,1.24707-7.10378,1.84345q-7.63824,1.92-15.25005,3.94158c-3.20048.85015-6.4186,1.63365-9.62513,2.46132-4.39065,1.13334-8.77627,2.28612-13.16707,3.41892-2.28223.5888-4.57421,1.13985-6.85592,1.73061-3.34988.86727-6.69213,1.764-10.04214,2.6307-2.42623.62772-4.86892,1.19328-7.28782,1.84745q-5.09744,1.37853-10.21715,2.66924c-2.25627.56921-4.51481,1.12977-6.76707,1.71446-2.16522.56209-4.32108,1.16023-6.48587,1.724-2.021.52634-4.0495,1.02392-6.07236,1.54333C59.71412,189.24284,58.94726,189.46691,58.10982,189.698Zm57.00167,11.0008c-.08634-.18547-.27342-.22592-.43262-.29628-.81844-.36173-1.64987-.69569-2.4571-1.08056a1.96779,1.96779,0,0,0-1.46993-.113c-1.233.35348-2.47563.67316-3.7121,1.01477-.19183.053-.50008.02349-.52785.25186-.03731.30678.31362.291.50776.38926a17.43115,17.43115,0,0,1,2.3425,1.10507.99054.99054,0,0,0,.92172.14905c.68892-.19481,1.388-.35428,2.07444-.55714a2.08351,2.08351,0,0,1,1.55483.10932c1.38026.63921,2.79581,1.2024,4.1741,1.84559a1.87483,1.87483,0,0,0,1.37446.10569q2.20115-.60234,4.40926-1.17915,5.32808-1.38279,10.65988-2.75118,3.94239-1.016,7.88511-2.03069c.51983-.13444,1.036-.28369,1.5507-.43661a.316.316,0,0,0,.18578-.16c.0357-.09243-.05253-.16267-.13326-.19816-.81924-.36012-1.63641-.72533-2.46136-1.072-1.41889-.5962-.93337-.589-2.55332-.16963-5.3148,1.376-10.63582,2.72788-15.95264,4.09612-1.76255.45357-3.519.93092-5.27944,1.39251-.72155.18919-1.44622.36658-2.17.547a1.14113,1.14113,0,0,1-.78787-.0138.34221.34221,0,0,1-.12529-.52533C114.80989,200.959,115.08186,200.9493,115.11149,200.69882Zm-49.53962,9.6514.02045.0008c0,.14913.00244.29831-.00047.44739a.8353.8353,0,0,0,.544.84253c.10923.04807.21787.09746.32747.14467,1.26.54255,2.51431,1.09875,3.78123,1.62463,4.62827,1.92108,9.21616,3.94026,13.90168,5.72264.864.32865,1.71534.69036,2.57212,1.03784a.57617.57617,0,0,0,.77116-.209c.28382-.36268.57683-.41683.83394-.1512a1.17764,1.17764,0,0,0,1.037.35912.79817.79817,0,0,1,.34547.08231c.55177.22638,1.10077.45957,1.64989.69236a.91759.91759,0,0,1,.64956.87553.55766.55766,0,0,0,.45865.57487c.05688.018.1139.03595.16952.0574,1.809.6981,3.61942,1.39232,5.42593,2.0967,1.08537.4232,2.19985.75547,3.31448,1.08771a4.388,4.388,0,0,0,.69872.14643.27346.27346,0,0,0,.32269-.24131,4.67813,4.67813,0,0,0,.02209-.79972,1.003,1.003,0,0,0-.63866-.898c-.10892-.04872-.21673-.10013-.327-.14553-1.8478-.76054-3.69339-1.52659-5.54455-2.27892-3.59241-1.46-7.20651-2.86545-10.78737-4.35519-3.93819-1.6384-7.90391-3.21067-11.85906-4.80828q-2.987-1.20659-5.9796-2.39939c-.41523-.16573-.83749-.31494-1.26119-.45787a.28591.28591,0,0,0-.39685.23935C65.59335,209.87389,65.58786,210.11272,65.57187,210.35022Zm23.42611-19.063c.54393.27806,1.09308.56718,1.65056.83922a.88731.88731,0,0,0,.61443-.01444c.43438-.10782.87031-.21,1.30222-.327a1.437,1.437,0,0,1,.96486.03667c1.42719.60688,2.869,1.18353,4.26874,1.84845a1.773,1.773,0,0,0,1.3561.17155c.80155-.234,1.61539-.42558,2.42105-.646a1.78057,1.78057,0,0,1,1.22341.07411c1.36748.59541,2.74957,1.15948,4.09763,1.79582a1.54711,1.54711,0,0,0,1.19094.13685c.114-.03513.23318-.054.34568-.09279a2.45892,2.45892,0,0,1,1.90693.11967c.94949.43345,1.92605.80733,2.887,1.21607a4.39681,4.39681,0,0,1,.95986.47471,1.399,1.399,0,0,0,1.35268.16882c.80347-.2279,1.61572-.42484,2.42414-.63537a1.33417,1.33417,0,0,1,.87783-.05776.71409.71409,0,0,0,1.04265-.3146c.02634-.04681.097-.06712.14323-.10454.36355-.29459.35773-.36283-.08414-.557-.8465-.372-1.70769-.71229-2.54292-1.10769a2.49138,2.49138,0,0,0-1.82108-.16227c-1.09157.3054-2.1919.57964-3.28948.86338-.31755.08208-.63664.16-.95816.22413a.71.71,0,0,1-.51546-.0951.31359.31359,0,0,1-.05675-.46544,1.34376,1.34376,0,0,1,.63551-.30756c.4273-.13182.85771-.25359,1.28524-.38471.08627-.02647.18137-.08409.15761-.18573a.32006.32006,0,0,0-.14885-.20051c-.81881-.36087-1.64947-.69551-2.46219-1.06928a2.76189,2.76189,0,0,0-1.99848-.13857c-1.17665.333-2.36879.61178-3.55628.90581a1.77286,1.77286,0,0,1-.87945.09462.34435.34435,0,0,1-.231-.548c.08722-.14662.31152-.198.29187-.41154-.04978-.13294-.16539-.17134-.27362-.218-.822-.35416-1.65716-.681-2.46236-1.06989a2.5505,2.5505,0,0,0-1.98118-.13012c-1.19658.36736-2.42334.63709-3.6395.93951a2.631,2.631,0,0,1-.617.07772.39556.39556,0,0,1-.41272-.28172.37189.37189,0,0,1,.227-.43961,3.16911,3.16911,0,0,1,.58815-.2068c.69247-.18217,1.38793-.353,2.08122-.53211.13617-.03519.30063-.03855.35639-.2824-.43628-.22056-.90744-.39684-1.35938-.61369a2.34633,2.34633,0,0,0-1.64548-.11558c-1.83027.43159-3.61955,1.00586-5.43132,1.5007C89.1765,191.08863,89.05075,191.10831,88.998,191.28719Zm70.68867-12.12643a.57131.57131,0,0,0,.40342.34866c.84246.38115,1.70294.72778,2.52071,1.156a1.603,1.603,0,0,0,1.28192.15677c.2-.06032.40243-.11253.60147-.1756a1.88821,1.88821,0,0,1,1.39107.115c.79016.352,1.5993.662,2.38578,1.02169a8.52706,8.52706,0,0,1,1.778.8315.96744.96744,0,0,0,.91926.16432c1.269-.33536,2.5409-.65952,3.811-.99053a.75808.75808,0,0,0,.24352-.10342.13138.13138,0,0,0,.01453-.22006,1.38224,1.38224,0,0,0-.31272-.16585c-.93456-.39466-1.871-.78488-2.80561-1.17946-1.81408-.76586-3.63027-1.52685-5.43877-2.30566a1.8608,1.8608,0,0,0-1.3-.101c-1.09267.30213-2.19744.56019-3.29476.84589C161.16789,178.74587,160.45473,178.9499,159.68665,179.16076ZM90.7972,207.2071a5.98412,5.98412,0,0,1,.69085.1824c.416.1624.81932.35705,1.23122.53044,1.04406.43947,2.10264.84732,3.12881,1.325a1.63879,1.63879,0,0,0,1.19323.137c1.52743-.40366,3.06209-.77994,4.59378-1.16753.14442-.03653.28825-.07618.43045-.12056.08779-.0274.16894-.08149.16094-.18235a.22778.22778,0,0,0-.10168-.13723,1.35656,1.35656,0,0,0-.23871-.11877c-.98876-.4173-1.98184-.82464-2.96536-1.2539a1.92926,1.92926,0,0,0-1.307-.09968c-.98112.25451-1.96577.49544-2.94827.74471-.46228.11727-.91952.25685-1.38536.35694-.4053.08709-.72862-.05673-.73386-.30089-.00723-.33687.26193-.44563.51384-.53332.36536-.12716.74164-.22265,1.11107-.33862a.22188.22188,0,0,0,.13-.11131.1647.1647,0,0,0-.11087-.207c-.90092-.39461-1.8092-.7729-2.704-1.18073a2.05749,2.05749,0,0,0-1.4727-.12331c-1.23512.34264-2.4792.65295-3.719.97878a2.7098,2.7098,0,0,0-.33684.1187.16689.16689,0,0,0-.03644.28828c.15464.08707.31779.159.477.2379a13.98585,13.98585,0,0,1,2.18053,1.02313,1.19029,1.19029,0,0,0,1.16444.18571C90.083,207.33607,90.43911,207.2844,90.7972,207.2071ZM148.10186,189.687c.141.21924.39132.24976.60231.34265a20.63342,20.63342,0,0,1,2.28431,1.02223,1.58959,1.58959,0,0,0,1.42107.18678c.22655-.07349.46909-.09962.6928-.1796a2.52089,2.52089,0,0,1,1.99131.12282c1.27555.58215,2.58115,1.09814,3.86344,1.66608a2.20807,2.20807,0,0,0,1.56123.12411c1.438-.39769,2.88656-.75707,4.33069-1.13251a1.50084,1.50084,0,0,0,.25522-.08077.24726.24726,0,0,0,.124-.11633.16258.16258,0,0,0-.11122-.20585c-1.03826-.455-2.07867-.90513-3.11748-1.35888a1.93526,1.93526,0,0,0-1.313-.088c-.57659.15387-1.15448.30286-1.73188.45372q-1.21269.3169-2.42561.633a.99124.99124,0,0,1-.70009-.00436.34394.34394,0,0,1-.21509-.26279.32034.32034,0,0,1,.141-.30857,2.46051,2.46051,0,0,1,.91405-.34027c.17441-.05114.4135-.02863.51727-.31747-1.07838-.4492-2.12794-.87277-3.16515-1.32466a2.0263,2.0263,0,0,0-1.39192-.09443c-1.385.36543-2.77738.703-4.16513,1.05828C148.33363,189.51549,148.164,189.5066,148.10186,189.687Zm-44.15672,7.50384c.59.25747,1.03164.437,1.46172.64088a9.17255,9.17255,0,0,1,1.92132.93837,1.07723,1.07723,0,0,0,1.07063.19822c.71955-.19457,1.4512-.352,2.15738-.58637a2.67776,2.67776,0,0,1,2.07466.18956c.72918.34012,1.48048.6326,2.21964.9516a6.50276,6.50276,0,0,1,1.21352.56388,1.47215,1.47215,0,0,0,1.34682.186c1.58595-.41664,3.17765-.81133,4.76559-1.22046.09577-.02469.25858-.02612.1957-.25208-.7471-.31362-1.54741-.57746-2.27641-.9728a3.7134,3.7134,0,0,0-3.1732-.19529c-.98358.33864-2.01754.53111-3.02952.787a1.41012,1.41012,0,0,1-.79208.0419.33274.33274,0,0,1-.24542-.41,1.48282,1.48282,0,0,1,.14464-.22162c.24224-.34892.2394-.40353-.13761-.566-.90372-.38951-1.82578-.73845-2.71748-1.15313a2.2509,2.2509,0,0,0-1.64243-.11075C107.03832,196.40483,105.56327,196.77092,103.94514,197.19082Zm14.10119-3.58482a19.83426,19.83426,0,0,0,2.25808,1.0411,5.09191,5.09191,0,0,1,1.03987.508,1.16306,1.16306,0,0,0,1.09192.16876c.807-.21376,1.6202-.40422,2.42718-.6181a2.03141,2.03141,0,0,1,1.3941.1c.81853.36053,1.65494.68069,2.47133,1.04579a5.99073,5.99073,0,0,1,1.66916.8424.48873.48873,0,0,0,.42348.0938c.17587-.03165.35075-.07073.52387-.11518q2.25269-.57833,4.50365-1.16333c.12981-.03393.30058-.029.35233-.2148a1.16123,1.16123,0,0,0-.59532-.36121c-.82-.35727-1.65242-.68608-2.47133-1.04569a2.00561,2.00561,0,0,0-1.39245-.07069c-1.18063.31721-2.36982.60262-3.55619.89827-.26029.06485-.52208.12487-.78532.17612a.66549.66549,0,0,1-.5114-.10334.31942.31942,0,0,1-.0958-.39137c.10979-.22276.42966-.22234.49745-.48031-.04147-.04889-.07028-.11456-.11829-.13479-1.07125-.45212-2.14693-.89376-3.21649-1.34979a2.05709,2.05709,0,0,0-1.39669-.0649c-1.35352.36324-2.71265.70558-4.06864,1.0597A4.71919,4.71919,0,0,0,118.04633,193.606Zm60.70856-25.7257c-.12.02214-.32859.04663-.52953.09987q-2.07685.55035-4.15075,1.11187a1.78735,1.78735,0,0,0-.33418.11959.18577.18577,0,0,0-.08673.14157.19735.19735,0,0,0,.09322.14138c.68816.35286,1.36909.72234,2.07226,1.04283,1.22176.55685,2.45769,1.08261,3.68776,1.62124a2.489,2.489,0,0,1,.76042.46305.70484.70484,0,0,0,.47965.21261,3.0356,3.0356,0,0,1,.87168.18655.35573.35573,0,0,0,.46236-.16,1.3508,1.3508,0,0,1,.96086-.58463c.89668-.22673,1.78966-.46812,2.68307-.70752a3.43274,3.43274,0,0,0,.42-.14819.16758.16758,0,0,0-.004-.28929,1.57828,1.57828,0,0,0-.23176-.13426c-1.07249-.45214-2.147-.89963-3.21906-1.35277a1.32584,1.32584,0,0,0-.87468-.06967c-.23115.05986-.463.117-.69457.17531q-1.78.44813-3.56.896a1.32561,1.32561,0,0,1-.70449.05975.37547.37547,0,0,1-.30387-.28994.38934.38934,0,0,1,.17836-.38373,1.9362,1.9362,0,0,1,.7495-.27721c1.01181-.25947,2.02476-.51454,3.03484-.78054.12984-.03419.34019-.03079.32023-.23314-.0084-.08524-.1449-.18015-.24368-.23012-.34605-.17506-.70023-.33423-1.05293-.49595A1.66409,1.66409,0,0,0,178.75489,167.8803Zm-8.20238,41.98721c-.17867-.10544-.34544-.00765-.51138.03391-1.07038.26813-2.14074.53657-3.20884.81363q-6.40815,1.6623-12.81528,3.32856c-1.15479.29924-2.31347.58351-3.47048.87421-.2602.06539-.54645.1925-.787.0658a1.91821,1.91821,0,0,0-1.476.00489q-3.076.79133-6.15282,1.57938-2.209.56939-4.41536,1.14943a1.44972,1.44972,0,0,0-.94473.45933,1.58121,1.58121,0,0,1-1.06439.58407q-3.25066.83034-6.50028,1.66474-5.45723,1.40922-10.9114,2.83008c-.15016.03912-.35311.01413-.43069.271a5.40615,5.40615,0,0,0,1.39511-.32064c5.15634-1.26127,10.28251-2.63919,15.41932-3.97632,5.02134-1.30709,10.06243-2.53642,15.07171-3.89263,3.71277-1.00521,7.45909-1.88595,11.1852-2.84264,3.11922-.80086,6.23095-1.63092,9.34521-2.451C170.38444,210.0159,170.51516,210.00954,170.55251,209.86751Zm17.48231-34.21137c.01119.12674.09648.16389.17719.19893q1.02308.4443,2.04784.88472c.27293.11767.61248.18539.76488.43436a.69354.69354,0,0,0,.87.38,1.22291,1.22291,0,0,1,.68912.1492c.2204.07815.41364.07375.53756-.15461a1.22638,1.22638,0,0,1,.87083-.56245c.63453-.16038,1.27152-.31138,1.90387-.47982.43056-.11471.85574-.25,1.28118-.383a.21817.21817,0,0,0,.12676-.11523.16555.16555,0,0,0-.11362-.207q-1.72394-.73526-3.45088-1.46335a1.19728,1.19728,0,0,0-.7848-.06966c-1.52677.3938-3.05519.78123-4.58172,1.176C188.23722,175.4794,188.08125,175.50847,188.03482,175.65614Zm2.24748,2.15222c-.03754-.047-.06392-.10993-.11038-.13382-1.16573-.59982-2.38948-1.068-3.59411-1.57972a1.04945,1.04945,0,0,0-.69848-.04389q-2.286.60278-4.57135,1.20765a.17861.17861,0,0,0-.1036.1253.18872.18872,0,0,0,.07683.13874,1.1278,1.1278,0,0,0,.235.12544c.63007.26681,1.26139.53064,1.89174.79677a2.19546,2.19546,0,0,1,.91363.539c.38058.46123.94042.2878,1.41256.41795.27.07442.40815-.19568.59029-.33787a1.94006,1.94006,0,0,1,.73637-.30456q1.33851-.34923,2.67546-.70432C189.92983,178.00323,190.15493,178.01086,190.2823,177.80836ZM169.982,172.65265c.06334.16644.22619.17876.35661.234.74088.314,1.48352.62378,2.22561.93487a2.52776,2.52776,0,0,1,.91945.53637.68668.68668,0,0,0,.47.22061,3.64286,3.64286,0,0,1,.61164.10815.42659.42659,0,0,0,.48613-.12022,1.815,1.815,0,0,1,1.0952-.55q1.21326-.30831,2.42635-.61736c.17271-.04432.34439-.0944.5129-.15238a.23127.23127,0,0,0,.1331-.10941.16264.16264,0,0,0-.1122-.20741c-1.06566-.46349-2.13912-.90969-3.19662-1.391a1.94368,1.94368,0,0,0-1.38336-.10326c-1.382.36934-2.77395.70136-4.1605,1.05394C170.23349,172.52337,170.07115,172.50775,169.982,172.65265Zm-14.79737,14.13069c-.04547-.15809-.17207-.18648-.27715-.23262-.95416-.41892-1.91651-.81986-2.863-1.25537a2.4689,2.4689,0,0,0-1.74116-.12118c-1.09258.29436-2.1883.57753-3.277.88547a1.87632,1.87632,0,0,0-.91016.32234c.16375.378.56088.37612.86391.51951.72618.34357,1.496.60985,2.18122,1.01941a1.356,1.356,0,0,0,1.16508.17576c.80364-.22206,1.616-.41265,2.4238-.61967a1.743,1.743,0,0,1,.88066-.064,2.88743,2.88743,0,0,0,.68485.17285c.292-.00154.23427-.38448.43706-.51355C154.901,186.97791,155.04515,186.877,155.18465,186.78334Zm47.878-4.831c.174-.03643.34924-.06748.52166-.11013q1.99212-.49269,3.98287-.99088a2.64462,2.64462,0,0,0,.41958-.14862.18426.18426,0,0,0,.09384-.13078.2219.2219,0,0,0-.07862-.14032.501.501,0,0,0-.15208-.09121c-1.03951-.44339-2.08069-.88285-3.11914-1.32873a1.78533,1.78533,0,0,0-1.217-.076c-1.3499.36276-2.70609.70227-4.05872,1.055a1.2364,1.2364,0,0,0-.32055.14293c-.02425.01467-.02361.1095-.00217.15067a.2763.2763,0,0,0,.13124.11284q1.7238.73341,3.45084,1.45913A2.77758,2.77758,0,0,0,203.0626,181.9523ZM145.35973,186.239c.14527-.59976.15355-.61916.49345-.7433.16742-.06117.34382-.09745.51536-.14766.4007-.1173.80165-.23383,1.20037-.35753a.21444.21444,0,0,0,.12428-.11133c.03691-.10106-.03838-.16351-.11761-.20542-.10527-.05568-.21468-.10407-.32438-.1507-.82351-.35-1.65538-.68164-2.46853-1.05417a2.1928,2.1928,0,0,0-1.56032-.13138c-1.238.3347-2.48519.6355-3.72831.95138-.14444.03671-.28807.07769-.42969.124-.0869.02843-.17894.09051-.15828.18286.01658.07412.10278.13406.16213.19647a.24412.24412,0,0,0,.078.04273q1.50774.68032,3.01544,1.36076a.864.864,0,0,0,.52487.05852,5.82988,5.82988,0,0,0,.69666-.16151A2.33894,2.33894,0,0,1,145.35973,186.239Zm23.63832-3.15157c-.25043-.11436-.51234-.23817-.77762-.35429q-1.35213-.59187-2.706-1.17972a1.11741,1.11741,0,0,0-.77653-.10609c-1.35187.36843-2.70788.7217-4.06128,1.08454-.25335.06793-.50159.155-.89442.27755.51806.27291.92775.43513,1.3283.61967a10.0093,10.0093,0,0,1,2.01714.94891,1.04527,1.04527,0,0,0,1.0018.16353c1.52787-.4051,3.05894-.79816,4.58792-1.19913A.31721.31721,0,0,0,168.99805,183.08742ZM191.5857,173.554c-.032-.04741-.05284-.11743-.09628-.13686-1.0343-.46243-2.07281-.91542-3.1062-1.37979a1.35806,1.35806,0,0,0-.958-.04116c-1.35254.36768-2.70823.72375-4.06178,1.08774a1.90519,1.90519,0,0,0-.32913.13464.20885.20885,0,0,0-.0369.36283,2.60884,2.60884,0,0,0,.31417.16654c.87076.39046,1.74062.78306,2.61521,1.16477.30021.131.61243.2349.92052.34748a.43957.43957,0,0,0,.5555-.15608,1.814,1.814,0,0,1,1.13687-.65129q1.30368-.3208,2.60151-.66487C191.30122,173.74553,191.51469,173.77617,191.5857,173.554ZM92.60544,202.84461c-1.22682-.51786-2.401-1.01362-3.57525-1.50911a1.58033,1.58033,0,0,0-1.04743-.01912c-1.26594.32746-2.53489.64328-3.80194.96644a1.34319,1.34319,0,0,0-.3304.12341.12853.12853,0,0,0-.02474.21727,1.80992,1.80992,0,0,0,.38417.21731c.76355.33023,1.54733.61928,2.28988.99095a2.49108,2.49108,0,0,0,2.20252.21873,8.08755,8.08755,0,0,1,1.296-.3205c.20227-.04627.40774-.07852.6116-.118.36648-.07086.68411.18439,1.04416.15583a1.81561,1.81561,0,0,1,.84636-.73981C92.52089,203.01975,92.529,202.98069,92.60544,202.84461Zm23.09271-16.09182-.00757.14919c.71362.29664,1.42888.58942,2.14013.89163a4.3508,4.3508,0,0,1,.96453.45967,1.21929,1.21929,0,0,0,1.17381.17117c.80547-.21947,1.61809-.41264,2.42743-.618a2.226,2.226,0,0,1,1.14973-.046.53623.53623,0,0,0,.68964-.24406c.10173-.17591.36911-.20944.39507-.44834-.01446-.03189-.01956-.07366-.03941-.08259q-1.58829-.71454-3.17962-1.42232a1.67541,1.67541,0,0,0-1.1409-.04354Q117.98394,186.13392,115.69815,186.75279Zm14.09439-3.50593a4.26657,4.26657,0,0,0,1.00339.51813,12.95737,12.95737,0,0,1,2.25468,1.0719.59624.59624,0,0,0,.51194.08555c.26048-.06407.52107-.12777.78054-.19573q1.12464-.29452,2.24837-.59248a1.1961,1.1961,0,0,1,.87446-.01729c.38026.194.61544.03985.82264-.26719.0479-.071.14-.11047.20305-.17322.16739-.16667.15022-.30866-.07256-.40571-.92911-.40478-1.87247-.77835-2.7906-1.20626a2.06418,2.06418,0,0,0-1.47428-.11639c-1.29636.3449-2.59625.67655-3.89349,1.01817C130.09676,183.00951,129.90386,183.01288,129.79254,183.24686Zm-18.792,8.53277a.64687.64687,0,0,0,.39333.275,17.94415,17.94415,0,0,1,1.95762.86144,2.7527,2.7527,0,0,0,2.54151.28709,1.16382,1.16382,0,0,1,.87478-.04628c.4227.17872.7463.24015.957-.30132.08429-.21657.389-.24846.61866-.31237.45793-.12738.91742-.24953,1.37241-.38666a.12475.12475,0,0,0,.04493-.21467.663.663,0,0,0-.2203-.14408c-1.00779-.4407-2.0193-.873-3.02459-1.31929a1.22023,1.22023,0,0,0-.86419-.04c-1.37683.37524-2.75839.733-4.13753,1.09975A.88952.88952,0,0,0,111.00057,191.77963Zm-12.484,13.53a.66352.66352,0,0,0,.73342-.20671,1.79858,1.79858,0,0,1,.81514-.34366c.34487-.09315.69432-.16961,1.03777-.2674a.32319.32319,0,0,0,.1946-.159c.035-.089-.054-.16044-.135-.195q-1.60215-.68262-3.20634-1.36048a1.188,1.188,0,0,0-.78605-.03293c-1.35659.34455-2.71627.67708-4.07064,1.0301-.21165.05516-.54077.0827-.53375.36391.00539.21628.318.22765.50278.309a18.37765,18.37765,0,0,1,2.19921.98,1.55814,1.55814,0,0,0,1.4183.1952c.31059-.10173.63475-.1614.95137-.24544A2.042,2.042,0,0,1,98.51659,205.30961Zm55.5149-13.53523c-.15095.02809-.26961.04355-.38484.0726q-2.04018.51405-4.07921,1.03263a.9203.9203,0,0,0-.16551.06713c-.08286.03952-.17478.09514-.147.19456a.3317.3317,0,0,0,.15578.19523c1.08873.489,2.18122.96955,3.27288,1.452a1.2898,1.2898,0,0,0,.87688.00471q1.99272-.51748,3.98471-1.03771a1.13782,1.13782,0,0,0,.32332-.14325.13484.13484,0,0,0,.0057-.22762.79371.79371,0,0,0-.22374-.14322q-1.6077-.68043-3.219-1.35245A3.28154,3.28154,0,0,0,154.03149,191.77438ZM100.06831,205.802c.0345.18123.19825.20309.32655.26007.9782.43446,1.96547.8494,2.93378,1.30475a1.513,1.513,0,0,0,1.114.11317c1.17448-.32578,2.35541-.62825,3.53274-.94386.20066-.05381.39722-.124.59319-.19364.08552-.03038.17763-.09026.14835-.18975-.022-.07473-.10272-.1334-.16132-.19541a.22724.22724,0,0,0-.07761-.04285c-.98506-.41836-1.97488-.82593-2.95333-1.25921a1.72159,1.72159,0,0,0-1.21086-.07862c-1.29086.35142-2.58855.67761-3.88215,1.01908C100.29753,205.63113,100.13505,205.63751,100.06831,205.802Zm80.78756-32.01439c-.20638.03782-.38432.06039-.55707.1037q-1.952.48945-3.90221.98637a.87792.87792,0,0,0-.253.08358.36276.36276,0,0,0-.15984.18754c-.02269.09353.06412.15746.149.1959q1.62879.73742,3.25919,1.47126c.16246.07266.34073.10906.50824.1715a.4199.4199,0,0,0,.54964-.1478,1.23038,1.23038,0,0,1,.75824-.43329c.60563-.15818,1.20936-.32379,1.81216-.49248.43041-.12044.85851-.24926,1.28646-.37822.08751-.02636.18211-.08274.15979-.18272a.31281.31281,0,0,0-.15153-.196c-.95694-.415-1.91589-.82568-2.87973-1.22438A3.78552,3.78552,0,0,0,180.85587,173.78762ZM120.101,196.82541a5.95833,5.95833,0,0,0,1.111.52126,11.9277,11.9277,0,0,1,2.02048.946,1.28838,1.28838,0,0,0,1.17407.17828c1.14941-.31412,2.30645-.60032,3.4594-.90161.34591-.09039.69029-.18788,1.03087-.29625a.30918.30918,0,0,0,.1816-.16638c.03033-.09382-.06015-.15684-.14541-.19333-.98659-.42195-1.97441-.841-2.96-1.26535a1.30347,1.30347,0,0,0-.86994-.08158C123.46722,195.98316,121.82922,196.39141,120.101,196.82541Zm78.65588-20.169c-.142.02941-.40664.07087-.66394.13969q-1.85085.49509-3.69793,1.00431a3.03213,3.03213,0,0,0-.41464.15955.17527.17527,0,0,0-.02757.2917,1.79812,1.79812,0,0,0,.2318.12951c.89674.39532,1.78728.80616,2.69569,1.17268a4.545,4.545,0,0,0,1.04055.21627.41435.41435,0,0,0,.32284-.103,2.73273,2.73273,0,0,1,1.52-.679c.83259-.22069,1.66975-.42419,2.50293-.64267a.34282.34282,0,0,0,.20382-.14915c.04383-.088-.04-.16239-.11989-.19758q-1.38609-.61071-2.77516-1.21478A1.78085,1.78085,0,0,0,198.75692,176.6564ZM67.42711,199.28981a1.13331,1.13331,0,0,0,.604.37873c.84874.3642,1.70914.70319,2.54459,1.09544a1.40478,1.40478,0,0,0,1.02952.10346c.77638-.21069,1.55758-.40427,2.33983-.59227a1.97691,1.97691,0,0,1,.96514-.12769,1.04345,1.04345,0,0,0,.90991-.24371c.31454-.2192.32957-.33687.00165-.47931-1.011-.43919-2.02845-.86341-3.04372-1.29268a1.46689,1.46689,0,0,0-.962-.06875c-1.38565.35445-2.77278.70308-4.1577,1.06034C67.5816,199.14314,67.5199,199.22107,67.42711,199.28981Zm9.18738,1.40375c.03875.052.06277.11762.10794.13939.32117.15472.6472.29933.97067.44934a8.06714,8.06714,0,0,1,2.13638,1.08216.50341.50341,0,0,0,.50976.07481c.97323-.3376,2.0685-.22575,2.97423-.83063a2.64562,2.64562,0,0,1,.76517-.23012c.25793-.07093.51777-.13493.77545-.20668.0858-.0239.1862-.0718.16218-.17144a.31649.31649,0,0,0-.16305-.18628c-.98106-.42719-1.96586-.84579-2.94937-1.26734a1.68768,1.68768,0,0,0-1.1328-.06441c-1.17923.30933-2.364.59762-3.54246.90968C77.01162,200.4495,76.7478,200.45161,76.61449,200.69356ZM186.93181,179.842c.05055.17278.21266.19375.34152.252.81544.369,1.64646.70677,2.44413,1.11058a1.69561,1.69561,0,0,0,1.28958.11654c1.23926-.33145,2.48581-.63566,3.72889-.95288a3.35952,3.35952,0,0,0,.4256-.13418c.10992-.04431.23451-.112.21141-.25075a.30993.30993,0,0,0-.16815-.18887c-.93075-.40343-1.86568-.7972-2.79861-1.19559a1.56348,1.56348,0,0,0-1.05074-.03323c-1.35619.35743-2.71525.70393-4.07173,1.06025C187.15055,179.66093,186.98347,179.66563,186.93181,179.842Zm-70.4696,43.993c-.18255-.09506-.34831-.00271-.51505.03917-1.18369.29713-2.36492.60429-3.55016.895-1.04047.25521-2.08194.50827-3.12936.73238a4.27167,4.27167,0,0,1-1.59557.09682.88056.88056,0,0,1-.74545-.4116,1.06886,1.06886,0,0,0-.6271-.47059c-.74924-.29053-1.49658-.586-2.24573-.87675a4.13713,4.13713,0,0,0-.42362-.13969.22491.22491,0,0,0-.30408.22092c.0254.56422.0491,1.12863.08555,1.69218.02906.44889.11194.5705.56458.67849.63642.15182,1.28144.2686,1.92464.39058a3.33868,3.33868,0,0,0,2.17382-.28073,16.34917,16.34917,0,0,1,3.11645-1.07993c1.60931-.43394,3.22588-.841,4.83775-1.26554C116.18364,224.015,116.38053,224.03325,116.46221,223.835ZM71.19874,197.19088c-.01074-.1453-.13018-.18419-.23309-.22956-.4079-.17986-.82257-.34486-1.2266-.53285a1.59246,1.59246,0,0,0-1.12559-.08054c-1.23624.32414-2.47988.62017-3.71488.94875-.5735.15259-1.13459.35244-1.69908.53766a.16635.16635,0,0,0-.01972.2909c.28867.15037.60191.25971.87407.43422a1.60164,1.60164,0,0,0,1.50523.28795,1.359,1.359,0,0,1,.52966.00543.52771.52771,0,0,0,.415-.1169,2.58669,2.58669,0,0,1,1.14094-.47147q1.5911-.43424,3.18156-.87082C70.965,197.35547,71.1246,197.34893,71.19874,197.19088Zm84.953-23.40428c-.18458.03028-.33392.04395-.47763.08q-2.55724.64176-5.11216,1.29272a2.65384,2.65384,0,0,0-.49014.20543.18334.18334,0,0,0,.00645.29963,5.73339,5.73339,0,0,1,1.03659.5102,1.36254,1.36254,0,0,0,1.33777.18777c1.72331-.47333,3.453-.92357,5.17786-1.39119.21988-.05961.59342-.03888.60718-.26615.01849-.3052-.3746-.30486-.60284-.41021-.29716-.13713-.60193-.2603-.91065-.36889A5.33082,5.33082,0,0,0,156.1517,173.7866Zm15.6246-4.0543c-.25434.054-.48819.09642-.71835.15364q-1.81746.45182-3.63315.9107c-.14386.03625-.286.08087-.42622.12933-.085.02942-.17233.07617-.15772.18464a.21432.21432,0,0,0,.08586.14486c.59982.32319,1.20027.64549,1.80743.95451a.48629.48629,0,0,0,.5855-.05447,3.1365,3.1365,0,0,1,1.533-.6643c.86293-.22421,1.723-.45948,2.58314-.69444.11044-.03017.24692-.0735.23315-.21624-.0063-.06542-.09634-.14584-.16723-.17814-.40563-.18478-.81438-.36349-1.2276-.53057A4.34251,4.34251,0,0,0,171.7763,169.7323ZM128.1594,180.966c-.15529.02706-.30415.04248-.44737.07964q-1.7268.44823-3.4512.9056a1.81987,1.81987,0,0,0-.32629.13881.16932.16932,0,0,0-.00738.29406,7.90265,7.90265,0,0,1,1.03952.50074,1.44832,1.44832,0,0,0,1.43064.1684,4.0349,4.0349,0,0,1,.43047-.11626,3.31838,3.31838,0,0,1,1.7539-.15758.386.386,0,0,0,.4103-.1112,2.1744,2.1744,0,0,1,1.17677-.58507.18022.18022,0,0,0,.15166-.1848.213.213,0,0,0-.0986-.13706,10.38453,10.38453,0,0,0-1.71824-.739A1.95483,1.95483,0,0,0,128.1594,180.966Zm-52.749,13.61578c-.25712.058-.49043.10346-.71983.16368q-1.5962.419-3.19044.84531a2.60692,2.60692,0,0,0-.33931.1075.23686.23686,0,0,0-.11836.11938.16677.16677,0,0,0,.10256.2149,3.43219,3.43219,0,0,1,1.68977,1.09918.29006.29006,0,0,0,.464-.03213,1.65278,1.65278,0,0,1,1.0553-.60852c.51694-.13789,1.04564-.23528,1.55617-.39264a4.17956,4.17956,0,0,0,1.57362-.53681c.11633-.096-.51865-.4841-1.48963-.82989C75.80084,194.66285,75.59523,194.62831,75.41039,194.58176Zm38.09892-9.81788c-.12972.01888-.22.02406-.306.04574q-1.64661.41463-3.29208.83375a.19162.19162,0,0,0-.08253.03219c-.04117.03844-.09633.08121-.105.12951a.18658.18658,0,0,0,.05949.14835.95836.95836,0,0,0,.23068.131,8.20894,8.20894,0,0,0,1.6418.67771,5.11794,5.11794,0,0,0,1.82609-.351,3.45123,3.45123,0,0,1,.6148-.0916,3.75258,3.75258,0,0,0,1.449-.43089c.16338-.12465.17049-.265.00458-.33762-.51822-.2267-1.03826-.44971-1.56272-.66144A3.504,3.504,0,0,0,113.50931,184.76388Zm-26.38665,6.8482c-.42713.09242-.8649.17492-1.29619.28318-.74864.1879-1.49417.38851-2.23815.59413-.07111.01965-.16994.11265-.16942.17083.00056.0632.09058.14895.16173.1843.39851.198.81337.36514,1.20216.57989a1.052,1.052,0,0,0,.84793.14282,1.60383,1.60383,0,0,1,1.13015.08055.36789.36789,0,0,0,.51752-.19279,1.26094,1.26094,0,0,1,.80318-.51416c.35886-.11513.76548-.09675,1.06767-.37358-.17135-.47039-.68735-.37518-1.00629-.60771a1.78866,1.78866,0,0,0-.48926-.21092C87.48615,191.69244,87.31086,191.65938,87.12266,191.61208ZM142.62854,179.222l.02954-.15182c-.81592-.34612-1.63069-.695-2.44857-1.0364a.94574.94574,0,0,0-.61235-.03551c-1.06186.27778-2.12386.55506-3.18367.8405a.28781.28781,0,0,0-.18456.16084c-.032.13637.0909.2.19658.25013.37469.17781.7691.32218,1.122.53549a1.214,1.214,0,0,0,1.019.13216c.7145-.19847,1.43063-.39161,2.14938-.574a6.16943,6.16943,0,0,1,1.04534-.20537A4.85824,4.85824,0,0,1,142.62854,179.222Zm43.78183,6.94859a2.15093,2.15093,0,0,0-1.9662-.37626c-1.36722.4042-2.75215.74834-4.12861,1.12157-.13425.0364-.29412.05024-.34749.22148.813.52079.94131.55338,1.7265.358,1.38423-.34433,2.76641-.69675,4.14921-1.04683A1.00961,1.00961,0,0,0,186.41037,186.17059Zm-7.03448,1.89814a2.10881,2.10881,0,0,0-1.92605-.43547c-1.17665.33237-2.36542.62183-3.54853.9315a2.67621,2.67621,0,0,0-.338.11605.18844.18844,0,0,0-.13555.20247.25738.25738,0,0,0,.10165.14033,1.64574,1.64574,0,0,0,1.53136.214c.86007-.24667,1.72324-.48264,2.58658-.71772C178.161,188.38,178.6775,188.25056,179.37589,188.06873Zm-7.40943,21.40034c.85853-.01786,13.06224-3.18681,13.80552-3.57679C181.14572,206.98767,176.53632,208.1493,171.96646,209.46907ZM165.26533,164.119a11.39554,11.39554,0,0,0,2.70816-.47878.45369.45369,0,0,0,.07771-.04149.22922.22922,0,0,0,.02667-.37339.982.982,0,0,0-.93151-.13119c-.80507.20079-1.60445.42469-2.40367.64811a.282.282,0,0,0-.18017.15975c-.02216.10227.08821.14764.17471.16026C164.94166,164.09205,165.14823,164.107,165.26533,164.119ZM225.767,195.68369a8.13379,8.13379,0,0,0,1.13408-.2606c.34265-.09456.69109-.16818,1.03726-.24982.674-.159.67409-.15864,1.028-.46517a27.17961,27.17961,0,0,0-2.73834.66314C226.06827,195.40456,225.86731,195.41378,225.767,195.68369ZM183.90737,207.5794c-.1672-.04316-.22679-.07961-.27429-.06773q-1.59135.39787-3.17984.807a.12334.12334,0,0,0-.06346.0564c-.06036.103.121.00038-.13443.1589C181.55176,208.19631,182.69264,207.94856,183.90737,207.5794ZM165.431,162.42546q-.42057.10974-.84116.21948c-.25842.06733-.51875.12825-.77483.20356a1.50676,1.50676,0,0,0-.85694.39715A6.47071,6.47071,0,0,0,165.431,162.42546Zm32.13393,41.49216a8.58446,8.58446,0,0,0,3.02839-.76727C199.52344,203.37787,198.62262,203.59237,197.56491,203.91762Zm-141.66-11.59151a3.26027,3.26027,0,0,0,2.01145-.4547A7.23371,7.23371,0,0,0,55.90488,192.32611Zm93.11206,24.10809-1.25525.32026A1.64324,1.64324,0,0,0,149.01694,216.4342ZM57.28285,190.71639c-.0919-.00869-.17693.01519-.1956.11149a.12316.12316,0,0,0,.15132.14911c.07428-.01023.1871-.05491.20266-.10789C57.4688,190.77522,57.36547,190.73911,57.28285,190.71639Z" transform="translate(-2.37364 -64.71469)"/><path d="M43.74245,202.05085a.74215.74215,0,0,1,.90179-.04844c1.23558.70858,2.43916,1.475,3.725,2.09457a.74585.74585,0,0,1,.2153.15513.34513.34513,0,0,1,.0676.40822.36913.36913,0,0,1-.35175.22791,1.78371,1.78371,0,0,1-.82937-.29873c-.85906-.47014-1.71285-.95-2.56565-1.43148a6.19237,6.19237,0,0,0-1.19964-.5817Q43.72388,202.31311,43.74245,202.05085Z" transform="translate(-2.37364 -64.71469)"/><path d="M43.18877,100.59551c-.26744-.01079-.3915-.09015-.44333-.24373a.35064.35064,0,0,1,.17512-.45618,3.928,3.928,0,0,1,.66413-.25751c.85951-.24745,1.7201-.49177,2.58445-.72158,3.91829-1.04176,7.84027-2.06976,11.75653-3.11907,3.31138-.88725,6.61638-1.79828,9.92545-2.69421a4.37324,4.37324,0,0,1,.78764-.14645.37119.37119,0,0,1,.39139.30164.36372.36372,0,0,1-.20838.44521,3.16955,3.16955,0,0,1-.58606.212c-2.01608.53919-4.03517,1.06724-6.05014,1.61051-3.13738.84589-6.2708,1.70649-9.40862,2.55073-2.41831.65067-4.84088,1.28553-7.26138,1.928-.57628.153-1.151.31186-1.72819.46129C43.55787,100.52564,43.32363,100.56676,43.18877,100.59551Z" transform="translate(-2.37364 -64.71469)"/><path d="M101.95307,77.73453a.87825.87825,0,0,1-.85595-1.20315.56018.56018,0,0,1,.30463-.31108,5.93153,5.93153,0,0,1,.6746-.22964q3.499-.90836,7.00062-1.80677c.23027-.0592.463-.11181.69741-.15115a.5201.5201,0,0,1,.588.303c.402.78075.38354,1.13784-.52194,1.38q-1.72456.46116-3.453.90788-1.85779.48163-3.71852.952C102.40984,77.64134,102.14686,77.69184,101.95307,77.73453Z" transform="translate(-2.37364 -64.71469)"/><path d="M35.87586,95.08827a.89706.89706,0,0,1-.94673-1.14561.57.57,0,0,1,.33646-.39349,4.5794,4.5794,0,0,1,.59345-.1963q3.59841-.91479,7.19859-1.82257c.11563-.02923.2319-.0567.34895-.07944.56675-.1101.73139-.01391.933.54387a2.28421,2.28421,0,0,1,.08079.25579.5244.5244,0,0,1-.37773.70108c-.421.14921-.85261.27167-1.2853.38382-1.29916.33674-2.60182.66-3.90165.99411-.77982.20046-1.55635.41373-2.33562.61636C36.28948,95.00584,36.05461,95.04917,35.87586,95.08827Z" transform="translate(-2.37364 -64.71469)"/><path d="M86.63248,89.0914a2.32563,2.32563,0,0,1-.30248-.08493.36255.36255,0,0,1-.22052-.35641.29717.29717,0,0,1,.17465-.28924,5.84922,5.84922,0,0,1,.675-.22714c1.38666-.35412,2.77724-.693,4.16256-1.05216q3.76617-.97646,7.5279-1.97a2.32353,2.32353,0,0,1,.78655-.14654.45483.45483,0,0,1,.41767.3975.37217.37217,0,0,1-.26724.41447c-.25145.091-.51237.15788-.77216.22345-1.41668.35757-2.83644.70307-4.251,1.06875-2.30931.597-4.61487,1.20843-6.92346,1.80821C87.29512,88.967,86.94247,89.02628,86.63248,89.0914Z" transform="translate(-2.37364 -64.71469)"/><path d="M81.42054,90.10122a.36709.36709,0,0,1-.23421.349,7.23339,7.23339,0,0,1-.76376.24255q-3.06777.79488-6.13733,1.58278c-.576.149-1.14591.323-1.725.45844-.37216.08707-.58917-.03571-.63514-.29723-.04036-.22958.084-.38965.401-.50262.11179-.03984.22889-.06494.34389-.09556q3.79443-1.01024,7.5897-2.01721a4.64418,4.64418,0,0,1,.788-.13519A.38445.38445,0,0,1,81.42054,90.10122Z" transform="translate(-2.37364 -64.71469)"/><path d="M75.65047,87.79173a1.616,1.616,0,0,1-1.00491,1.61819,1.80354,1.80354,0,0,1-2.07745-.34322,3.00531,3.00531,0,0,1-.87191-2.27578,1.2807,1.2807,0,0,1,.362-.8923.36137.36137,0,0,1,.405-.10923.34256.34256,0,0,1,.24.3424,5.16031,5.16031,0,0,1-.08548.5265,2.06844,2.06844,0,0,0,.31317,1.45405,1.10684,1.10684,0,0,0,.69826.5207.82417.82417,0,0,0,1.08592-.83538,1.72827,1.72827,0,0,0-.38572-1.16382c-.13031-.16252-.28426-.306-.41519-.46811a.45232.45232,0,0,1,.01387-.64195.41155.41155,0,0,1,.56788.00912A2.96475,2.96475,0,0,1,75.65047,87.79173Z" transform="translate(-2.37364 -64.71469)"/><path d="M115.22831,81.26229a.36531.36531,0,0,1,.19325-.37181,2.943,2.943,0,0,1,.57936-.22157q2.98074-.75763,5.96506-1.5012a2.74873,2.74873,0,0,1,.526-.07993.34544.34544,0,0,1,.345.23311.3658.3658,0,0,1-.11782.47553,1.589,1.589,0,0,1-.48509.20784q-3.06621.78336-6.13629,1.55147a2.24814,2.24814,0,0,1-.52832.05511A.36857.36857,0,0,1,115.22831,81.26229Z" transform="translate(-2.37364 -64.71469)"/><path d="M129.35627,78.12047c-.24069-.02354-.392-.11006-.44084-.30723a.35153.35153,0,0,1,.22187-.43354,4.12089,4.12089,0,0,1,.59032-.19915q2.93658-.76159,5.87549-1.51423a4.42955,4.42955,0,0,1,.61245-.11641.37225.37225,0,0,1,.4129.268.4135.4135,0,0,1-.22826.51871,2.34348,2.34348,0,0,1-.41884.14986q-3.11514.78381-6.2321,1.56042C129.60574,78.08273,129.458,78.10175,129.35627,78.12047Z" transform="translate(-2.37364 -64.71469)"/><path d="M28.01732,104.65669c-.25338-.015-.40326-.09192-.47171-.28625-.06892-.19564.03121-.38259.28047-.48335a5.2428,5.2428,0,0,1,.59414-.19678q2.80754-.76018,5.61747-1.51142a4.05076,4.05076,0,0,1,.70292-.1133.349.349,0,0,1,.34358.2393.40032.40032,0,0,1-.13611.477,1.76581,1.76581,0,0,1-.40765.17756q-3.06906.82084-6.14108,1.63062A3.79973,3.79973,0,0,1,28.01732,104.65669Z" transform="translate(-2.37364 -64.71469)"/><path d="M140.82074,213.90819a2.76818,2.76818,0,0,1-1.22819-.28661c-2.0604-.87022-4.12216-1.73739-6.1765-2.62171q-2.71179-1.16733-5.40614-2.37487c-.56861-.2565-1.10011-.59556-1.64677-.9001a1.17466,1.17466,0,0,1-.21534-.159.86073.86073,0,0,1,.01262-1.39116,4.24345,4.24345,0,0,1,1.41425-.75144c1.217-.40588,2.44032-.7884,3.682-1.11374,4.586-1.20166,9.16787-2.4191,13.75551-3.61436,2.13558-.55642,4.28408-1.06206,6.46044-1.43718a15.336,15.336,0,0,1,2.75655-.26863,7.442,7.442,0,0,1,2.53865.45515c2.93869,1.08861,5.80294,2.35211,8.665,3.62392,1.55313.69019,3.13368,1.31857,4.69989,1.97947a3.51533,3.51533,0,0,0,1.21955.2458.36454.36454,0,0,1,.36135.3334.38351.38351,0,0,1-.24418.43185,6.3448,6.3448,0,0,1-.8425.29295c-1.12542.29418-2.25548.57055-3.38155.8623q-6.88586,1.784-13.77071,3.572c-2.45442.63444-4.91282,1.2534-7.36853,1.88292-1.38631.35538-2.77052.719-4.15627,1.07661A4.331,4.331,0,0,1,140.82074,213.90819Zm24.97773-9.48927c-.03868-.22258-.198-.25378-.32646-.31025-.98274-.43208-1.96147-.87413-2.95287-1.28556q-2.93361-1.21755-5.88018-2.40376a6.25741,6.25741,0,0,0-2.79974-.47624,19.53151,19.53151,0,0,0-2.21976.257c-1.31853.248-2.63412.52132-3.93712.84052-5.0406,1.23485-10.07257,2.504-15.07342,3.89365-1.52332.42329-3.04984.83463-4.54285,1.358a6.934,6.934,0,0,0-.82455.34124c-.29342.14765-.30614.38317-.03291.53316.44412.24378.88818.4928,1.3516.69539,2.81482,1.23051,5.63713,2.44387,8.45145,3.67551a1.74654,1.74654,0,0,0,1.30229.07466c.33985-.11122.681-.22089,1.027-.31048,2.57-.66543,5.14226-1.32242,7.71218-1.98823q6.49609-1.683,12.99072-3.37163c1.64609-.42562,3.29786-.82924,4.94455-1.25268A1.93259,1.93259,0,0,0,165.79847,204.41892Zm-9.75538,4.78041c.21561-.04929.47852-.10228.73766-.1697q5.62968-1.46466,11.25792-2.93489a2.0648,2.0648,0,0,0,.40908-.16576c.0266-.01356.02248-.10057.01949-.153-.00135-.0237-.0307-.051-.05388-.06751a1.9631,1.9631,0,0,0-1.9068-.41438c-.70182.24442-1.43944.38646-2.162.57087q-4.55307,1.162-9.10594,2.32481a5.82052,5.82052,0,0,0-.67306.23195.16242.16242,0,0,0,.00027.28991A3.78839,3.78839,0,0,0,156.04309,209.19933Zm-2.43221.47441a2.504,2.504,0,0,0-2.23963-.47385c-.73828.23224-1.49437.4089-2.245.60083q-4.634,1.185-9.26843,2.36794c-.18357.04713-.41858.02-.53021.26891a3.03613,3.03613,0,0,0,2.55424.424c.314-.09176.6406-.13919.95763-.22163q3.02779-.7873,6.05383-1.58151c1.38393-.36172,2.76869-.72031,4.15119-1.08739C153.23659,209.92,153.47207,209.94228,153.61088,209.67374Z" transform="translate(-2.37364 -64.71469)"/><path d="M176.79757,165.58472a5.23973,5.23973,0,0,1-2.81157-.63833,2.89782,2.89782,0,0,1-.58528-.4027.78869.78869,0,0,1,.03279-1.30378,2.17368,2.17368,0,0,1,.52676-.33129,7.8062,7.8062,0,0,1,6.66223-.0403,4.07436,4.07436,0,0,1,.75516.47211.54138.54138,0,0,1,.13632.72326,1.65664,1.65664,0,0,1-.93771.78566A10.24379,10.24379,0,0,1,176.79757,165.58472Zm-2.4224-1.74906a4.06254,4.06254,0,0,0,1.55349.58383,8.09811,8.09811,0,0,0,3.616-.39136,1.30816,1.30816,0,0,0,.38018-.22121.14367.14367,0,0,0-.01541-.22955,2.86046,2.86046,0,0,0-.56909-.24828,7.236,7.236,0,0,0-4.31544.10873A1.05887,1.05887,0,0,0,174.37517,163.83566Z" transform="translate(-2.37364 -64.71469)"/><path d="M62.54551,202.95912c-.17773.09749-.3495.22666-.5699.1285a.2675.2675,0,0,1-.17019-.3509.27364.27364,0,0,1,.342-.19422c.23542.04261.31985.2308.39026.42809Z" transform="translate(-2.37364 -64.71469)"/><path d="M57.71108,209.059a1.52618,1.52618,0,0,0-.74944-.46248q-2.79774-1.19337-5.59594-2.3856a6.30991,6.30991,0,0,1-.72108-.35408.35772.35772,0,0,1-.16137-.4632.36674.36674,0,0,1,.41873-.26137,5.205,5.205,0,0,1,.85142.25676c.4721.18409.9308.40263,1.40306.5863.39722.15448.53429.05191.55648-.39587.01327-.26784.0023-.53681.00729-.80518a4.9986,4.9986,0,0,1,.02748-.62478.65114.65114,0,0,1,.82946-.58552,2.03358,2.03358,0,0,1,.34262.10224c.943.37282,1.88.76123,2.82866,1.119a1.00883,1.00883,0,0,1,.71691,1.09855c-.02529.65487-.0229,1.31077-.0456,1.96578-.01244.35923-.009.41389.3068.55253.65525.28763,1.32.55358,1.97678.83781a5.46805,5.46805,0,0,1,.71483.36367.357.357,0,0,1,.14845.46692.36861.36861,0,0,1-.43268.2367,3.76334,3.76334,0,0,1-.67941-.21141c-.60753-.24765-1.20938-.50926-1.81372-.76478a2.75511,2.75511,0,0,0-.93826-.2783Z" transform="translate(-2.37364 -64.71469)"/><path d="M51.24664,203.57257a2.02672,2.02672,0,0,1-.04123.28064,1.07008,1.07008,0,0,1-.70458.84542.96046.96046,0,0,1-1.02233-.36917,1.94819,1.94819,0,0,1-.53576-1.37164,1.198,1.198,0,0,1,.33443-.8906.86459.86459,0,0,1,1.131-.14466A1.90872,1.90872,0,0,1,51.24664,203.57257Zm-1.23033-.72287c-.04214.02631-.11018.04453-.123.08175a.14725.14725,0,0,0,.08633.20871.15126.15126,0,0,0,.124-.07788A.15676.15676,0,0,0,50.01631,202.8497Z" transform="translate(-2.37364 -64.71469)"/></svg>