<svg xmlns="http://www.w3.org/2000/svg" xmlns:xlink="http://www.w3.org/1999/xlink" viewBox="0 0 247 59.42716"><defs><style>.a{fill:url(#a);}.b{fill:#ccc;}.c{fill:#666;}.d{fill:#fcf;}.e{fill:#333;}.f{fill:#0cf;}.g{fill:#60f;}.h{fill:#cfc;}.i{fill:red;}.j{fill:#fc0;}</style><linearGradient id="a" x1="190.25537" y1="-36.56173" x2="56.55991" y2="97.13374" gradientUnits="userSpaceOnUse"><stop offset="0" stop-color="#3d3b3c"/><stop offset="0.28492" stop-color="#020202"/><stop offset="0.49721" stop-color="#3d3d3d"/><stop offset="0.78212"/><stop offset="1" stop-color="#5d5e60"/></linearGradient></defs><title>home_escritorio_teclado</title><polyline class="a" points="18.167 58.741 0.147 28.398 0.147 16.075 228.847 2.03 246.072 36.083 246.072 45.093"/><path class="b" d="M75.80508,193.77124l1.27212-5.11478s77.48109-4.33947,77.978-4.33947a5.53816,5.53816,0,0,1,1.49066.43063l1.72254,3.18007,1.325,5.9792-82.91371,5.05167" transform="translate(-2 -153.36847)"/><polyline class="c" points="7.716 24.091 9.568 18.331 19.303 17.657 22.076 22.352 28.933 22.104 31.641 26.973 34.133 27.183 35.852 30.84 36.337 33.085 17.803 33.797 16.032 40.05"/><polygon class="d" points="226.462 30.949 213.079 6.071 214.139 0.705 224.474 0.108 237.923 25.682 227.787 26.278 226.462 30.949"/><polyline class="c" points="37.323 42.284 38.718 37.525 53.014 36.582 55.135 40.05 56.626 46.617 38.374 47.743"/><polyline class="c" points="171.122 34.579 172.434 29.408 182.471 29.11 184.469 32.736 186.148 38.799 172.061 39.644"/><polygon class="e" points="71.367 35.884 57.19 36.543 55.931 41.416 53.115 36.58 47.715 36.679 45.098 32.108 36.758 32.766 34.034 26.973 31.641 26.973 28.933 22.104 22.623 22.501 18.946 17.135 20.585 12.166 30.498 11.794 33.157 16.266 34.333 11.603 44.171 11.106 47.086 15.943 48.378 10.775 58.216 10.079 60.734 15.148 62.059 10.079 72.03 9.351 74.448 13.823 75.806 9.152 85.611 8.456 88.129 12.895 89.719 8.456 99.193 7.661 102.174 12.299 103.632 7.661 113.371 6.866 116.021 11.437 117.412 6.402 127.085 6.005 129.735 10.51 131.325 6.005 140.997 5.077 143.912 9.914 144.956 4.763 154.844 4.365 157.593 9.086 159.018 3.968 168.508 3.52 171.539 8.191 172.632 3.272 182.173 2.576 185.253 7.545 186.604 2.378 196.384 2.03 198.868 6.402 200.309 1.583 210.396 1.036 212.632 5.607 212.185 6.253 189.477 7.396 188.086 12.365 194.396 12.067 197.179 15.943 196.979 17.248 190.471 17.682 189.195 23.141 187.688 23.446 186.703 28.476 185.154 33.98 182.471 29.11 172.434 29.69 171.39 34.178 168.409 29.69 158.769 30.385 157.328 36.365 154.198 30.949 119.002 32.969 85.412 34.957 75.806 35.619 74.216 41.151 71.367 35.884"/><path class="f" d="M160.27248,193.90689l-1.46582-4.12416,1.73911-6.18623s8.94394-.24844,9.54021-.323,2.90678,3.95024,2.90678,3.95024l1.0683,5.96263" transform="translate(-2 -153.36847)"/><path class="f" d="M58.75867,199.78671l-1.25878-4.60448,1.49066-5.267s8.57956-.16563,9.77209-.265,4.60448-.39751,4.60448-.39751l2.35192,4.00822.96065,5.69762" transform="translate(-2 -153.36847)"/><path class="g" d="M191.19535,176.26744l1.42441-5.532s18.68291-.16563,26.93122-1.42441l2.65006,3.90884.29631,1.71941-9.30651.46689-.99377,5.39949-3.27945-5.23387S197.8205,176.96308,191.19535,176.26744Z" transform="translate(-2 -153.36847)"/><polyline class="h" points="18.946 45.325 20.718 37.839 34.531 37.507 36.725 41.416 37.049 43.219 38.771 37.342 47.715 37.011 45.198 32.307 17.803 33.797 17.24 34.725 15.948 40.422"/><polygon class="h" points="186.604 28.838 188.135 23.197 206.769 22.203 209.054 25.781 208.854 27.357 199.971 28.227 198.867 33.093 196.235 27.918 186.604 28.838"/><path class="i" d="M7.1819,172.44141l1.34159-6.062s8.84457.09938,9.63959-.29813,2.78256,3.52789,2.78256,3.52789v1.24222l-9.888.89439L9.716,177.46" transform="translate(-2 -153.36847)"/><path class="i" d="M188.14778,192.16779l-1.45753-4.67073,1.45753-5.267s9.07645-.46376,9.77209-.62939,2.78257,3.77633,2.78257,3.77633l.92752,6.09514" transform="translate(-2 -153.36847)"/><path class="i" d="M20.631,198.46168l1.92129-6.857s12.919-.39751,13.6478-.56314,2.65006,4.00822,2.65006,4.00822l1.35816,6.02888-17.82165,1.06" transform="translate(-2 -153.36847)"/><path class="j" d="M200.63618,186.1389l1.39129-4.737,9.93772-.76189,1.22565-5.23386,9.90459-.49689,2.41818,3.87571.36438,1.25878,2.02067,3.37882v1.0269l.86127-.69564.795-3.942.49689-.33126s8.64581-.29813,9.1427-.39751,2.65006,3.80946,2.65006,3.80946l1.55691,6.16139L201.63,191.20714Z" transform="translate(-2 -153.36847)"/><path d="M2.12,175.98223c.00038-1.79188.04788-3.58548-.01711-5.375-.04018-1.10615.32394-1.624,1.48052-1.58848.78109.024,1.56867-.168,2.35-.14584,1.22069.0347,2.04443-.224,2.30307-1.65179.16316-.90065,1.13558-1.0179,1.94257-.94483a29.73026,29.73026,0,0,0,6.52455-.35156c1.48257-.19207,2.80764-.13845,3.47,1.52777a.87194.87194,0,0,0,.8907.65134c.54523-.06192.67152-.52762.734-.95889.19962-1.37714,1.08892-1.76644,2.33423-1.73052a38.35275,38.35275,0,0,0,6.92777-.35617,2.28261,2.28261,0,0,1,2.80286,1.33811c.18392.43624.4795.88,1.077.78538.61253-.097.6758-.63988.75242-1.09853a1.6479,1.6479,0,0,1,1.86167-1.46207,47.12793,47.12793,0,0,0,7.71034-.43573,2.01364,2.01364,0,0,1,2.35269,1.24176c.2001.4684.44325,1.00728,1.10282.96537.72636-.04615.73091-.69255.81706-1.16988a1.57541,1.57541,0,0,1,1.75586-1.41,45.0345,45.0345,0,0,0,7.83711-.47965,2.15294,2.15294,0,0,1,2.40956,1.40878c.19742.43217.44294.89647,1.04529.83766.64691-.06315.68838-.62764.75859-1.07628.19007-1.21457.96722-1.55457,2.05948-1.51433a35.191,35.191,0,0,0,7.181-.45038,2.25088,2.25088,0,0,1,2.72256,1.27183c.20859.44913.44813,1.0291,1.10982.95671.70294-.0769.67933-.71343.773-1.20692a1.56081,1.56081,0,0,1,1.78286-1.36592,41.80664,41.80664,0,0,0,7.57316-.4868,2.26647,2.26647,0,0,1,2.6611,1.40622c.19.42659.44446.92509,1.03992.84019.60514-.08629.66894-.656.745-1.10895a1.69046,1.69046,0,0,1,2.06821-1.51076,29.60122,29.60122,0,0,0,6.52646-.375c1.52186-.21627,2.8985-.16505,3.59424,1.54828a.85567.85567,0,0,0,.90522.62393c.48017-.06389.63243-.46788.67362-.86021.163-1.55246,1.18939-1.86058,2.50646-1.83134a36.83235,36.83235,0,0,0,6.66619-.34225c1.25333-.2007,2.35753-.02465,2.92527,1.34769a1.00774,1.00774,0,0,0,1.10355.74942c.54952-.08817.6265-.57375.69833-.9945.2148-1.258,1.05538-1.59729,2.18415-1.57281a36.24888,36.24888,0,0,0,7.05553-.38549,2.26375,2.26375,0,0,1,2.72451,1.26962c.21607.456.4613,1.00469,1.14124.888.6114-.10491.6633-.63763.73358-1.10662a1.62538,1.62538,0,0,1,1.856-1.45876,44.258,44.258,0,0,0,7.70762-.4625,2.00382,2.00382,0,0,1,2.28769,1.1451c.23668.48771.46029,1.13308,1.16936,1.08375.78038-.05429.724-.78424.8415-1.29875a1.54681,1.54681,0,0,1,1.731-1.27268,45.14318,45.14318,0,0,0,7.83654-.48828,2.03893,2.03893,0,0,1,2.33789,1.27919c.20618.45742.414,1.03021,1.08588.97785.71911-.056.72649-.704.81135-1.18129a1.58934,1.58934,0,0,1,1.8745-1.40518,37.52891,37.52891,0,0,0,7.31131-.4682,2.38654,2.38654,0,0,1,2.88353,1.47058c.16739.39353.405.82151.94252.78216.63751-.04667.704-.58633.78477-1.05133.2275-1.30929,1.04993-1.68426,2.27317-1.57684a25.42243,25.42243,0,0,0,6.1349-.34513c1.60651-.24951,3.06755-.2986,3.81083,1.55147a.79658.79658,0,0,0,.91285.59c.45749-.09847.55514-.50381.67481-.88319.49324-1.56381.93906-1.89359,2.50439-1.8a29.16083,29.16083,0,0,0,6.0023-.2972c1.54518-.22755,2.997-.30385,3.70772,1.51925a.82449.82449,0,0,0,.95738.5269.84587.84587,0,0,0,.67455-.86329c.14172-1.45212,1.10827-1.73827,2.31531-1.70988a37.90034,37.90034,0,0,0,6.92662-.37633,2.302,2.302,0,0,1,2.79994,1.347c.19365.43712.49426.86088,1.07876.80843.66371-.05957.65633-.64561.737-1.08549a1.71544,1.71544,0,0,1,1.96946-1.50233,41.85555,41.85555,0,0,0,7.57743-.43987,1.95978,1.95978,0,0,1,2.28943,1.12843,1.44883,1.44883,0,0,0,1.87668.94844c1.28467-.30956,2.0482.20229,2.67234,1.42213,4.27916,8.36338,8.63673,16.68664,12.96927,25.02272,1.12849,2.17128,2.22861,4.358,3.399,6.50647a6.26848,6.26848,0,0,1,.77209,3.26064c-.04881,1.9655-.05745,3.93438.00213,5.89926.03494,1.15293-.36456,1.6236-1.56171,1.68632q-12.0372.63073-24.069,1.36408c-10.81059.65112-21.6184,1.34823-32.429,1.9992-8.10842.48826-16.22045.91681-24.32889,1.40451-10.85428.65285-21.706,1.34805-32.56008,2.00394-6.58266.39777-13.1687.73938-19.75147,1.1353-9.45927.56893-18.91638,1.17349-28.37548,1.74529-6.45187.39-12.90629.738-19.35826,1.12658-8.06436.48565-16.127.99954-24.19111,1.48981q-7.25821.44127-14.51858.8469c-2.09311.11955-4.20127.10815-6.276.36835a2.18889,2.18889,0,0,1-2.46242-1.37238c-4.69282-8.08836-9.304-16.22866-14.21246-24.18512-2.033-3.29551-3.30472-6.57-2.78831-10.44058A6.0614,6.0614,0,0,0,2.12,175.98223Zm245.718,18.65354a23.90653,23.90653,0,0,1,.01452-2.42937c.14429-1.31213-.42462-1.653-1.66068-1.56943-4.83652.32713-9.67836.57508-14.51727.86793q-12.22711.74-24.45325,1.49611c-4.92631.29672-9.85477.5576-14.78106.85457-8.1952.494-16.389,1.01238-24.58426,1.50476-6.40838.385-12.81865.73843-19.22725,1.12q-12.62032.75133-25.2394,1.52328-9.28571.55686-18.57223,1.09987-12.55449.754-25.1083,1.51962c-6.234.374-12.469.73085-18.70306,1.10474q-12.55467.753-25.10855,1.51908c-4.57731.27526-9.15446.555-13.73363.79558-.94342.04958-1.32227.42807-1.29648,1.371.04179,1.5285.07,3.06214-.00979,4.58765-.06252,1.19478.33127,1.63712,1.56634,1.55684,5.14244-.33427,10.29011-.587,15.43441-.894,8.239-.49169,16.47651-1.00769,24.71523-1.50369,4.8826-.29395,9.76687-.55991,14.64939-.855q12.227-.739,24.45288-1.49655c4.9261-.2969,9.85433-.55848,14.78043-.85548,8.19513-.4941,16.38881-1.01226,24.58406-1.50441,6.40829-.38484,12.81849-.73771,19.227-1.1191q12.62015-.75109,25.239-1.52324,9.28554-.55686,18.57191-1.09991,12.55427-.754,25.10768-1.52242c5.05611-.30981,10.1133-.60725,15.16543-.97314,1.105-.08,2.51766.44724,3.24735-.45529C248.28326,196.90881,247.73008,195.55733,247.83806,194.63577Zm-169.99031-3.4927-.33224.143a32.0987,32.0987,0,0,0-.75851,3.6882c-.24966,2.73175.63077,3.77978,2.748,3.64339q12.0259-.77466,24.05519-1.49636c6.53819-.39261,13.07932-.73629,19.61751-1.129q16.67124-1.0012,33.34013-2.04114c.60823-.03757,1.593.14,1.33933-.881-.31271-1.25846.1952-2.84218-1.26766-3.70485-.09624-.05675-.25862-.01451-.38813.00024-4.1255.46984-8.27419.588-12.415.82961q-12.61926.73628-25.23663,1.50472-7.51938.44594-15.0398.8744-10.396.60975-20.79171,1.22385C80.59944,193.92125,78.6068,193.75972,77.84775,191.14307Zm4.60764,1.52369c7.00911-.39627,13.59233-.75436,20.17369-1.1439,9.67514-.57264,19.34835-1.17781,29.02351-1.74979,6.62487-.39165,13.25247-.73688,19.877-1.13313,1.698-.10156,3.39009-.30814,5.08259-.48806.41363-.044.93029-.02453.76716-.73951a2.61466,2.61466,0,0,0-3.12888-2.20028c-1.72945.2544-3.46735.38664-5.21347.47774-4.79617.2502-9.59023.54157-14.38452.82711q-12.55134.74757-25.10191,1.50838c-5.22942.31632-10.45548.70344-15.68834.94367-4.9257.22613-9.83787.73105-14.77355.72782-.74435-.00049-.642.2716-.441.79293A3.15653,3.15653,0,0,0,82.45539,192.66676ZM3.53848,172.6685l-.27213.10823c0,2.65988.01987,5.32-.011,7.97952a4.61366,4.61366,0,0,0,.69729,2.47193Q11.483,196.0452,18.98816,208.877c.15232.2596.17654.69786.72209.66943,0-1.8058,0-3.59217,0-5.37855a2.93988,2.93988,0,0,0-.44873-1.35255Q12.408,189.625,5.55349,176.43521C4.8965,175.172,4.21086,173.9237,3.53848,172.6685Zm19.3893,21.58807-.35162.12c-.3312,1.47567-.7408,2.93928-.97016,4.43062-.20371,1.32453,1.20773,3.10568,2.34014,3.045,4.57441-.2452,9.14642-.535,13.72-.79565.67333-.03837.94385-.297.791-.996-.205-.9373-.38694-1.88252-.51494-2.83294-.12078-.89672-.57016-1.14349-1.437-1.01648a75.04793,75.04793,0,0,1-8.88073.5347C25.61573,196.80005,23.70616,196.70329,22.92778,194.25657ZM41.10146,193.195c-.71129,2.14066-1.31362,4.09217-.61539,6.244.33243,1.02448.71594,1.43519,1.79294,1.36355,4.56483-.30365,9.13274-.563,13.701-.81185.782-.0426.97092-.35881.80047-1.08517a16.82235,16.82235,0,0,1-.42322-2.44614c-.10143-1.23064-.748-1.464-1.85668-1.31575a75.47623,75.47623,0,0,1-8.08484.51425C44.26763,195.71273,42.12808,195.80214,41.10146,193.195Zm155.03181-21.42721c-.52438,0-1.04991.02223-1.57283-.00515-.80339-.04208-.96238.12361-.60981.95856.81238,1.92385,2.37215,2.11105,4.107,2.016,4.40373-.24124,8.81051-.44387,13.20875-.76283a87.20591,87.20591,0,0,0,9.13669-.719c.31529-.05648.74852.05521.82315-.44974.14416-.97548-1.58822-2.68235-2.61772-2.54986C211.14717,171.21593,203.61674,171.13746,196.13327,171.76777ZM24.75155,190.97524c4.70986-.24738,9.42376-.43657,14.12807-.76354a76.21741,76.21741,0,0,0,8.7436-.70335c.31291-.05831.7548.04964.76085-.49479.01191-1.07043-1.66474-2.63922-2.70608-2.48464-4.54711.675-9.13944.70634-13.71437.97908-3.44344.20529-6.88117.54483-10.33575.51549-.78848-.00669-.84189.23114-.56527.93787C21.74457,190.70368,23.107,191.08246,24.75155,190.97524Zm34.52821,1.533a9.37477,9.37477,0,0,0-.47153,5.80792c.32714,1.08549.7555,1.4995,1.8872,1.41423,3.82242-.288,7.6505-.50062,11.476-.74837,3.101-.20084,3.042-.19461,2.51283-3.22441-.21872-1.25239-.74082-1.51687-1.94157-1.3742a69.432,69.432,0,0,1-9.91621.46908,2.909,2.909,0,0,1-2.8635-1.68427C59.84365,192.90819,59.73258,192.59305,59.27976,192.50824Zm136.16808-30.943c-.82847,0-1.657-.00668-2.48532.00349-.30583.00375-.62414-.01745-.52911.49169a3.3009,3.3009,0,0,0,2.84382,2.47765c.69623.03021,1.39663.0345,2.09229-.00274,4.74313-.2539,9.4866-.50461,14.22744-.79674,1.30225-.08024,2.59691-.29118,3.893-.45818.27322-.0352.64389.04022.64738-.44542.00743-1.03788-1.69131-2.66371-2.69763-2.51935C207.47242,161.17162,201.4385,161.03969,195.44784,161.56524Zm-34.658,24.73555c-.31415,1.44036-.64682,2.877-.934,4.32275A4.21978,4.21978,0,0,0,160.02,192.565a1.33378,1.33378,0,0,0,1.52373,1.11328c3.26609-.19943,6.53334-.38,9.80027-.56587.78909-.0449,1.07915-.46385.93652-1.22209-.16938-.90063-.34285-1.80064-.49843-2.70369a.82338.82338,0,0,0-1.09462-.78027,16.87613,16.87613,0,0,1-2.72925.29787C165.38332,188.68983,162.4518,189.61958,160.78984,186.30079Zm27.8-1.6359a8.82434,8.82434,0,0,0-.18548,6.82634c.18567.56429.58778.519,1.04935.49193,2.65864-.15608,5.32756-.19844,7.97559-.45738,3.07474-.30068,2.73839.27474,2.21936-2.78579-.05839-.34432-.153-.68408-.18905-1.0303-.08943-.85879-.57142-1.06936-1.36325-.9389a30.43594,30.43594,0,0,1-6.14015.23676,2.79213,2.79213,0,0,1-2.67747-1.54473C189.13485,185.16872,189.01565,184.80948,188.58981,184.66489Zm41.59245-2.51673a8.40581,8.40581,0,0,0-.54029,6.05471c.2924.964.6681,1.3776,1.70275,1.2997,2.9158-.21953,5.83546-.43413,8.7572-.508,1.30937-.0331,1.62019-.45922,1.24974-1.64986a11.10858,11.10858,0,0,1-.34162-1.93247c-.1086-.876-.41915-1.27925-1.442-1.11944a38.79707,38.79707,0,0,1-4.30478.3129C233.18473,184.69578,231.15082,184.64179,230.18226,182.14816Zm-27.78326,1.7185a8.60581,8.60581,0,0,0-.38034,6.06847c.27024.86864.65514,1.23282,1.55344,1.17891,2.393-.14361,4.79113-.20876,7.18263-.372,3.31855-.22654,3.26835-.24322,2.61663-3.57513-.21471-1.09765-.71322-1.36323-1.70762-1.18283a31.029,31.029,0,0,1-5.74309.21709,2.91739,2.91739,0,0,1-2.87735-1.66494C202.91981,184.28136,202.84437,183.9421,202.399,183.86666Zm13.8871-1.091a9.66142,9.66142,0,0,0-.4787,6.21337c.27254.96428.667,1.39728,1.7038,1.31787,2.73915-.20982,5.48284-.364,8.22609-.51572,2.01659-.11151,2.01753-.09417,1.69069-2.06824-.44736-2.70206-.44366-2.501-3.19726-2.45027C221.43686,185.32415,218.13832,186.66762,216.2861,182.7757Zm-40.672,10.02146c3.04454-.16381,6.08842-.34132,9.13392-.48451,1.17378-.05519,1.66642-.49223,1.26838-1.71934a13.58026,13.58026,0,0,1-.37861-2.05426c-.12765-.80043-.51739-1.05827-1.362-.93458a26.07051,26.07051,0,0,1-4.16213.337c-1.8777-.02936-3.94333.224-4.92284-2.06086-.14308-.33375-.45469-.44524-.63881.02766a8.97078,8.97078,0,0,0,.07291,6.49792C174.78876,192.86008,175.21187,192.86608,175.6141,192.79716Zm18.81475-15.23576c-1.13711,0-1.9658.00012-2.79451,0-.42952-.00008-.649.10626-.4891.62536a2.98561,2.98561,0,0,0,3.06821,2.34574c2.091-.02881,4.18681-.08678,6.26953-.26257,2.95183-.24914,5.93335-.12564,8.85778-.69556.29528-.05755.75842.08656.77435-.47347.03033-1.06712-1.648-2.645-2.69375-2.487C203.012,177.28011,198.55019,177.17725,194.42885,177.5614ZM21.85769,185.28494c4.02146-.20178,7.72219-.3684,11.42-.58484,1.0842-.06346,2.16134-.25984,3.239-.41429.2884-.04133.61591-.06435.61134-.51515a2.99057,2.99057,0,0,0-2.73439-2.40479c-1.386.14664-2.77287.29614-4.16307.3889-3.73955.2495-7.47745.55678-11.22962.52711-.82174-.0065-.97039.21885-.63127,1.00283A2.97174,2.97174,0,0,0,21.85769,185.28494ZM4.77753,170.15468c-1.36877-.09642-.92231.6025-.57675,1.26743q5.61719,10.80847,11.23233,21.618c1.571,3.02122,3.15533,6.03555,4.72711,9.05638.31676.60878.81072,1.08719,1.44825.71538.5923-.34543-.00331-.85918-.19108-1.2244-3.4334-6.67824-6.93363-13.32244-10.32555-20.02153-1.85136-3.65647-3.93244-7.20044-5.4964-10.99874C5.40372,170.10159,5.09652,170.17376,4.77753,170.15468Zm241.54021,19.341c1.43.00464.76548-.77628.47228-1.342q-4.6439-8.96071-9.31365-17.908-3.32805-6.39489-6.64959-12.79315c-.311-.60046-.73747-1.13449-1.41362-.73961-.59727.34881-.0395.86862.15407,1.24639,3.04312,5.93919,6.11315,11.8646,9.16291,17.8004,2.25368,4.38642,4.50209,8.77576,6.70669,13.18686A.79448.79448,0,0,0,246.31774,189.49569Zm-40.69517-20.75c1.61109,0,3.22571.06771,4.83246-.016,2.35062-.12251,4.69565-.35248,7.04288-.539.95645-.076,1.18973-.40266.63319-1.3128-1.09993-1.79868-1.21074-1.89756-3.35645-1.59027-.56062.08029-1.12418.1497-1.68883.19056-3.48053.25187-6.96151.5116-10.45348.51517-.91392.00094-.98848.23554-.6377,1.07589C202.70371,168.76794,204.05544,169.02849,205.62257,168.74567ZM20.255,180.06386c2.35308-.10643,4.70817-.1813,7.05847-.33121,1.39037-.08868,2.774-.28893,4.15876-.45508.32856-.03942.7196-.01979.64773-.5823a2.787,2.787,0,0,0-3.03328-2.33235c-.34444.05475-.68985.10562-1.0363.14529-3.86049.44211-7.74628.47286-11.61846.724-.36631.02375-1.11715-.34791-.94686.549a2.89939,2.89939,0,0,0,2.80636,2.27731C18.94528,180.07927,19.60038,180.0621,20.255,180.06386ZM65.62581,193.713c2.53729-.10945,5.28716-.19575,8.01664-.5703.50181-.06886,1.13743-.01761.8203-.89962-.67479-1.87669-1.38826-2.31782-3.35533-2.01021-.43078.06737-.86439.13194-1.29905.15657-2.91936.1654-5.83963.31505-8.75883.48315-.38035.02191-.994-.17509-.7462.63694a2.85912,2.85912,0,0,0,2.88355,2.19964C63.9288,193.73124,64.67192,193.713,65.62581,193.713ZM29.26962,195.574a71.35613,71.35613,0,0,0,7.83467-.58139c.48573-.06885,1.00157-.074.729-.85514-.6386-1.8299-1.4342-2.33165-3.33648-2.028-.34458.055-.69245.09221-1.04.12538-2.95684.2822-5.9208.44967-8.89036.48387-.88515.0102-1.08453.25609-.66643,1.08648a2.6641,2.6641,0,0,0,2.74955,1.78078C27.51843,195.52138,28.396,195.574,29.26962,195.574Zm17.67724-1.084v-.02058c.30475,0,.61032.01456.91414-.0023,2.43256-.135,4.867-.22451,7.29036-.51647,1.14341-.13775,1.30224-.51427.70072-1.48929-1.019-1.65167-1.13538-1.74773-3.16227-1.43262-.47214.0734-.94942.12647-1.42635.15432-2.77963.16231-5.56015.3094-8.33958.47488-.43749.02605-1.06853-.128-.83762.72381a2.70112,2.70112,0,0,0,2.64022,2.10359C45.46574,194.51137,46.20667,194.49,46.94686,194.49Zm63.73639-11.93433c-1.13181,0-1.91707-.00582-2.70218.00286-.31534.0035-.61818.00419-.52563.50168a3.66549,3.66549,0,0,0,2.31814,2.42528,28.17019,28.17019,0,0,0,7.16356-.391c.2775-.04889.62479-.0318.593-.51049a2.97485,2.97485,0,0,0-2.89444-2.37548A26.84766,26.84766,0,0,1,110.68325,182.55564Zm11.45014-11.54884c-1.05676,0-1.7979-.00818-2.53873.00364-.34168.00545-.73131-.0492-.61339.5431a3.34913,3.34913,0,0,0,2.33821,2.38852,28.36348,28.36348,0,0,0,7.157-.41883c.23331-.04058.53808.01192.55221-.3919a3.1502,3.1502,0,0,0-2.78911-2.52017A25.58127,25.58127,0,0,1,122.13339,171.0068Zm-78.7413-.2623c-1.03705,0-1.77887-.00727-2.52043.00357-.298.00436-.63485-.03487-.57955.466a3.80126,3.80126,0,0,0,2.28985,2.45432,28.19589,28.19589,0,0,0,7.29311-.41681c.24883-.043.518-.048.502-.44358a3.07472,3.07472,0,0,0-2.98246-2.42839A24.00432,24.00432,0,0,1,43.39209,170.7445ZM223.1654,159.98732c-1.03927,0-1.7369-.00986-2.43406.0041-.356.00712-.83368.05749-.57109.56524.52792,1.02079.9012,2.25948,2.34874,2.36867a28.88765,28.88765,0,0,0,7.02681-.42626c.297-.05041.61545-.0612.58855-.5189a2.93357,2.93357,0,0,0-3.00781-2.36814A23.61182,23.61182,0,0,1,223.1654,159.98732Zm-99.40247.79571c-1.107,0-1.84823-.00856-2.58908.00384-.338.00565-.868.00077-.58248.526.54291.9987.85823,2.30281,2.312,2.41061a27.91025,27.91025,0,0,0,7.15745-.42183c.2395-.04425.53715-.01015.57092-.38992.08355-.93974-1.71029-2.67485-2.68279-2.533A25.68089,25.68089,0,0,1,123.76293,160.783Zm.47689,20.96863c-.98006,0-1.67659-.00646-2.37291.00291-.31594.00425-.609.01575-.53888.50162a3.41353,3.41353,0,0,0,2.45186,2.43838,28.04621,28.04621,0,0,0,6.88707-.424c.29025-.04981.62385-.05387.65216-.48609a3.02664,3.02664,0,0,0-2.68982-2.465A26.44179,26.44179,0,0,1,124.23982,181.75166Zm96.86464-23.72457a39.10338,39.10338,0,0,0,5.54787-.48219c.279-.04725.65565.03826.77073-.34945.18849-.63506-1.599-2.75685-2.31312-2.6511a39.48677,39.48677,0,0,1-7.1607.4541c-.647-.02231-.7045.2066-.46077.79117A3.17441,3.17441,0,0,0,221.10446,158.02709Zm-14.59492-2.2157c-.7834,0-1.56687-.00662-2.35013.00326-.31174.00394-.61873.02371-.59328.48538a3.762,3.762,0,0,0,2.159,2.41827,27.25778,27.25778,0,0,0,7.27494-.382c.24364-.0428.53246-.05214.58048-.40355.11577-.8475-1.64156-2.64642-2.52619-2.53895A30.44407,30.44407,0,0,1,206.50954,155.81139Zm-41.91387,28.81932c-.83591,0-1.53288-.01094-2.2292.00548-.27278.00643-.65-.10476-.59663.424a3.54663,3.54663,0,0,0,2.54012,2.51794,27.82211,27.82211,0,0,0,6.88943-.41577c.27417-.04694.63275.0104.634-.46862a2.98847,2.98847,0,0,0-2.82878-2.45121A24.82289,24.82289,0,0,1,164.59567,184.63071ZM43.99744,180.95577c-.91629,0-1.61371-.00267-2.3111.00106-.38241.002-.70243.02421-.53952.58536a3.19655,3.19655,0,0,0,2.81086,2.36943,29.30616,29.30616,0,0,0,6.63581-.44245c.29221-.045.62175-.01626.58563-.49662a2.96693,2.96693,0,0,0-2.97972-2.414A24.038,24.038,0,0,1,43.99744,180.95577Zm69.18492-4.169c-.7838,0-1.56773-.00794-2.35135.004-.30091.00459-.62882-.01581-.56062.48194a3.69645,3.69645,0,0,0,2.30725,2.43387,26.15332,26.15332,0,0,0,7.01939-.3759c.27877-.0515.6285-.04337.67347-.47455.09612-.92151-1.5941-2.61627-2.5413-2.48034A27.04424,27.04424,0,0,1,113.18236,176.78674Zm-74.08907-.79863c-1.05061,0-1.74708-.01081-2.443.00458-.34511.00763-.72194-.01394-.6313.5556a3.30129,3.30129,0,0,0,2.48276,2.38324,28.19161,28.19161,0,0,0,6.88466-.4261c.27826-.04808.63255-.01056.61858-.484a2.95,2.95,0,0,0-2.85183-2.42922A25.53336,25.53336,0,0,1,39.09329,175.98811Zm88.62869,3.03334a42.11361,42.11361,0,0,0,5.65687-.50209c.28542-.04933.65279.00553.76645-.37024.19921-.65858-1.57965-2.75549-2.31914-2.63421a37.435,37.435,0,0,1-7.03219.46688c-.73174-.0186-.7487.28272-.4989.89714A3.03514,3.03514,0,0,0,127.722,179.02145ZM40.661,165.76387c-1.05784,0-1.75488-.00944-2.45148.00392-.35526.00682-.83742.05582-.57184.5613.51268.97578.84689,2.21341,2.21373,2.34683a26.40933,26.40933,0,0,0,7.14948-.38532c.28525-.05.62008-.0572.60533-.51436a2.96257,2.96257,0,0,0-2.88452-2.37646A25.67073,25.67073,0,0,1,40.661,165.76387Zm85.52443.00667c-.73978,0-1.4797-.00878-2.21925.00382-.35261.006-.83854.04761-.60335.55118.4706,1.0076.84995,2.23507,2.18861,2.36347a26.38121,26.38121,0,0,0,7.14455-.385c.26844-.04767.63481-.00865.62864-.4839a3.04083,3.04083,0,0,0-2.85211-2.41645A26.7539,26.7539,0,0,1,126.18538,165.77054Zm11.21838-5.79039c-1.023,0-1.71951-.00769-2.41572.00314-.36591.00568-.70579.01718-.56241.58383a3.21188,3.21188,0,0,0,2.664,2.36381,27.683,27.683,0,0,0,6.62538-.42622c.28182-.04749.63146-.01208.67771-.45123.10211-.96938-1.64663-2.66082-2.64334-2.51149A26.93908,26.93908,0,0,1,137.40376,159.98015Zm2.53124,4.98245c-.94437,0-1.64121-.00565-2.33792.00246-.33129.00386-.59893.04136-.489.52405a3.368,3.368,0,0,0,2.638,2.40486,28.198,28.198,0,0,0,6.88953-.42779c.24756-.03753.52217-.029.53712-.41606a3.15722,3.15722,0,0,0-2.80968-2.51551A25.98537,25.98537,0,0,1,139.935,164.9626Zm-4.6677,5.236c-.73863.16931-1.92109-.442-2.34593.27432-.35532.59908.50842,1.467,1.02672,2.08682a2.28768,2.28768,0,0,0,1.68753.5873,29.14578,29.14578,0,0,0,6.49539-.42066c.28074-.04165.63409-.0018.679-.44477.09836-.96869-1.64619-2.657-2.64161-2.51855A30.58663,30.58663,0,0,1,135.2673,170.1986Zm-81.3916-5.25246c-.78848.15884-1.98337-.42583-2.39817.24515-.35031.56666.57529,1.43038,1.05849,2.0811A2.2299,2.2299,0,0,0,54.3347,167.9a29.34068,29.34068,0,0,0,6.50767-.43272c.28383-.04142.63638.00147.62037-.47428a3.04058,3.04058,0,0,0-2.9791-2.44217A24.27937,24.27937,0,0,1,53.8757,164.94614ZM233.8042,180.446a8.06106,8.06106,0,0,1-2.26766.02724c-.29157-.01533-.63889-.06675-.6034.43426.05139.726,1.37736,2.37012,2.13633,2.44874a26.00577,26.00577,0,0,0,7.41448-.35986c.23377-.043.52912-.02582.52947-.426a3.12729,3.12729,0,0,0-2.70561-2.474A28.04134,28.04134,0,0,1,233.8042,180.446ZM57.15261,169.94485c-1.07052,0-1.76652-.00476-2.4624.00179-.41582.00391-.72882.13839-.48045.62452.57821,1.13178,1.1367,2.253,2.68677,2.32759a34.45184,34.45184,0,0,0,6.62344-.44067c.29554-.04291.61736-.05206.62344-.49679a2.98984,2.98984,0,0,0-2.82389-2.4329A28.85466,28.85466,0,0,1,57.15261,169.94485Zm54.20872-5.37807a23.58216,23.58216,0,0,0,4.55872-.36028c.3245-.04319.86014.03008.8269-.59291-.04995-.93606-1.5079-2.44052-2.3984-2.3723a41.76292,41.76292,0,0,1-7.16769.35487c-.31965-.03033-.61019-.00069-.493.50356a3.19144,3.19144,0,0,0,2.97355,2.46739C110.22781,164.58679,110.79547,164.57034,111.36133,164.56678Zm-83.25574,4.96368a22.17568,22.17568,0,0,0,4.09087-.2444,2.62782,2.62782,0,0,0,.64442-.094c.36023-.1348.95313-.00425.8638-.71a2.7228,2.7228,0,0,0-2.7194-2.2453,40.80063,40.80063,0,0,1-6.63921.34916c-.272-.01668-.65239-.117-.63861.39661a3.60158,3.60158,0,0,0,2.49223,2.53835C26.89317,169.57031,27.593,169.53046,28.10559,169.53046Zm25.84261,8.71142c1.73216-.17857,3.465-.35147,5.19586-.54149.27737-.03044.65395.05512.7363-.36845.16416-.84425-1.69873-2.75784-2.60638-2.61108a33.82844,33.82844,0,0,1-6.77105.45193c-.8924-.0358-.72313.30057-.49018.92777C50.71952,178.00347,52.2506,178.21039,53.9482,178.24188ZM29.43292,171.5387a10.53632,10.53632,0,0,1-2.36384.02023c-.26053-.00142-.66292-.15368-.66317.36908a4.14277,4.14277,0,0,0,2.21474,2.52936,26.62191,26.62191,0,0,0,7.28755-.36359c.27707-.051.62366-.04022.595-.51459a3.032,3.032,0,0,0-2.65965-2.36745A34.65907,34.65907,0,0,1,29.43292,171.5387Zm79.8895,3.25076a24.81768,24.81768,0,0,0,5.11365-.40831c.29-.04749.76.03814.72708-.52725-.05811-.99681-1.54749-2.475-2.51635-2.3855a41.77628,41.77628,0,0,1-7.03506.351c-.31477-.024-.615-.01372-.52119.49155a3.31265,3.31265,0,0,0,2.83481,2.474C108.49085,174.81165,109.05866,174.78946,109.32242,174.78946Zm28.31476,6.16418c-.65294,0-1.30607-.0097-1.95873.004-.33438.007-.58315.08032-.48834.54531a3.17291,3.17291,0,0,0,2.39228,2.281,27.214,27.214,0,0,0,7.01415-.3332c.31108-.03874.59711-.08245.56484-.5342a2.87747,2.87747,0,0,0-2.97988-2.3837A28.92146,28.92146,0,0,1,137.63718,180.95364Zm-36.51931-.38716a23.57114,23.57114,0,0,0,4.5562-.35865c.31913-.04223.8691.04041.81738-.59135a2.96426,2.96426,0,0,0-2.80575-2.35706,33.40763,33.40763,0,0,1-6.63875.3499c-.32362-.03474-.74765-.11714-.61331.5083a3.23236,3.23236,0,0,0,2.85478,2.445C99.8976,180.589,100.50886,180.56707,101.11787,180.56648Zm91.54607-10.75394a23.21579,23.21579,0,0,0,4.54979-.35276c.34873-.0465.97368.048.87471-.67194a2.72121,2.72121,0,0,0-2.83348-2.277,34.27388,34.27388,0,0,1-6.49957.34425c-.3327-.03175-.73311-.07049-.63836.52173a3.26849,3.26849,0,0,0,2.72025,2.42882C191.4453,169.83468,192.05584,169.81069,192.66394,169.81254Zm-78.61382-.26009a23.6927,23.6927,0,0,0,4.55092-.36376c.335-.04574.85017-.00177.85369-.59034a2.96,2.96,0,0,0-2.6516-2.3626,37.18848,37.18848,0,0,1-6.7637.35446c-.3643-.03624-.70827-.0043-.57045.56688a3.12826,3.12826,0,0,0,2.88385,2.39365C112.91834,169.57012,113.48508,169.55395,114.05012,169.55245Zm64.14349,14.27537c-.65254,0-1.30527-.00955-1.95751.0044-.286.00613-.79419.00829-.58222.42089.48009.9345.75547,2.13223,2.0339,2.36238a23.96208,23.96208,0,0,0,7.39378-.28378c.329-.04276.5657-.16517.53575-.58082a2.79113,2.79113,0,0,0-2.88146-2.32717A27.29108,27.29108,0,0,1,178.19361,183.82782Zm-123.606,2.09559c-.652,0-1.3041-.00546-1.956.00266-.26489.00329-.51969.019-.49072.41485a3.77192,3.77192,0,0,0,2.3093,2.39915,27.651,27.651,0,0,0,7.13475-.30728c.29116-.04021.62776-.02662.62892-.48038a3.09278,3.09278,0,0,0-2.831-2.47945A32.51129,32.51129,0,0,1,54.58757,185.92341Zm43.48309.40588a23.1672,23.1672,0,0,0,4.684-.33655c.35315-.04659.96631.05015.87841-.67a2.7563,2.7563,0,0,0-2.82431-2.28689,32.55744,32.55744,0,0,1-6.4992.35958c-.343-.038-.73422-.05857-.65152.5163a3.28737,3.28737,0,0,0,2.5887,2.41037C96.89724,186.36145,97.55211,186.32929,98.07066,186.32929Zm42.36824-11.158c-.65361,0-1.30746-.01045-1.96072.00485-.2835.00664-.64369-.07044-.5584.45792a3.4772,3.4772,0,0,0,2.47763,2.37469,28.802,28.802,0,0,0,7.02277-.32712c.29426-.03945.61981-.02453.57227-.50566a2.97421,2.97421,0,0,0-3.1324-2.38556A26.23384,26.23384,0,0,1,140.4389,175.1713Zm12.92939-11.01338c-.609,0-1.21811-.00871-1.82682.00371-.29978.00612-.62887-.01782-.58119.47091a3.58517,3.58517,0,0,0,2.20478,2.33015,27.58756,27.58756,0,0,0,7.1406-.29331c.30131-.04228.62328-.06249.65087-.48493a2.96126,2.96126,0,0,0-2.78941-2.47428A31.29929,31.29929,0,0,1,153.36829,164.15792Zm76.74461,8.756c1.3013-.12638,2.992-.28307,4.6805-.46124.31833-.03359.74762.03951.79013-.47783.07644-.93039-1.6181-2.65394-2.5531-2.5092a35.83411,35.83411,0,0,1-6.64081.46357c-.90949-.02908-.845.3438-.5674,1.04691C226.55605,172.8346,228.13377,172.85112,230.1129,172.91394ZM60.46355,182.99625a20.52181,20.52181,0,0,0,3.786-.32108c.33045-.06563.7319-.02635.7211-.54658a2.87444,2.87444,0,0,0-2.83722-2.41589,37.54765,37.54765,0,0,1-5.19131.4633c-.65464.00834-1.70278-.38755-1.88553.27039-.20128.72467.59508,1.46806,1.11087,2.10525a1.65849,1.65849,0,0,0,1.19768.43058A11.618,11.618,0,0,0,60.46355,182.99625Zm120.81124-1.63893,0-.0552c.78494,0,1.57166.03291,2.35425-.00983a16.8258,16.8258,0,0,0,2.07711-.2557c.391-.07087.95122-.02772.89462-.69439a2.77106,2.77106,0,0,0-2.82224-2.28091,31.58572,31.58572,0,0,1-6.64622.37327c-.31918-.03522-.62276-.04664-.53555.46246a3.33926,3.33926,0,0,0,2.71458,2.45456C179.96438,181.38352,180.62021,181.35732,181.27479,181.35732Zm2.76567-5.76832a21.03385,21.03385,0,0,0,4.54911-.35767c.35015-.05621.96887.03541.81887-.70593a2.70034,2.70034,0,0,0-3.00346-2.22163,30.494,30.494,0,0,1-6.37043.36245c-.3881-.03872-.69578-.01708-.56779.5508a3.00074,3.00074,0,0,0,2.87726,2.372C182.90931,175.60877,183.47588,175.59224,184.04046,175.589Zm10.3138-16a23.20344,23.20344,0,0,0,4.42227-.34649c.36813-.04752.96279.017.9181-.6624a2.83516,2.83516,0,0,0-2.69776-2.29991,36.928,36.928,0,0,1-6.764.3793c-.3186-.02857-.62177-.03673-.54261.46461a3.353,3.353,0,0,0,2.70577,2.456C193.04772,159.61175,193.70225,159.58578,194.35426,159.589ZM87.37241,181.36319a20.79515,20.79515,0,0,0,4.43553-.32c.34989-.05169.84746-.00382.81926-.60934-.04348-.93385-1.50513-2.46221-2.38356-2.38135a56.15,56.15,0,0,1-6.91507.49567c-.35155-.011-.71292.03407-.615.58733a3.00526,3.00526,0,0,0,2.43459,2.22164C85.88828,181.39653,86.63225,181.36471,87.37241,181.36319Zm135.3049-16.5562c.89974,2.138,1.34338,2.77,2.30881,2.85373a28.04265,28.04265,0,0,0,7.295-.338c.2597-.0456.63567-.02333.59746-.51313a3.07354,3.07354,0,0,0-2.77994-2.39362A38.40551,38.40551,0,0,1,222.67731,164.807Zm-39.247.57272a21.84023,21.84023,0,0,0,4.30486-.32095c.3559-.05351.84751.00464.88044-.56509.04328-.749-1.47135-2.49034-2.20336-2.43638a66.49817,66.49817,0,0,1-7.177.50075c-.40976-.014-.64819.14991-.51751.65392a2.8087,2.8087,0,0,0,2.74882,2.16653C182.12091,165.3997,182.77654,165.38212,183.43031,165.37971Zm-32.62854-6.19937c-.65505,0-1.3103-.00947-1.96508.00414-.311.00646-.62166.0293-.58073.497a3.505,3.505,0,0,0,2.11339,2.28155,27.79625,27.79625,0,0,0,7.29977-.288c.31311-.047.5956-.1056.56109-.5506a2.82435,2.82435,0,0,0-2.99962-2.35709A28.91016,28.91016,0,0,1,150.80177,159.18034ZM72.89241,171.978l-.00013-.05065c.698,0,1.39812.03448,2.09332-.00941.73842-.04661,1.47363-.157,2.20722-.2609.321-.04548.74754.03617.79317-.47751.06658-.74962-1.52877-2.61728-2.25788-2.52949a46.84388,46.84388,0,0,1-7.17126.49916c-.41963-.014-.64312.147-.50186.64993a2.84931,2.84931,0,0,0,2.61559,2.17118C71.40889,172.01278,72.15165,171.978,72.89241,171.978Zm148.93431,12.26887.00008-.05711c.78511,0,1.57224.03491,2.35472-.01044a15.07034,15.07034,0,0,0,2.0749-.27351c.33853-.06766.86425.03312.89242-.546a3.07179,3.07179,0,0,0-2.59873-2.427,41.62937,41.62937,0,0,1-6.78094.44067c-.39255-.02522-.69348.04206-.5775.58377a2.99385,2.99385,0,0,0,2.67111,2.28516C220.51647,184.26793,221.172,184.24684,221.82672,184.24684ZM180.53354,160.3862a23.03023,23.03023,0,0,0,4.43824-.30163c.3791-.04677.82775-.05613.86993-.597.06741-.8647-1.44842-2.49728-2.32692-2.41385a54.61929,54.61929,0,0,1-7.04687.48629c-.30543-.01049-.62038-.00237-.54083.49546a3.094,3.094,0,0,0,2.513,2.32318C179.13639,160.41906,179.837,160.38615,180.53354,160.3862Zm-13.64718.81824a22.96792,22.96792,0,0,0,4.44345-.32477c.32455-.053.74324-.00614.74054-.53132-.005-.96553-1.538-2.56815-2.46012-2.46259a47.24287,47.24287,0,0,1-6.78608.49149c-.41339-.01231-.80247.036-.65041.66344a2.81942,2.81942,0,0,0,2.62344,2.15812C165.53854,161.2298,166.28225,161.20444,166.88636,161.20444Zm.70592,20.96547a22.88016,22.88016,0,0,0,4.41529-.32562c.322-.04814.74813-.00433.83324-.46249.12427-.66906-1.52914-2.59517-2.24873-2.53677a57.50015,57.50015,0,0,1-7.27422.49c-.32622-.01482-.58952.04558-.4759.53022a3.07111,3.07111,0,0,0,2.79565,2.301C166.28874,182.19024,166.94149,182.17041,167.59228,182.16991Zm-15.862-9.91408a23.31535,23.31535,0,0,0,4.16569-.33767c.32422-.06077.74433.01.75623-.51251.02044-.89653-1.58633-2.60422-2.4425-2.48767a41.34336,41.34336,0,0,1-6.90308.48772c-.59862-.01907-.79188.244-.50586.81752.59027,1.18373,1.27406,2.19239,2.841,2.04365C150.332,172.20135,151.03372,172.25583,151.73023,172.25583Zm13.64619-.82563V171.351c.87042,0,1.7421.02823,2.61082-.01009a14.21017,14.21017,0,0,0,1.68094-.22923c.32273-.05342.74906.02606.82124-.45863.10336-.69405-1.53032-2.61712-2.24639-2.54851a52.10178,52.10178,0,0,1-7.28742.489c-.32818-.01455-.59132.04237-.47466.52948a3.07845,3.07845,0,0,0,2.80526,2.30265C163.982,171.45159,164.67964,171.4302,165.37642,171.4302Zm-78.5666-.261a21.93053,21.93053,0,0,0,4.175-.31742c.32338-.05393.75185.02985.837-.44725.13951-.78192-1.52674-2.6478-2.3644-2.56037a50.81081,50.81081,0,0,1-6.91677.49495c-.43691-.01406-.77337.09248-.60487.69794A2.76671,2.76671,0,0,0,84.583,171.161C85.32454,171.18983,86.06807,171.1662,86.80982,171.16925Zm146.29593,7.07756a22.46982,22.46982,0,0,0,4.28425-.317c.36829-.06016.83814-.01846.86251-.579.04-.92045-1.5328-2.52661-2.46085-2.42614a47.465,47.465,0,0,1-6.88134.48224c-.49443-.0184-.71941.14938-.5194.71518a2.73126,2.73126,0,0,0,2.89048,2.12432C231.88943,178.26238,232.49821,178.24905,233.10575,178.24681Zm-62.42144-1.84021a22.42512,22.42512,0,0,0,4.09145-.32524c.34039-.05177.73869-.06159.81214-.51012.13733-.8385-1.49448-2.58474-2.407-2.49185a49.37223,49.37223,0,0,1-6.91743.48186c-.62936-.02435-.75226.25438-.48076.81876.60743,1.26272,1.382,2.22184,2.98517,2.0369A18.46867,18.46867,0,0,1,170.68431,176.4066Zm-88.37575.008v-.08628c.87339,0,1.748.02817,2.61972-.01008a13.53392,13.53392,0,0,0,1.687-.22964c.36672-.063.84293-.01978.84238-.59926-.00093-.9791-1.537-2.50678-2.5041-2.39916a45.92044,45.92044,0,0,1-6.78884.478c-.59369-.022-.81015.20351-.51882.79857.60764,1.24109,1.32812,2.26992,2.95972,2.05931A13.40187,13.40187,0,0,1,82.30856,176.41461Zm-8.54484,5.77686.001.02893c.95521-.04576,1.9116-.0752,2.86513-.14418a14.09105,14.09105,0,0,0,1.417-.21747c.33709-.05938.71489-.0719.72018-.57058.00957-.9014-1.46265-2.5223-2.32006-2.42389a47.10656,47.10656,0,0,1-7.01425.48752c-.47434-.01646-.7352.12526-.52347.70958a2.75582,2.75582,0,0,0,2.89806,2.12717C72.459,182.20615,73.11158,182.19147,73.76372,182.19147ZM169.678,166.19525a21.78192,21.78192,0,0,0,4.28408-.32108c.33361-.06463.72839-.04573.79067-.51474.10487-.78973-1.446-2.57964-2.25548-2.491a49.93588,49.93588,0,0,1-7.14462.49307c-.41882-.01428-.64183.13519-.49.64256a2.84321,2.84321,0,0,0,2.859,2.188C168.37319,166.21125,169.02583,166.19525,169.678,166.19525Zm38.60344,18.87041,0-.08461c.82966,0,1.66064.02852,2.48851-.00989a13.98,13.98,0,0,0,1.687-.22844c.36441-.06206.84114-.00238.82845-.60074-.02088-.98523-1.53783-2.51107-2.4917-2.40159a46.39357,46.39357,0,0,1-6.78828.48318c-.57171-.01838-.79461.17861-.53335.80052a2.6837,2.6837,0,0,0,2.97411,2.03936C207.0576,185.07726,207.66965,185.06566,208.28142,185.06566ZM84.04087,166.1636l.00117.05719c.95529-.04723,1.91178-.07829,2.86538-.14852a12.82441,12.82441,0,0,0,1.41708-.21935c.38543-.07243.79648-.11791.69521-.70769a2.61852,2.61852,0,0,0-3.08961-2.216,40.2686,40.2686,0,0,1-4.93095.43538c-.62273.01392-1.55229-.37473-1.80557.22994-.27834.6645.52389,1.29177.88679,1.915a1.475,1.475,0,0,0,1.35194.64939C82.30151,166.17636,83.17131,166.1636,84.04087,166.1636Zm-66.55113,9.176a23.99729,23.99729,0,0,0,4.28947-.33238c.34941-.042.84134-.00447.848-.58923a2.98045,2.98045,0,0,0-2.47476-2.40213,55.52616,55.52616,0,0,1-6.75967.48207c-.57344-.01549-.82372.20155-.5456.79831.56258,1.20712,1.25751,2.1994,2.81808,2.05187C16.22579,175.29514,16.79555,175.33962,17.48974,175.33962Zm78.55892.242,0-.04888c.78375,0,1.56931.03317,2.35068-.00991a17.7217,17.7217,0,0,0,2.0739-.2568c.34968-.06122.84294-.01286.8191-.61218-.0397-.99772-1.53529-2.47256-2.5103-2.37475a56.744,56.744,0,0,1-6.77078.48987c-.34121-.00663-.7228.00462-.61916.5719a3.04591,3.04591,0,0,0,2.43519,2.23169C94.56494,175.61969,95.308,175.58163,96.04866,175.58163Zm-27.32983,1.6453a22.01142,22.01142,0,0,0,4.16315-.32846c.34425-.07115.71574-.0907.7359-.57031.0362-.862-1.49664-2.53535-2.32919-2.43141a43.29625,43.29625,0,0,1-7.03041.47965c-.46772-.01792-.75684.07683-.52479.68469a2.81255,2.81255,0,0,0,3.02444,2.162C67.41131,177.23731,68.06524,177.22541,68.71883,177.22693Zm2.32762,10.73323a22.49554,22.49554,0,0,0,4.16044-.31882c.34427-.05879.724-.07143.77473-.53567.08565-.78327-1.49135-2.55476-2.29442-2.4699a49.154,49.154,0,0,1-7.15332.48538c-.44241-.01783-.62692.14883-.46025.6454a2.86619,2.86619,0,0,0,2.88417,2.19052C69.65354,187.97988,70.35067,187.961,71.04645,187.96016Zm148.45769-8.898.001.0243c.95744-.04635,1.91594-.07759,2.87183-.14587.43262-.03091.86-.13557,1.28977-.20648.34677-.05722.71816-.086.74347-.56278.04925-.9285-1.53474-2.55708-2.4551-2.43189a40.65025,40.65025,0,0,1-6.89938.4744c-.45882-.01592-.76649.06176-.53371.67845a2.82051,2.82051,0,0,0,3.02115,2.16754C218.19655,179.074,218.85047,179.06212,219.50414,179.06212Zm-65.39774,3.9285a21.77869,21.77869,0,0,0,4.1536-.33784c.33051-.06378.72878-.0456.72924-.553.00079-.84937-1.53632-2.53554-2.33434-2.4416a47.61382,47.61382,0,0,1-7.01551.49273c-.63188-.01914-.72577.29869-.46823.84116.6006,1.26506,1.38557,2.19586,2.97969,2.01087A17.06928,17.06928,0,0,1,154.1064,182.99062Zm40.32743,2.88271a22.88178,22.88178,0,0,0,4.29439-.32887c.33733-.0602.7288-.05148.74063-.54873.022-.92775-1.55541-2.56625-2.46049-2.44718a40.77669,40.77669,0,0,1-6.89859.47979c-.48537-.0187-.736.12092-.52961.703a2.748,2.748,0,0,0,2.89349,2.13961C193.12681,185.88784,193.78081,185.87371,194.43383,185.87333ZM97.669,165.36747v-.04842c.78281,0,1.5674.03255,2.34789-.01008a18.05747,18.05747,0,0,0,1.94037-.24992c.36531-.06018.84266-.01228.92464-.53332.13368-.84962-1.48325-2.55773-2.40826-2.4726a54.08285,54.08285,0,0,1-6.89069.48769c-.3803-.01355-.68277.07085-.57126.60615a2.86977,2.86977,0,0,0,2.56924,2.21421C96.27527,165.39608,96.97283,165.36747,97.669,165.36747Zm-27.48885,1.6374a23.2338,23.2338,0,0,0,4.305-.32661c.33963-.06738.72689-.0521.74125-.55078.02693-.93544-1.55674-2.57966-2.46173-2.44848a38.74248,38.74248,0,0,1-6.91621.474c-.45869-.01593-.77033.05627-.53268.67771a2.81774,2.81774,0,0,0,3.02979,2.16921C68.9568,167.01351,69.56864,167.00208,70.18011,167.00487Zm-55.535,3.34452a21.70491,21.70491,0,0,0,4.54674-.3637c.29208-.04557.75451.02083.75062-.52021-.00694-.96268-1.52651-2.52709-2.47136-2.43432a58.1362,58.1362,0,0,1-6.76147.49309c-.419-.00776-.78589.07436-.63981.68272a2.7951,2.7951,0,0,0,2.61858,2.1392C13.3402,170.37122,13.99373,170.35055,14.64511,170.34939Zm85.67306.00817a21.23787,21.23787,0,0,0,4.29871-.31492c.40015-.06156.9402-.01919.9628-.64692.03044-.84511-1.4166-2.433-2.23418-2.36179a58.93627,58.93627,0,0,1-7.1674.48959c-.328-.01138-.58956.05384-.48735.53378a2.968,2.968,0,0,0,2.66671,2.29215C99.01023,170.37849,99.66535,170.35454,100.31817,170.35756Zm78.64392.25382a21.2195,21.2195,0,0,0,4.43289-.3217c.36216-.05341.83546-.05164.85726-.6085.03126-.798-1.45029-2.45182-2.22548-2.38538a59.85637,59.85637,0,0,1-7.17316.49116c-.32126-.011-.6058.04847-.52631.52256a3.14945,3.14945,0,0,0,2.54255,2.29452C177.56588,170.64276,178.26582,170.61127,178.96209,170.61138ZM156.74,177.2105l.00077.02912c.8697-.03815,1.74072-.058,2.60859-.12131.51939-.03788,1.03475-.138,1.55019-.22091.37577-.06046.82851-.03455.83366-.60511.00882-.9775-1.5202-2.5241-2.47776-2.39886a40.94117,40.94117,0,0,1-6.892.4766c-.3696-.0142-.70648.01629-.55428.5814a2.98423,2.98423,0,0,0,2.84155,2.25462C155.3463,177.23168,156.04354,177.2105,156.74,177.2105Zm-71.92324,9.93694a20.65463,20.65463,0,0,0,4.12913-.32964c.35673-.05191.8437-.0232.86668-.58613.032-.78307-1.46818-2.46893-2.23256-2.405a61.3864,61.3864,0,0,1-7.16479.48873c-.44162-.01468-.62065.17343-.47722.65922a2.80519,2.80519,0,0,0,2.751,2.16865C83.342,187.1677,83.99666,187.14744,84.81678,187.14744Zm-66.75061,5.04173c.27687-1.15055.52726-2.18815.77619-3.22609.47421-1.97724.63608-2.07053,2.64322-2.09621,4.886-.06252,9.75655-.4485,14.63-.76472.2995-.01943.74922.0876.73163-.53427a1.82483,1.82483,0,0,0-.49265-.07016c-4.32879.59463-8.69992.57553-13.04812.8878-2.3535.169-4.85737.45474-5.9172-2.66505C15.78643,187.35,15.95865,189.46375,18.06617,192.18917ZM40.38373,182.516l-.26782.24153c-.14331.585-.24929,1.18245-.43789,1.75251-.36745,1.11065.11457,1.38339,1.14336,1.35468a35.36184,35.36184,0,0,0,4.67191-.45592,2.45248,2.45248,0,0,1,3.01062,1.414,3.42578,3.42578,0,0,0,1.20259,1.66723c.47811-1.31949.46595-2.641,1.27391-3.86205-1.40916.1496-2.61245.37282-3.818.3855C44.63422,185.04012,41.79153,185.88726,40.38373,182.516ZM15.21757,186.868c.7528-1.97727.64917-4.0415,1.77032-5.82037-1.359-.17463-1.64275-1.45722-2.41657-2.26724C13.07,182.28564,13.17966,183.75781,15.21757,186.868ZM161.722,177.98843a43.15605,43.15605,0,0,1-6.89066.37815c-1.43489-.01072-2.69618-.28079-3.36439-1.75033-.09933-.21851-.341-.61582-.54232-.41139a3.46413,3.46413,0,0,0-.67064,2.18691c-.07218.63021.50954.58737.9401.59516a26.515,26.515,0,0,0,4.68562-.42365c1.81727-.29187,2.4085-.02047,3.31962,1.52875a4.68325,4.68325,0,0,0,1.14929,1.6057C160.87911,180.46846,160.75969,179.17494,161.722,177.98843Zm-84.40608,8.91993,1.127-3.95274a38.50845,38.50845,0,0,1-5.69941.41176c-2.021.09457-3.741-.24162-4.63978-2.31987-.01373-.03177-.14916-.0109-.32794-.0193-.14077.57033-.26785,1.161-.43387,1.74044-.2586.90265.00673,1.26741.995,1.21752a43.63937,43.63937,0,0,0,4.678-.474c1.35-.21518,2.51586-.04873,3.13472,1.42186A18.6635,18.6635,0,0,0,77.31588,186.90836Zm4.627-6.93232A4.202,4.202,0,0,0,81.2,181.901c-.31844.97817.00139,1.38767,1.04359,1.26727,1.5995-.18477,3.20472-.31969,4.805-.49848a2.52142,2.52142,0,0,1,2.98912,1.50743,3.7875,3.7875,0,0,0,1.17175,1.68225c.49688-1.22.45556-2.54064,1.2935-3.72961a46.94351,46.94351,0,0,1-5.80922.43134C84.68909,182.57521,82.77436,182.53644,81.94291,179.976Zm92.21162,1.19371a23.40433,23.40433,0,0,1,.83533-3.09143c.37242-.866-.00307-.891-.636-.78726a31.91746,31.91746,0,0,1-6.14666.24448,2.82587,2.82587,0,0,1-2.73882-1.45134c-.16478-.32337-.28224-.74353-.74073-.86337-.38631.47112-.34387,1.07063-.521,1.59614-.3587,1.06408.06983,1.47741,1.13464,1.367,1.47541-.153,2.95508-.27151,4.42618-.45786,1.88655-.239,2.37287-.02509,3.29908,1.59163C173.34662,179.8065,173.63687,180.28946,174.15453,181.16975Zm-153.467,16.158a18.34892,18.34892,0,0,1,.815-3.19246c.94268-2.0665-.50237-3.15259-1.54117-4.55579C18.58333,193.59506,18.66262,194.46761,20.68753,197.32778ZM224.792,171.4089c-1.24909,2.65528-.86805,4.72941,1.07467,6.25352.07533-.21937.161-.41429.20936-.61808.66562-2.80423.66439-2.80751,3.50786-2.78435a21.90765,21.90765,0,0,0,5.45324-.54228c-1.30177.04521-2.59414.21864-3.89118.26717C228.68214,174.07707,226.04637,174.55044,224.792,171.4089ZM11.8511,174.07167c-1.45565,2.80252-1.18228,5.46958.76139,7.28165.35988-1.52371.71364-2.996,1.04923-4.47252.04541-.19975.07833-.55472-.01628-.6101C12.78862,175.76908,12.512,174.77744,11.8511,174.07167Zm-2.80365-5.05313c-1.2597,3.54295-1.07041,5.12884.85422,7.20868.41994-1.5643.81684-3.05311,1.22208-4.53965.05192-.19046.04033-.3842-.12627-.45615C10.056,170.82482,9.80135,169.79455,9.04745,169.01854ZM220.753,174.54819c-4.04431.38939-8.11179.44461-12.351.72932,2.025.7124,2.0811,2.83307,3.3611,3.98172a3.67855,3.67855,0,0,0,.51768-1.65c.57727-2.55916.59867-2.5886,3.18778-2.54665A18.30568,18.30568,0,0,0,220.753,174.54819Zm-29.62683.61106c.30052-1.249.54914-2.25843.78426-3.271.0996-.429.04225-.8716-.48995-.86653a3.83958,3.83958,0,0,1-4.13394-3.03568c-.27924,1.068-.434,1.64707-.58158,2.228-.13623.53618.01837.86406.63051.83129a2.36248,2.36248,0,0,1,2.31589,1.5899C190.04976,173.40942,190.52758,174.14276,191.12621,175.15925Zm31.85227-2.11218c.52022-1.31553.40424-2.78692,1.20667-3.97739a.26081.26081,0,0,0-.11266-.427c-1.08777-.3254-1.29793-1.5295-2.07148-2.1732A5.1536,5.1536,0,0,0,222.97848,173.04707Zm-2.78991-5.137c1.25549-3.03608,1.006-4.54771-1.01692-6.21507A5.01031,5.01031,0,0,0,220.18857,167.91Zm-13.50894,7.47078c-2.60985.13981-5.219.29532-7.82979.41449-2.1186.0967-4.37132.52273-5.56327-1.9967-.09583-.20259-.37093-.39286-.506-.15591a4.01194,4.01194,0,0,0-.523,2.262c.05778.7459.80884.50454,1.28195.48782,2.52946-.0894,5.06467-.138,7.58372-.36066C202.977,175.868,204.86682,176.0102,206.67963,175.38081Zm-168.00243,8.244c.241-.97377.41613-1.77425.64067-2.56063.19551-.68469-.0253-.94411-.734-.97961a3.15774,3.15774,0,0,1-2.94418-1.83038c-.10834-.22874-.16336-.61315-.64954-.56761-.117.44749-.22673.90849-.35893,1.363-.18768.64517.04313,1.05719.70456,1.10074,1.07507.07079,1.554.794,2.02731,1.61579A4.87551,4.87551,0,0,0,38.6772,183.62478Zm177.47654-3.48451c-1.45571-.2134-1.77042-1.50621-2.54965-2.36795-1.13169,2.67233-.77656,4.45627,1.11774,5.86566C215.23134,182.52262,215.01169,181.1383,216.15374,180.14027Zm-42.828-10.90081c-.19119.77461-.3243,1.32056-.461,1.86562-.12167.48529.04273.81009.56257.7714,1.39278-.10367,1.98787.81451,2.55412,1.8518a2.80965,2.80965,0,0,0,1.07182,1.389,10.15637,10.15637,0,0,0,.6-3.13437c-.05918-.47649-1.35793-.06606-2.02-.439a1.08834,1.08834,0,0,0-.24472-.0908C174.34817,171.16554,174.20918,170.0124,173.32573,169.23946ZM66.34341,182.08272c.264-1.17623.41988-1.98415.631-2.77739.18815-.70706-.07961-.96-.76778-.95033a2.84449,2.84449,0,0,1-2.90284-1.78658c-.10517-.24051-.19932-.60321-.67019-.50745-.11681.493-.221,1.00133-.35971,1.50009-.16312.58627-.03547.93492.64552.927a2.3896,2.3896,0,0,1,2.27609,1.63377C65.46953,180.69864,65.839,181.23018,66.34341,182.08272Zm93.10251-11.90423c-.1335.6034-.26342,1.18207-.38918,1.76164-.1041.47977.04783.7904.58256.753,1.322-.09246,1.92451.76368,2.46694,1.77a3.06614,3.06614,0,0,0,.98758,1.41277c.45709-.60042.35974-1.3431.60632-1.96644.37212-.94073.2701-1.41727-.932-1.3752a2.49546,2.49546,0,0,1-2.39184-1.3202C160.178,170.85742,160.06881,170.39185,159.44592,170.17849ZM94.00622,180.384c.2623-1.11984.39044-1.846.60726-2.54461.23884-.76959.09935-1.10915-.79333-1.11529a2.8754,2.8754,0,0,1-2.82109-1.74545c-.10694-.2365-.18277-.61876-.62929-.52287-.34322.43118-.28891.98516-.42942,1.47762-.1651.57876.05307.96161.69809.93144a2.2294,2.2294,0,0,1,2.18234,1.54214C93.108,178.97938,93.47757,179.51046,94.00622,180.384Zm-17.34189-5.60015c-.23534.6766-.326.91658-.40258,1.161-.326,1.03969-.40955,1.89084,1.13147,1.81789.68607-.03247,1.04482.536,1.36372,1.08.403.68748.82961,1.36108,1.41,2.3083.29625-1.23272.49352-2.11782.72676-2.99335.09668-.363.103-.62355-.36254-.58878C78.6874,177.70662,77.46509,176.84,76.66433,174.78387Zm151.83654,8.10948c.54736-1.06419.36321-2.3652,1.15805-3.30537a.3744.3744,0,0,0-.06163-.32614c-1.16595-.301-1.365-1.5952-2.21407-2.26993C226.34224,179.62384,226.57227,180.82388,228.50087,182.89335Zm-124.04316-9.45516a2.01825,2.01825,0,0,0-.62408,1.26712c-.28507.88722-.23083,1.51856.99028,1.39221a1.57519,1.57519,0,0,1,1.54095,1.00551c.41014.73159.862,1.43979,1.4555,2.42268.30389-1.229.51806-2.1064.73862-2.9822.10037-.39851-.07227-.59222-.45666-.58335A3.525,3.525,0,0,1,104.45771,173.43819Zm113.097-10.71172c.53427-1.18908.46647-2.4263,1.0636-3.45321.14778-.25413.07468-.44427-.16395-.51723-.75263-.23012-1.048-.86456-1.38822-1.4737-.11968-.21428-.222-.53392-.54611-.45021-.30135.07784-.23814.42735-.34492.65328C215.2053,159.53736,216.34547,161.05562,217.55473,162.72647Zm-71.65135,8.11646a3.32093,3.32093,0,0,0-.62667,1.6903c-.16666.56151.02489.95991.66941.9695,1.23308.01835,1.8244.81577,2.32339,1.79418a2.59482,2.59482,0,0,0,1.12178,1.4176c.20347-.88411.41287-1.70611.57534-2.53728a.56907.56907,0,0,0-.56215-.72635A3.54722,3.54722,0,0,1,145.90338,170.84293Zm-93.455,11.61268a8.06736,8.06736,0,0,0,.71084-2.35105c.15464-.59357-.22786-.81233-.70862-.85192a3.23155,3.23155,0,0,1-3.02911-1.92019c-.08379-.19407-.3016-.47225-.47934-.30087a2.75338,2.75338,0,0,0-.55019,1.69067c-.08216.50692.29191.57653.66108.57725a2.55627,2.55627,0,0,1,2.36617,1.74209A2.901,2.901,0,0,0,52.44835,182.45561Zm65.81111-9.93031a5.00973,5.00973,0,0,0-.75,2.06245c-.15049.52431.20965.58014.59338.57087a2.57476,2.57476,0,0,1,2.47705,1.74774,3.41633,3.41633,0,0,0,1.12234,1.55356c.217-.90186.41824-1.73049.61515-2.56014.07695-.3242.06229-.69087-.33528-.70552A3.7166,3.7166,0,0,1,118.25946,172.5253Zm13.8761-.76489-.31687.06137c-.14173.57827-.2911,1.15481-.42258,1.7354-.09408.41539.072.7299.50612.72459,1.5425-.01884,2.14345,1.06978,2.74546,2.212.18594.35281.28764.8327.919.97572.19741-.80206.39451-1.58851.5837-2.37685.11737-.48906-.07552-.74186-.58647-.76572A3.50508,3.50508,0,0,1,132.13556,171.76041Zm1.43672-10.222c-1.11387,2.49749-.79215,4.11855,1.0958,5.68171.54026-.949.35734-2.14131,1.03837-3.02672.13112-.17047.10855-.36668-.08293-.41541C134.47842,163.48659,134.288,162.28419,133.57228,161.53843ZM65.4805,171.704c.51087-1.21895.40723-2.37655,1.0108-3.31778a.3066.3066,0,0,0-.16263-.51095,2.97277,2.97277,0,0,1-1.39856-1.48258c-.12289-.2109-.24-.53958-.55463-.41519-.14949.0591-.22294.33567-.31014.52333C63.10779,168.5617,64.33984,170.02425,65.4805,171.704Zm-14.89572-5.15911c-1.32465,2.32407-.45305,4.11524,1.09015,5.89887.33664-1.14164.62484-2.17853.9564-3.20136.08221-.2536.095-.44687-.14523-.5363C51.49136,168.33572,51.30575,167.25243,50.58478,166.54484Zm134.76393,10.23924c1.65436.922,1.93213,2.89413,3.14612,4.33619.30682-1.33731.58774-2.51724.8458-3.70217.16918-.77692-.05628-1.14777-.95-.99218C187.37587,176.60258,186.34244,176.67175,185.34871,176.78408ZM162.2628,165.82837c.59362-1.09833.41917-2.36521,1.08-3.35683a.354.354,0,0,0-.08533-.32021c-1.10091-.31351-1.2763-1.54674-2.05243-2.1875C159.82,162.27007,160.89369,164.03179,162.2628,165.82837Zm26.62038-7.60187c-1.07854,2.42159-.74257,4.12473,1.14933,5.79065.29847-1.05742.58544-2.09.88457-3.11915.05389-.18549.07558-.38155-.10337-.45585C189.81494,160.02751,189.54711,158.9651,188.88318,158.2265Zm-69.14942,4.25389c-1.34924,2.29668-.40429,4.04052,1.04794,5.76876.60692-1.04006.39014-2.28018,1.04329-3.22835.12364-.17946.07749-.3636-.11366-.41879C120.66588,164.30022,120.52151,163.15733,119.73376,162.48039Zm-12.80011,6.60091c.614-1.06884.442-2.25562,1.044-3.1878.11415-.17672.11146-.38242-.0725-.43478-1.08262-.30816-1.22352-1.5086-1.99177-2.15661C104.55458,165.52188,105.46617,167.28465,106.93365,169.0813ZM78.24179,164.92c-1.30015,2.28763-.46953,4.05135,1.0917,5.82444.3427-1.15786.64152-2.18684.95554-3.21116.05863-.19124.05958-.38507-.113-.44887C79.17915,166.71593,78.97771,165.63822,78.24179,164.92Zm96.829-5.80488c-1.33354,2.30768-.46037,4.05326,1.06854,5.8472.34906-1.16836.64961-2.19206.964-3.21146.06-.19456.04077-.38274-.1255-.44935C176.00742,160.91276,175.77613,159.86424,175.07082,159.11516Zm-27.637,1.6543c-1.17924,2.33475-.78187,4.29351,1.1088,5.62892.30032-.999.59252-1.98847.89889-2.97358.05423-.17434.13844-.39619-.04938-.45676C148.33015,162.62558,148.13151,161.48574,147.43378,160.76946Zm-54.2816,9.16108c.36063-1.181.6554-2.16642.96671-3.14656.05322-.16756.17442-.39888-.00435-.45725-1.05912-.34583-1.26308-1.54324-2.063-2.16542C90.81559,166.37377,91.61225,168.1213,93.15218,169.93054Zm-56.45645-2.676c-.51786,1.58859-1.061,3.01275.05293,4.41916.34083.43031.45294,1.33654.977,1.24492.62461-.1092.43788-1.01062.624-1.5603.12484-.36874.2068-.75306.34755-1.115.09413-.24206.31012-.54161-.01181-.66955C37.66684,169.16894,37.45486,168.06455,36.69573,167.25451Zm-12.666,6.85076c.31923-1.16083.586-2.15786.8718-3.14943.06369-.221.15187-.47589-.08961-.57007-.96309-.37563-1.15863-1.449-1.86331-2.1088C21.544,170.52525,22.50534,172.27325,24.02974,174.10527ZM63.572,187.53288l.98493-3.66846-3.98342.33835C62.2811,184.71355,62.35889,186.45808,63.572,187.53288Zm37.118-5.77163c-2.20118.20835-4.07141-.24841-5.13089-2.8508-.28333,1.15576-.44419,1.83058-.61483,2.50291-.18064.71172.1139.99824.81173.903C97.39382,182.09292,99.07453,182.30545,100.69,181.76125Zm31.99262,1.73067c.48415-1.31591.49582-2.59834,1.269-3.84109l-3.70988.43967C131.38459,181.08405,131.7325,182.36411,132.68261,183.49192Zm-12.52444-3.01619-3.92686.46077c1.40031.781,1.58581,2.31376,2.61093,3.31633C119.35386,183.0323,119.30768,181.72048,120.15817,180.47573Zm-17.92537,1.28678c1.30692.53041,1.54943,1.64281,2.13418,2.48243.16072.23078.221.64886.6223.54557.28524-.07341.27934-.418.33814-.65977a6.0584,6.0584,0,0,1,1.08107-2.81519Zm81.34344-4.96088c-2.09414.11682-4.018-.133-4.87281-2.68193a6.64749,6.64749,0,0,0-.76031,2.34868c-.20474.72039.14794.98484.81079.89547A28.64039,28.64039,0,0,0,183.57624,176.80163Zm-42.12011,2.51881a4.05241,4.05241,0,0,1-4.36723-2.62552,16.764,16.764,0,0,0-.56937,1.88127c-.26466.895-.01858,1.26526.96934,1.2377A16.91429,16.91429,0,0,0,141.45613,179.32044Zm-87.23449,2.2254a6.06289,6.06289,0,0,0-.7226,2.23177c-.18469.65752.088.9882.78332.99313a12.59555,12.59555,0,0,0,4.01165-.4559A3.87715,3.87715,0,0,1,54.22164,181.54584Zm92.22544,1.10653c.58668-1.38158.56081-2.63241,1.36791-3.8292l-3.50208.42234Zm-37.1226-4.24719c-.14518.57941-.26658,1.16608-.44091,1.73658-.284.9296.05732,1.30471,1.00328,1.2763a17.19394,17.19394,0,0,0,4.46329-.44709C112.25447,181.03473,110.35269,180.75754,109.32448,178.40518Zm14.04934-1.05628a7.02,7.02,0,0,0-.71627,2.26123c-.23276.75178.07967,1.0267.838,1.00453a16.40327,16.40327,0,0,0,4.30075-.44141C125.79054,180.23744,124.16805,179.65792,123.37382,177.3489Z" transform="translate(-2 -153.36847)"/></svg>