<svg xmlns="http://www.w3.org/2000/svg" xmlns:xlink="http://www.w3.org/1999/xlink" viewBox="0 0 243.15701 131"><defs><style>.a{fill:#999;}.b{fill:url(#a);}.c{fill:#666;}.d{fill:#333;}.e{fill:url(#b);}.f{fill:#f9f;stroke:#000;stroke-miterlimit:10;}.g{fill:#c60;}</style><linearGradient id="a" x1="110.19215" y1="199.19302" x2="128.56512" y2="167.37011" gradientUnits="userSpaceOnUse"><stop offset="0" stop-color="#262126"/><stop offset="0.13687" stop-color="#bfbfbf"/><stop offset="0.57821" stop-color="#b2aa99"/></linearGradient><linearGradient id="b" x1="192.02038" y1="124.9005" x2="233.86918" y2="166.74931" gradientUnits="userSpaceOnUse"><stop offset="0.07263" stop-color="#ccc"/><stop offset="0.72346" stop-color="#262126"/><stop offset="0.88547" stop-color="#b2aa99"/></linearGradient></defs><title>home_escritorio_discman</title><path class="a" d="M67.955,174.42164l67.74274,23.125s9.57649,1.19706,15.99709-1.30588,90.759-26.87945,90.759-26.87945,2.69339-2.2853,1.79559-3.59119-5.63162-3.42794-5.63162-3.42794l-65.2126-23.17945-20.40444,2.61177-8.56986,3.01986-65.70231,19.289a21.25173,21.25173,0,0,0-10.30424,9.33843" transform="translate(-3.98736 -112)"/><path class="b" d="M88.15685,161.31541s11.41145,8.91652,18.70264,11.31064,37.10888,12.51472,43.85594,13.71178,10.5559.65294,12.07943,1.19706,6.8559,2.93824,7.18237,5.00589-22.2,6.74707-22.52651,6.85589-13.38531-.29234-15.12649-.7447-43.6383-15.90532-43.6383-15.90532l-17.73826-6.52942-2.17647-.93861s.857-4.28493,3.30552-6.16214,6.08052-5.346,11.91619-6.12133Z" transform="translate(-3.98736 -112)"/><path class="c" d="M68.7712,185.24959a69.00918,69.00918,0,0,1-.81618-7.99854c.05441-2.39412.40686-2.39412.40686-2.39412l11.06157,4.48022L132.32423,198.652s-3.25505,4.55738,109.1822-29.01665a6.05609,6.05609,0,0,0,2.92322-3.17633s1.72416,4.86117,1.28886,8.34353-4.35294,9.25-4.35294,9.25l-85.17175,26.33534-25.06665-1.83369L71.91179,189.8708Z" transform="translate(-3.98736 -112)"/><path class="d" d="M68.11825,184.29739s6.611,5.30515,9.71252,6.03971S136.922,209.19081,136.922,209.19081s16.56841,1.061,19.91474-.73456,86.59645-25.7096,86.59645-25.7096-4.16251,5.22354-6.36619,5.9581-80.47512,24.40371-80.47512,24.40371a51.82263,51.82263,0,0,1-19.425.97941c-11.01839-1.46912-43.91035-13.95664-43.91035-13.95664l-18.69047-7.75368S68.7712,187.48048,68.11825,184.29739Z" transform="translate(-3.98736 -112)"/><path class="e" d="M208.8817,164.68192s.54411,4.51618,0,5.38677,10.44707-.76177,10.44707-.76177,14.85443-3.80883,17.08532-5.65883,6.03971-5.00589,6.14854-6.14854-.35368-10.82795-.35368-10.82795-9.54928-8.65149-19.34341-9.84855-12.8412-4.35294-38.95888-3.80883l-.87059,1.85v4.35294s18.24455-.21764,29.77157,2.33971,23.60645,5.33236,27.85057,11.20884a24.16871,24.16871,0,0,1-11.53531,7.61766C221.7773,162.50544,208.8817,164.68192,208.8817,164.68192Z" transform="translate(-3.98736 -112)"/><path class="f" d="M158.986,210.33345s-.925-3.48235.54412-4.78824,2.99265-3.48236,5.44119-2.17647a53.302,53.302,0,0,0,7.45442,2.775L179.717,210.932l-1.08824.62574s-1.30588.24485-1.30588.68015.10882,1.90441.10882,1.90441l-9.03237-.87059Z" transform="translate(-3.98736 -112)"/><path class="g" d="M129.16834,169.851s-7.78089.81618-10.06619.4353-10.22942-3.31913-10.33825-3.75442-7.29119-9.03237-8.21619-11.4809a5.40625,5.40625,0,0,0-2.82941-3.15589l-4.54339-4.489L91.733,143.026l-.84338-8.51545.857-4.5706,1.782-5.03309,4.24412-5.87648,4.24412-4.10809,4.92428-2.20368,6.339-.4625,2.93823.19044,5.65884,2.775L124.625,117.398l3.07427,3.53677,1.46912,2.66618.81618,2.47574v2.61177l6.25736,4.32574,4.40736,4.51619,2.82942,6.03971,1.03382,4.625-.70735,5.33236-1.08824,4.29853-3.15588,5.33237-3.26471-.27206-1.74118-1.3603-.97942-1.46912-.4897-2.17647.925-1.41471.59853-2.93824-.10883-5.76766s-.87059-6.09412-5.65883-9.25-14.41914-5.16913-19.7515-1.14265-6.9103,10.93678-6.9103,10.93678l1.25147,2.06765s3.2103,8.7059,6.96472,10.88237S123.4551,169.95987,129.16834,169.851Z" transform="translate(-3.98736 -112)"/><path class="d" d="M138.30953,172.38119l-11.75295-3.26471s-11.23188-4.16752-13.77772-6.4095-9.46855-7.44226-9.92485-13.28956l-1.51732-1.11347,1.32825-1.59983.39876-1.05784s.20461-3.36239,1.26564-4.32442,6.20541-6.28966,9.71251-6.24,9.30443-.925,14.8,3.86324,6.407,10.13421,6.32538,11.07282-2.7342,7.63126-1.34669,9.71251.77537,2.65258,4.12169,2.97905a36.64465,36.64465,0,0,1,6.81509,1.46912l62.81847-1.45552s1.94915,3.03906,1.5459,5.76365-1.65472,3.37754-2.03561,3.37754-36.23828,1.85-40.31917,1.68677S138.30953,172.38119,138.30953,172.38119Z" transform="translate(-3.98736 -112)"/><path class="d" d="M143.25626,143.09539s19.70184-2.01461,32.02612-1.9738c0,0,7.18237-.32647,7.75369-.73456s0-6.8967,0-6.8967l.48971-1.75478s-15.67062.22872-24.68938,1.2162-20.55091,2.15654-20.55091,2.15654A21.66826,21.66826,0,0,1,143.25626,143.09539Z" transform="translate(-3.98736 -112)"/><path d="M177.257,208.799c2.24827,1.051,3.62168,3.1076,5.80592,4.2654a131.62926,131.62926,0,0,0,29.67759,11.36931,33.75658,33.75658,0,0,1,9.26931,3.38958c3.026,1.80585,3.48145,4.37958.74613,6.61333-8.07713,6.59608-17.21317,10.29419-27.73221,7.75988a79.41941,79.41941,0,0,0-23.8409-2.54795c-6.94091.44011-13.76132-.35579-20.14875-3.46037-3.00583-1.461-5.07093-3.48259-4.83426-7.13009.108-1.66493-1.04256-2.2044-2.41186-2.49784a74.32018,74.32018,0,0,0-10.259-1.10655c-2.289-.16623-4.58691-.2523-6.86548-.51009-3.12287-.35331-6.144-1.23753-8.41344-3.48748-10.198-10.11023-22.86946-12.81729-36.59721-12.404-4.54707.13689-8.92039,1.41585-13.33334,2.3667a43.2008,43.2008,0,0,1-20.87606-.38775,50.13358,50.13358,0,0,0-17.6762-1.7229c-5.35222.45408-10.7729.5574-16.02108-1.05409-1.5025-.46135-2.956-1.09231-4.4113-1.69542-3.55924-1.475-5.55938-3.66847-5.32967-8.01687.31593-5.98046.299-6.4979,5.99742-8.64724,5.73952-2.16484,11.50266-3.10249,17.69215-1.598,4.96,1.2056,9.97494-.03953,14.88239-1.23417a72.19356,72.19356,0,0,1,11.88635-1.91166,7.55392,7.55392,0,0,1,4.74435,1.05835c2.23248,1.41178,2.44985,3.3495.48481,5.09362a28.33149,28.33149,0,0,1-5.90927,3.505c-.36786.19359-.88111.333-.85056.84847.03046.5143.54144.614.943.73308,4.72,1.39977,9.4827,2.32446,14.41518,1.22585a11.60529,11.60529,0,0,0,4.9142-2.56116c1.24892-1.03844,1.45395-1.83994-.00889-3.01871-2.95323-2.37977-5.17179-5.21954-5.78322-9.21814-1.41109-9.22842,4.492-15.47827,10.57776-18.3391,1.40878-.66223,3.59114-.59512,4.10176-1.94155.42866-1.13033-.72212-2.79757-.98114-4.26116-1.36467-7.71124.272-14.95545,3.618-21.88831a8.71593,8.71593,0,0,1,3.45414-3.47761,4.41828,4.41828,0,0,0,2.01536-3.11261c1.58115-7.1225,5.05405-12.73919,12.38912-15.2313,2.42319-.82328,4.6733-1.94269,7.3134-2.35389a17.99178,17.99178,0,0,1,11.99473,2.41266,18.47088,18.47088,0,0,1,9.13661,12.44884,4.44736,4.44736,0,0,0,2.62913,3.57939,10.19859,10.19859,0,0,1,4.30931,3.1321c.64791.89105,1.4988.86154,2.49613.73669,13.53291-1.69413,27.16445-3.45052,40.742-2.8994,16.027.65055,32.25224,1.08578,47.69,6.615a47.81325,47.81325,0,0,1,11.46818,5.83655,6.55425,6.55425,0,0,1,3.02476,5.40089c.07956,2.00394.3996,3.99511.28077,6.01327-.12986,2.20539-.54918,4.29851-2.28553,5.84757-.92619.8263-.81151,1.47268.23868,1.93044,4.73957,2.06587,5.07079,6.468,5.4578,10.664A14.22106,14.22106,0,0,1,243.77,184.28428c-3.32359,4.27234-7.67607,6.552-12.64428,8.03114q-25.89441,7.70949-51.79112,15.4113A3.11939,3.11939,0,0,0,177.257,208.799Zm28.27841-10.84611c4.09415-1.203,7.767-2.18092,11.37257-3.36373,6.67066-2.18831,13.77242-3.223,19.95543-6.68858,4.35214-2.43936,7.57964-6.09888,8.3178-11.36.34565-2.46371-.32765-4.83481-.74434-7.23632-.47478-2.73638-2.58911-3.78273-4.67335-4.93612-1.68891-.93462-2.61656.62672-3.86619,1.12677-.465.18607-.89965.44642-1.35694.65343-8.99133,4.07034-18.70329,5.71682-28.28352,6.89482-16.22759,1.99535-32.63432,2.21265-48.99459,1.82248-8.5145-.20306-17.076-.46394-25.40289-2.70565a11.72384,11.72384,0,0,0-4.68146-.4874c-9.44331,1.30829-17.47306-1.62074-23.2531-9.07517-2.3759-3.06415-4.28247-2.8532-7.286-1.96222a3.804,3.804,0,0,0-3.13073,3.67913c-.50984,4.1269-1.1221,8.24347-1.79631,12.34719-.984,5.989-2.46173,11.81634-6.26363,16.75574-1.56228,2.0297-1.56787,1.96723.8429,3.00249a369.61209,369.61209,0,0,0,47.01839,16.05783,42.63953,42.63953,0,0,0,25.35489-.6529c-1.93266-2.50568-.18526-4.35065.96488-6.26366.36424-.60583.78558-1.70241,1.74516-1.05262.91906.62234.0945,1.39483-.26711,2.05371-1.07253,1.95434-.55142,3.4274,1.53823,4.22762,1.00448.38465,2.05259.65762,3.04936,1.05956,1.51247.60991,2.76571.98743,2.60115-1.46424a4.17517,4.17517,0,0,1,1.12245-2.51559c.56171-.8016.323-1.33806-.56508-1.62047-1.77114-.56321-3.53113-1.17591-5.33122-1.62619-.6456-.16151-1.41458-.05577-1.36271-.93855.052-.88415.83824-.79839,1.491-.78566,2.13659.04169,4.0214,1.01256,5.9838,1.66669,1.21356.40453,1.96966.18326,2.27073-1.0759.40548-1.6958,1.6469-2.42727,3.164-2.87984q7.73463-2.30741,15.4694-4.61419c1.1392-.33847,2.38222-.61422,3.00971.72652a2.42826,2.42826,0,0,1-1.01932,3.21c-1.37843.74711-2.1532,2.13731-3.56323,2.8011a49.85433,49.85433,0,0,0,6.41723-1.78008c1.34749-.50179,4.254-.064,2.46644-3.13688-.02858-.04913.001-.14415.02485-.21.85493-2.36013,1.576-4.83152,3.68332-6.431.94507-.71726,2.14474-1.39268,3.36072-.59189,2.70471,1.7812,2.80761,2.38717,1.31605,5.38126A19.70561,19.70561,0,0,0,205.53545,197.95289ZM85.26628,204.60613a27.43219,27.43219,0,0,1,5.99209.41088c10.89139,1.3986,21.06251,4.52591,29.04969,12.60756a11.80234,11.80234,0,0,0,7.69021,3.37756c5.35427.50617,10.76565.30464,16.07944,1.25933,4.2656.76636,6.83394,2.41992,6.2558,6.82071a2.886,2.886,0,0,0,1.72048,2.9706,20.70779,20.70779,0,0,0,4.54311,1.93017,43.52045,43.52045,0,0,0,17.0603,1.48425,42.83889,42.83889,0,0,1,18.4663,2.0027c9.14815,3.052,17.38533.94451,25.18014-4.06756,1.06207-.68291,2.76387-1.376,2.56216-2.60456-.2-1.21808-2.04845-1.30048-3.25471-1.62705-12.009-3.25122-23.79566-7.091-34.84337-12.92987a7.92371,7.92371,0,0,0-3.532-.72364c-4.289-.16262-8.64321-.035-12.70362-1.78135a8.06823,8.06823,0,0,0-6.047-.17989,42.51919,42.51919,0,0,1-23.34467,1.472c-9.01654-2.09481-17.83549-4.95-26.63892-7.81826-8.53854-2.782-16.82924-6.21328-25.14766-9.57289-.98845-.39921-1.93424-.89833-3.01393-.05146-5.6877,4.46122-12.37062,6.27082-19.3943,6.93046-7.30785.68633-14.0593-.4934-19.062-6.6226-.76728-.94-1.72961-1.71931-2.58468-2.58968a6.6029,6.6029,0,0,0-3.96164-1.90619c-2.19873-.33013-4.54139.29049-6.59489-.716-5.9429-2.91291-11.82244-2.21522-17.73057.034-3.51984,1.34-3.51921,1.32757-3.577,5.0755a6.96254,6.96254,0,0,1-.18024,1.27664,2.58341,2.58341,0,0,0,1.45905,2.99181c5.41571,3.39491,11.39519,3.7207,17.47069,3.21743,7.14681-.592,14.20282-.42545,21.11144,1.66841a37.08765,37.08765,0,0,0,19.34762.39218C73.37214,206.03666,79.086,204.531,85.26628,204.60613Zm55.45159-68.2658c1.11141,2.10175,2.06974,3.92592,3.04084,5.74326a1.33827,1.33827,0,0,0,1.4182.76173c3.70662-.40343,7.5045-.43793,11.09176-1.3245a49.21354,49.21354,0,0,1,9.101-1.13975c.7177-.04165,1.86965-.34861,1.92845.74716.06532,1.21746-1.17923,1.08839-1.96082,1.08662-6.11059-.01386-11.80512,1.971-17.60914,3.48915-2.07186.54195-3.01508,1.38243-2.31063,3.57247a5.98948,5.98948,0,0,1-.00109,2.77406c-.5142,3.27314-1.10042,6.51237-3.14583,9.26587-1.06637,1.43551-.39112,1.84629,1.095,2.11762a59.382,59.382,0,0,0,10.29464.67625c15.92769.11707,31.8525.20484,47.74586-1.20354,2.18171-.19333,4.49694-.9688,6.58633-.10975a7.23433,7.23433,0,0,0,4.33332.48742c2.18422-.41005,4.4062-.62651,6.582-1.07241a37.82259,37.82259,0,0,0,8.26354-2.26454c-1.71106-.62808-2.9598-1.1143-4.22671-1.54728q-22.09982-7.55268-44.19948-15.10571a10.41746,10.41746,0,0,0-5.66317-.77536c-.71464.14948-1.78764.29222-1.85923-.84043-.07514-1.1887,1.08351-.993,1.76855-1.03736,2.50415-.16222,5.01628-.19918,7.52483-.29762.6984-.0274,1.45276.0876,1.827-.78189,1.02458-2.38069-.158-4.26245-2.683-4.23021-.93286.01191-1.86577.04672-2.79839.03922-.64258-.00517-1.39114.043-1.67191-.69047-.45555-1.19014-1.42878-1.0499-2.34089-.99595-5.36918.31758-10.74346.58147-16.10272,1.02438C151.48265,135.14377,146.2351,135.77057,140.71787,136.34033Zm22.70495,36.75808c14.65209-.13989,28.1249-.58519,41.57454-1.67261,3.4258-.277,4.32719-1.41947,3.39905-4.85551-.1792-.66339-.43691-1.98408-.88261-1.74273-1.98453,1.07463-3.77145-.2946-5.65989-.1378-5.00153.41525-10.01433.84643-15.02839.93135-16.40237.27781-32.83664,1.66789-49.16438-1.27065-4.20586-.75692-5.83362-3.24386-4.52947-7.35924a17.3525,17.3525,0,0,0,.82725-7.409c-.71673-5.8999-8.03623-12.55729-14.8304-12.92792-5.24438-.28608-9.59313,1.10554-12.97966,5.24033-1.68548,2.05789-2.5854,4.97364-2.1626,6.94363a20.59631,20.59631,0,0,0,6.44435,11.41477c5.8966,5.1037,12.96634,7.85286,20.3857,9.776C141.89715,172.90123,153.256,172.86642,163.42282,173.09841Zm-71.23008-35.167c.22238,3.38357.68736,6.69912,2.43191,9.7103.659,1.13746,1.34529,1.52985,2.58908.73567a3.724,3.724,0,0,0,1.85687-2.7023c.30034-1.75847.33591-3.60821,1.17818-5.22638,4.14952-7.972,10.441-12.672,19.686-13.07022a25.99177,25.99177,0,0,1,7.44013.66511c1.8585.45747,2.23533.02566,1.56675-1.81567a22.8573,22.8573,0,0,0-1.8081-3.89928,17.11433,17.11433,0,0,0-24.676-5.27451C95.49106,122.13659,92.60084,129.48817,92.19274,137.93142Zm90.10353,4.525c15.886,5.47536,31.53183,10.86823,47.1781,16.25966a3.22056,3.22056,0,0,0,2.30387-.15935,24.08074,24.08074,0,0,0,6.63754-3.9009c1.49018-1.23443,1.16316-2.01691-.18554-2.93941a44.73458,44.73458,0,0,0-11.37288-5.50079c-9.47586-3.12419-19.28635-4.42611-29.15814-5.024C192.677,140.88739,187.43122,139.72432,182.29627,142.45639Zm-61.96464-13.11233c-.502,0-1.004.0026-1.506-.00039-7.51177-.04476-17.22629,7.63575-17.729,15.66135-.03247.51845-.58408,1.27441.20314,1.48873.84643.23043,1.24461-.503,1.40958-1.262a10.68758,10.68758,0,0,1,1.7179-4.12846c7.25895-10.02931,22.13821-6.93935,28.13754.17934,3.83351,4.54878,4.4912,9.77458,2.77223,15.37489a6.5226,6.5226,0,0,0-.50577,3.15041,3.18474,3.18474,0,0,0,2.63069,2.51861c.79185.21362,1.66218.63767,2.32375-.35348,2.4024-3.59912,4.0643-7.53325,3.80963-11.87383C142.88416,137.97877,132.92209,128.41817,120.33163,129.34406ZM240.8881,151.25649c.33433-2.48817-.25892-4.28178-2.16043-5.662a32.35773,32.35773,0,0,0-7.0695-4.05686c-14.655-5.76186-30.00993-7.17662-45.58813-7.09927-1.15324.00573-1.64619.49973-1.71313,1.67822-.13672,2.40688.21438,2.903,2.76349,2.89076a139.86552,139.86552,0,0,1,18.2322.947C217.7784,141.524,230.05788,143.56277,240.8881,151.25649Zm-150.695-15.60114a6.69422,6.69422,0,0,0-3.28063,3.44557,36.52,36.52,0,0,0-2.89694,16.97654,19.77539,19.77539,0,0,0,.89,3.74318c.444,1.62579,1.35451,1.94855,3.06289,1.56112,2.25077-.51044,3.51954-1.58774,3.9239-3.85533a9.28949,9.28949,0,0,1,1.04-3.03583c1.32265-2.25165,1.5645-4.16291-.1113-6.55482C90.36208,144.42614,90.4555,140.10533,90.19307,135.65535ZM77.55316,166.87812a12.414,12.414,0,0,0-3.70962,2.59141c-6.6267,5.80307-6.27284,16.52874.65619,21.30258.62491.43054,1.17239.91017,1.78-.00165.55238-.82892.513-1.46292-.52179-1.8213-1.56294-.54133-1.9469-1.74138-1.85657-3.24082.056-.92885.03576-1.862.068-2.79263.11793-3.40709.65732-3.82427,3.85292-2.675,1.39008.5,1.89241.16881,2.17867-1.261.434-2.16769.60439-4.4858,1.7647-6.38562,1.03629-1.69676.534-1.86019-1.10541-2.04077C77.772,170.23523,77.18286,169.49025,77.55316,166.87812Zm135.06434,3.00553a85.39028,85.39028,0,0,0,19.68936-4.81031,22.79317,22.79317,0,0,0,7.41532-4.672,4.71719,4.71719,0,0,0,1.81921-3.736c-.01435-.34011-.06231-.80817-.28153-.98249-.41687-.33151-.79965.06166-1.10521.35014-3.85736,3.6415-8.79526,5.013-13.67615,6.47527a96.496,96.496,0,0,1-14.75146,2.97661c-2.39665.32587-.91717,1.93319-1.07763,2.96778C210.49767,169.43107,210.82308,170.19288,212.6175,169.88365ZM57.1053,189.1634a1.167,1.167,0,0,0-1.17716-.75084c-4.93735-.15555-9.669,1.097-14.42283,2.16259-1.11184.24921-.69391.91249-.11517,1.35478,2.467,1.88537,4.3558,4.37156,6.68321,6.39342,3.41537,2.967,7.5847,2.9424,11.7394,2.90626a44.803,44.803,0,0,1-7.66812-1.98505c-1.53321-.55351-3.062-1.21434-3.16461-3.09565-.102-1.86965,1.11979-2.99842,2.66717-3.82814A34.71106,34.71106,0,0,0,57.1053,189.1634ZM123.875,170.031c-2.68285-1.25651-5.03225-2.26939-7.30106-3.43867-4.03765-2.08088-7.83292-4.4742-10.36391-8.44243a27.84312,27.84312,0,0,1-3.40916-6.67185c-.21606-.69853-.59933-1.4832-1.47322-1.20442-.81212.25907-.4784,1.09834-.3722,1.693a17.765,17.765,0,0,0,.76484,3.33246,22.44639,22.44639,0,0,0,12.256,12.865A19.5829,19.5829,0,0,0,123.875,170.031Zm-34.44467.488c-.72563.60537-1.23016,1.31445-1.895,1.53062-2.75772.89672-3.55342,3.05821-3.91465,5.5866a15.31051,15.31051,0,0,1-.45526,2.09547c-.35668,1.2287-.52,2.29406.8378,3.14729.76713.48206.72158,1.48683.64656,2.37153-.08646,1.01982-.12717,2.04351-.18774,3.06553C87.70394,182.81251,88.4257,176.717,89.43037,170.519Zm98.54921,28.426c-1.03555-.39107-2.21939.47911-3.42077.799-3.10071.82569-6.1595,1.81039-9.22807,2.75417-.76785.23617-1.7143.663-1.388,1.55453.29014.79276,1.10969.01654,1.673-.077C180.15041,203.22287,184.63577,202.31371,187.97958,198.945Zm-87.482-41.96725a14.37054,14.37054,0,0,0-1.35667-2.19232c-1.68472-1.879-2.28434-1.78816-3.18628.49436-.45365,1.148-1.64017,2.99438-.80311,3.44223,1.45041.776,3.20235-.51886,4.80545-1.02392C100.15985,157.63413,100.27389,157.288,100.49753,156.97772Zm-14.16119,7.79249a5.67622,5.67622,0,0,1-2.82024.87943,5.80427,5.80427,0,0,0-3.33339,1.26879c-.52245.50822-1.05291,1.3444.03144,1.65244a7.97214,7.97214,0,0,0,5.432-.35067C87.16659,167.54884,85.89568,166.192,86.33634,164.77021Zm118.0514,29.8066c-.08141-.73541-.05462-1.6594-.92542-1.95033-.79151-.26443-1.32342.45658-1.71847,1.01754a10.3877,10.3877,0,0,0-1.18972,2.25253c-.30564.79885-1.37057,1.84936-.438,2.44227,1.07953.68633,2.33133-.02172,3.21382-.97985A4.39516,4.39516,0,0,0,204.38774,194.57681Z" transform="translate(-3.98736 -112)"/><path d="M144.70168,186.22777c-.82114-.2211-1.64727-.42548-2.46156-.66945-.50382-.151-.94536-.41109-.84641-1.05272a.7935.7935,0,0,1,1.11964-.67484c1.87047.644,4.27183-.06494,5.54224,2.16576a1.30467,1.30467,0,0,0,.91309.49258c2.55547.2255,4.53458,2.17245,7.11374,2.34188.67606.04441.65094.68044.53277,1.18443a3.456,3.456,0,0,1-2.11381,2.27887,18.43263,18.43263,0,0,1-12.977,1.24927,39.10858,39.10858,0,0,1-7.01518-2.69643c-.57873-.27141-1.43445-.5426-1.59766-1.01089-.85972-2.46689-2.82153-2.32412-4.82248-2.3443a2.03642,2.03642,0,0,1-2.13025-1.1749c-.28689-.88264.54821-1.428,1.05838-1.97725a5.18118,5.18118,0,0,1,6.15674-.64352c1.638,1.10844,1.99578,2.55719,1.20689,4.97847,3.16872-2.07891,6.80127-1.55385,10.2819-1.88178Zm1.63886,6.03128a15.66,15.66,0,0,0,6.0919-1.07849c.68343-.2901,1.1865-.59977.39673-1.36282-2.40168-2.3204-8.44865-2.07366-10.69352.40817-.92927,1.02738-.51933,1.52874.58284,1.7072C143.91213,192.12638,145.13206,192.15732,146.34054,192.25905Z" transform="translate(-3.98736 -112)"/><path d="M135.96511,207.46528c.09595,2.16506-.324,2.57332-2.465,2.12029-4.91391-1.03977-9.54912-3.00531-14.35681-4.40268-1.002-.29124-1.44235-.8845-.88451-1.93411a3.63981,3.63981,0,0,0,.342-1.00895c.66242-3.43759.65854-3.439,4.08313-2.40748q4.835,1.45641,9.669,2.91623C135.80348,203.794,135.80255,203.79707,135.96511,207.46528Z" transform="translate(-3.98736 -112)"/><path d="M114.50932,200.2355c.01037,2.40971-.57121,2.90151-2.80012,2.18906q-5.6124-1.79391-11.18664-3.70614a3.80644,3.80644,0,0,1-1.75561-5.2797,1.4959,1.4959,0,0,1,1.9-.53038c4.14624,1.33933,8.28928,2.68926,12.41933,4.07756C114.69672,197.52724,114.43521,198.97554,114.50932,200.2355Z" transform="translate(-3.98736 -112)"/><path d="M116.30432,188.63631c-.67814-2.13044.08614-2.72744,2.40792-2.48187,1.23264.13037,2.56424-.66589,3.97708-.27873a2.90942,2.90942,0,0,1,2.22373,2.36461c.23454,1.22619-.90246,1.70242-1.78289,2.11249a7.3457,7.3457,0,0,1-5.20242.77774C116.71135,190.79091,115.69445,190.33275,116.30432,188.63631Z" transform="translate(-3.98736 -112)"/></svg>