<svg xmlns="http://www.w3.org/2000/svg" xmlns:xlink="http://www.w3.org/1999/xlink" viewBox="0 0 239.51656 159.78032"><defs><style>.a{fill:url(#a);}.b{fill:#666;}.c{fill:#333;}.d{fill:url(#b);}</style><linearGradient id="a" x1="112.96857" y1="145.28758" x2="126.6044" y2="145.28758" gradientUnits="userSpaceOnUse"><stop offset="0" stop-color="#020202"/><stop offset="0.49721" stop-color="#fff"/><stop offset="1"/></linearGradient><linearGradient id="b" x1="62.12231" y1="169.90581" x2="177.12069" y2="-29.27724" gradientUnits="userSpaceOnUse"><stop offset="0.03073" stop-color="blue"/><stop offset="0.24581" stop-color="#0071bc"/><stop offset="0.49162" stop-color="blue"/><stop offset="0.77374" stop-color="#0071bc"/><stop offset="0.99162" stop-color="blue"/></linearGradient></defs><title>home_escritorio_monitor</title><polyline class="a" points="113.201 150.028 119.808 151.336 126.52 150.133 126.604 139.274 112.969 139.239"/><polygon class="b" points="58.046 153.722 112.926 153.891 113.18 150.133 119.681 151.147 126.52 150.133 126.52 153.722 181.569 153.891 126.351 156.93 112.589 156.93 58.046 153.722"/><polyline class="c" points="57.624 153.722 112.758 156.93 126.604 156.93 181.738 154.003 181.738 156.367 126.773 159.35 111.998 159.35 57.793 156.086"/><polyline class="b" points="0.196 0.872 0.196 0 239.152 0.711 239.152 1.478"/><polyline class="c" points="0.063 138.946 239.067 139.565 239.152 1.393 0.063 0.711"/><polyline class="d" points="3.616 3.799 235.605 4.489 235.802 136.526 3.405 136.005"/><path d="M125.30755,45.58037c16.18895.13445,32.37864.03405,48.56746.13353,13.90559.08544,27.81143.004,41.71651.11153,9.50542.07354,19.01069.02973,28.51587.07907.88731.00461.89242.007.89242.90711q.00045,68.62085-.00008,137.24167c0,1.37349-.022,1.15513-1.13565,1.15405-13.03364-.01255-26.0676.018-39.10086-.06163-14.07267-.086-28.14563-.00421-42.2178-.11143-9.76535-.0744-19.53053-.03-29.29566-.08-.84737-.00434-.84733-.00058-.84831.85754-.00473,4.196.00049,8.392-.02623,12.58791-.00356.56.19619.67853.70921.67842,8.02071-.0017,16.04186-.03609,24.062.037,9.80245.08936,19.60482.03024,29.40707.08076.88.00453.88032.00373.881.90174.00038.48272-.01642.96614.00406,1.448.01714.403-.14773.56248-.54855.58009-1.26024.05541-2.51915.14039-3.779.20509q-7.97712.4098-15.95446.81512-5.22511.26934-10.44962.55033c-4.984.2624-9.97368.44523-14.95063.80484-7.65573.55316-15.31907.57972-22.98307.46372-3.40988-.05159-6.81551-.37944-10.22323-.57933-2.09293-.12277-4.18623-.239-6.2792-.36113q-5.52846-.32268-11.05677-.6481c-2.8154-.16255-5.63156-.312-8.44687-.47624-3.57448-.20847-7.14832-.428-10.72268-.63881q-3.11156-.18353-6.22383-.355c-.70388-.04-1.40743-.09439-2.11189-.112-.41525-.01036-.55053-.2039-.54-.59146.01508-.55656.02633-1.11509-.00321-1.67051-.02766-.52.2009-.67689.69309-.67207,1.94932.019,3.899.00038,5.84836.01661,15.26065.12717,30.52174.06718,45.78257.117.742.00242,1.4847.02144,2.22534.06353.45407.02581.60345-.14062.62836-.59939.14815-2.7278.05693-5.457.07983-8.18524.01293-1.54091.00305-3.082.002-4.623-.00053-.77151-.002-.77314-.76227-.77416-12.10533-.01618-24.21093.01365-36.31591-.0594-14.77817-.08919-29.55664-.01217-44.33437-.11647-10.19236-.07193-20.38458-.03048-30.57674-.08167-.95072-.00477-.95218-.00293-.95219-.95932q-.00032-68.51026.0003-137.02054c0-1.4.0034-1.4132,1.30227-1.379,4.90038.129,9.80164.051,14.70241.06689,8.85614.02864,17.71273-.01654,26.5685.051,14.054.10726,28.10852.00361,42.16209.11421C101.91539,45.58328,113.61156,45.50682,125.30755,45.58037Zm.38194,1.2678c-10.41753-.07145-20.44293-.022-30.46845-.098-13.68261-.10377-27.366-.02928-41.04914-.1097-15.7622-.09264-31.5252-.01211-47.28755-.131-.858-.00646-.85942-.00082-.85942.854q-.00035,67.95444,0,135.90886c0,.85718.00138.85585.85642.85936,11.30645.04656,22.61295.00689,33.91955.08965,14.01684.10261,28.03444.01261,42.05175.11346,13.86833.09979,27.73734.02989,41.60616.10666,16.245.08994,32.49059.036,48.7358.13044,11.6591.06774,23.31845.01377,34.97784.093,11.86382.08067,23.72841.0454,35.59267.06.73608.0009.73948-.00361.73948-.74782q.00061-68.03853.00008-136.07706c0-.73594-.00214-.73557-.73883-.73993-7.44451-.04408-14.88907-.01966-22.33381-.07393-13.86831-.1011-27.73735-.017-41.60614-.11439-14.22109-.09984-28.44311.01482-42.66445-.11805C133.207,46.81685,129.252,46.84817,125.68949,46.84817Zm-1.425,157.65688c3.03171,0,5.7071.06849,8.37753-.01721,3.37377-.1083,6.74343-.34355,10.115-.52156,2.27873-.12031,4.55786-.233,6.83649-.35505q5.89068-.31557,11.781-.63723c2.40839-.1276,4.81772-.237,7.22619-.36311q6.11352-.32,12.22645-.65088c1.61175-.08619,3.22573-.14478,4.83433-.27157,1.37922-.10873,1.37043-.14347,1.29032-1.53357-.01688-.29269-.08244-.4325-.42161-.41421-2.66778.14386-5.3368.2648-8.00484.40432q-6.00244.31392-12.0042.64187c-2.35289.1245-4.70639.23737-7.05929.36154q-6.03.31822-12.05967.64337-3.50147.18517-7.00343.35986c-3.24214.16355-6.47931.43642-9.72916.42906-3.63866-.00824-7.27739-.02368-10.916-.00807-1.96992.00846-3.92987-.16261-5.89331-.26288-3.66807-.18731-7.33358-.42473-11.00031-.63832q-4.08367-.23789-8.16773-.46893-5.47235-.3191-10.94437-.64372c-2.741-.15972-5.4825-.31043-8.2234-.4717-3.537-.20807-7.07263-.44009-10.61074-.62593-1.4108-.07413-1.23065-.236-1.26043,1.25586-.00843.42175.12213.59044.56324.60792,1.33439.05294,2.66714.147,4.00052.22521q5.52779.32407,11.0556.64788c2.70394.15747,5.40828.308,8.11208.46792,4.148.24523,8.29548.50015,12.44366.7426,2.85209.16668,5.70577.30661,8.55739.48066C113.79372,204.21927,119.19873,204.61458,124.26453,204.50505Zm53.483-4.79079.0106-.04013c-.14783,0-.29565.0006-.44347-.00011-8.4645-.04017-16.92909.00023-25.39371-.08269-6.40418-.06275-12.80932-.02557-19.214-.03456-.80283-.00113-.91175-.10626-.8952-.89973.01546-.74181.02454-1.48572.09027-2.2239.04889-.54888-.17037-.6222-.6415-.52984-1.29268.2534-2.6004.43594-3.885.72327a8.42414,8.42414,0,0,1-3.90237-.00065c-1.33278-.32174-2.7-.49817-4.04579-.77-.41721-.08425-.52379.04447-.52843.43613-.00986.83457-.0532,1.66877-.08434,2.50307-.02745.73494-.029.74538-.76692.73924-2.13416-.01778-4.26887-.04126-6.40248-.04912q-18.5735-.06851-37.14726-.06248-.34406-.00042-.68811,0a5.99851,5.99851,0,0,0,1.33.12909c3.59274.20675,7.18485.4246,10.77741.63442,2.16684.12658,4.33439.24108,6.50123.36777q5.36108.31347,10.72169.63486c2.16677.12706,4.33414.24416,6.50091.37134,2.87026.16844,5.73875.45592,8.61054.49231,8.12779.103,16.25487.1022,24.37234-.49314,4.25444-.312,8.52062-.46368,12.78149-.6881q5.25191-.27663,10.5038-.55337Q171.82814,200.01164,177.7475,199.71426ZM6.20387,45.77527l-.00408.15132c.76718.22365,237.93771.78673,238.329.48024ZM125.60805,190.69989c0,1.72523.00779,3.4505-.00555,5.17564-.00329.425.133.55568.56311.47378,1.73023-.32956,3.463-.64768,5.2001-.93821.42888-.07174.5436-.27052.5424-.66874q-.01393-4.59131.00239-9.18262c.00217-.45745-.15044-.62021-.61063-.61576q-2.53193.02449-5.06419-.00879c-.4891-.00723-.64337.16119-.63685.64478C125.62184,187.28634,125.60778,188.9932,125.60805,190.69989Zm-.48633-.009c0-1.68692-.01691-3.37411.00979-5.06061.00856-.54009-.18553-.6999-.70992-.69962-1.63043.00087-3.263.07257-4.89111-.05762-.50406-.0403-.62839.1608-.62565.63678q.02616,4.56008-.00144,9.12037c-.0033.4874.15353.68579.6315.76749,1.64355.281,3.28054.60048,4.92012.90476.63465.11779.66416.098.66554-.55079Q125.12592,193.22129,125.12172,190.69091Z" transform="translate(-5.48344 -45.24009)"/><path d="M8.89342,115.27027q0-32.529,0-65.05794a4.08883,4.08883,0,0,0-.003-.50091c-.06823-.54879.18831-.69736.70684-.695,4.43738.02049,8.87531-.01721,13.31223.035,10.06235.11837,20.125.03826,30.18734.085,3.639.01691,7.27838-.01271,10.91719.02173,14.20262.13439,28.40583.02959,42.60833.12383,3.48979.02315,6.97969.02653,10.46947.0511,2.40742.017,4.815.00779,7.22254.01107,7.6803.01047,15.36092-.01978,23.04083.04087,14.29559.11291,28.59163.01248,42.88689.11421,13.90577.099,27.81171.02665,41.71719.115,2.89552.01839,5.79139.02888,8.687.05262.89615.00735.93235.03946.93237.9553q.00054,27.29314.00028,54.58629,0,37.95975,0,75.91951c0,.13.00057.25994-.0002.38991-.00413.72055-.024.75887-.7568.74254-4.06509-.09069-8.13074-.05951-12.19614-.06657-10.23029-.01776-20.4609.01806-30.69076-.05438-14.01717-.09926-28.03467-.00669-42.0514-.11135-12.16053-.0908-24.32118-.01615-36.4814-.098-15.75243-.106-31.50532-.02769-47.25747-.12591-13.92437-.08683-27.849-.00816-41.77285-.11347-6.887-.05207-13.77376-.02486-20.6605-.06663-.816-.005-.81774-.00458-.81775-.85028Q8.89324,148.02205,8.89342,115.27027Zm.486.02046q0,32.49933.00021,64.99866c0,.84312.00145.842.81141.8462,8.1681.04245,16.33623.01728,24.50455.07712,13.79316.10106,27.587.01857,41.38068.11273,14.43673.09853,28.87419.01563,43.31132.11592,13.458.09348,26.91665.01137,40.37507.10748,14.12736.10094,28.25543.01972,42.38326.11006,12.62429.08074,25.24929.04629,37.874.06265,1.07358.00139,1.07361.00129,1.07361-1.09863V51.23827a3.22963,3.22963,0,0,1,.00226-.3896c.06514-.53283-.16112-.70242-.6948-.7048-4.08372-.01816-8.16751-.02247-12.25123-.04892-13.92323-.09017-27.847-.01634-41.77057-.11568-13.9974-.09987-27.99562.00713-41.99336-.114-6.677-.05778-13.35473-.02407-20.03213-.03219q-3.91836-.00477-7.8367-.01212-7.60157-.02652-15.2031-.0654c-13.4777-.0837-26.95583-.01535-40.43385-.10975-14.313-.10026-28.627.01934-42.94018-.12125-2.52472-.02479-5.04984-.00876-7.57478-.01158-.98542-.0011-.98564-.00111-.98564,1.00188Q9.37936,82.9028,9.37941,115.29073Z" transform="translate(-5.48344 -45.24009)"/></svg>